<?xml version="1.0" encoding="utf-8"?>
<!-- Generator: Adobe Illustrator 25.4.1, SVG Export Plug-In . SVG Version: 6.00 Build 0)  -->
<svg version="1.1" id="Calque_1" xmlns="http://www.w3.org/2000/svg" xmlns:xlink="http://www.w3.org/1999/xlink" x="0px" y="0px"
	 viewBox="0 0 330 58.5" style="enable-background:new 0 0 330 58.5;" xml:space="preserve">
<style type="text/css">
	.st0{fill:#FFFFFF;stroke:#FFFFFF;stroke-miterlimit:10;}
	.st1{fill:#FFFFFF;stroke:#FFFFFF;stroke-width:1.35;stroke-miterlimit:10;}
	.st2{fill:#FFFFFF;stroke:#FFFFFF;stroke-width:0.25;stroke-miterlimit:10;}
</style>
<polygon class="st0" points="10.5,22.1 8.2,22.1 2.5,8.1 4.9,8.1 9.4,19.9 9.5,19.9 13.9,8.1 16.2,8.1 "/>
<polygon class="st1" points="10.5,22.1 8.2,22.1 2.5,8.1 4.9,8.1 9.4,19.9 9.5,19.9 13.9,8.1 16.2,8.1 "/>
<path class="st0" d="M37.8,15.1c0,1.1-0.2,2-0.6,2.9c-0.4,0.9-0.9,1.7-1.5,2.3c-0.7,0.7-1.4,1.2-2.4,1.5c-0.9,0.4-1.9,0.6-3,0.6
	c-1.1,0-2.1-0.2-3-0.6c-0.9-0.4-1.7-0.9-2.4-1.5c-0.7-0.7-1.2-1.4-1.5-2.3c-0.4-0.9-0.6-1.9-0.6-2.9s0.2-2,0.6-2.9
	c0.4-0.9,0.9-1.7,1.5-2.3c0.7-0.7,1.4-1.2,2.4-1.5c0.9-0.4,1.9-0.6,3-0.6c1.1,0,2.1,0.2,3,0.6c0.9,0.4,1.7,0.9,2.4,1.5
	c0.7,0.7,1.2,1.4,1.5,2.3C37.6,13.1,37.8,14,37.8,15.1 M35.6,15.1c0-0.8-0.1-1.5-0.4-2.2c-0.2-0.7-0.6-1.3-1.1-1.8
	c-0.5-0.5-1-0.9-1.7-1.2c-0.6-0.3-1.4-0.4-2.2-0.4c-0.8,0-1.6,0.1-2.2,0.4c-0.6,0.3-1.2,0.7-1.7,1.2c-0.5,0.5-0.8,1.1-1.1,1.8
	c-0.3,0.7-0.4,1.4-0.4,2.2s0.1,1.5,0.4,2.2c0.3,0.7,0.6,1.3,1.1,1.8c0.5,0.5,1,0.9,1.7,1.2c0.6,0.3,1.4,0.4,2.2,0.4
	c0.8,0,1.6-0.1,2.2-0.4c0.6-0.3,1.2-0.7,1.7-1.2c0.5-0.5,0.8-1.1,1.1-1.8C35.5,16.6,35.6,15.9,35.6,15.1"/>
<path class="st1" d="M37.8,15.1c0,1.1-0.2,2-0.6,2.9c-0.4,0.9-0.9,1.7-1.5,2.3c-0.7,0.7-1.4,1.2-2.4,1.5c-0.9,0.4-1.9,0.6-3,0.6
	c-1.1,0-2.1-0.2-3-0.6c-0.9-0.4-1.7-0.9-2.4-1.5c-0.7-0.7-1.2-1.4-1.5-2.3c-0.4-0.9-0.6-1.9-0.6-2.9s0.2-2,0.6-2.9
	c0.4-0.9,0.9-1.7,1.5-2.3c0.7-0.7,1.4-1.2,2.4-1.5c0.9-0.4,1.9-0.6,3-0.6c1.1,0,2.1,0.2,3,0.6c0.9,0.4,1.7,0.9,2.4,1.5
	c0.7,0.7,1.2,1.4,1.5,2.3C37.6,13.1,37.8,14,37.8,15.1z M35.6,15.1c0-0.8-0.1-1.5-0.4-2.2c-0.2-0.7-0.6-1.3-1.1-1.8
	c-0.5-0.5-1-0.9-1.7-1.2c-0.6-0.3-1.4-0.4-2.2-0.4c-0.8,0-1.6,0.1-2.2,0.4c-0.6,0.3-1.2,0.7-1.7,1.2c-0.5,0.5-0.8,1.1-1.1,1.8
	c-0.3,0.7-0.4,1.4-0.4,2.2s0.1,1.5,0.4,2.2c0.3,0.7,0.6,1.3,1.1,1.8c0.5,0.5,1,0.9,1.7,1.2c0.6,0.3,1.4,0.4,2.2,0.4
	c0.8,0,1.6-0.1,2.2-0.4c0.6-0.3,1.2-0.7,1.7-1.2c0.5-0.5,0.8-1.1,1.1-1.8C35.5,16.6,35.6,15.9,35.6,15.1z"/>
<path class="st0" d="M53.4,9.9h-4.1v8.3c0,0.5,0.1,0.9,0.2,1.3c0.1,0.3,0.2,0.6,0.4,0.8c0.2,0.2,0.4,0.3,0.6,0.4
	c0.2,0.1,0.5,0.1,0.8,0.1c0.3,0,0.7-0.1,1.1-0.1c0.4-0.1,0.7-0.2,1-0.4l0.1,1.8c-0.7,0.3-1.6,0.5-2.7,0.5c-0.4,0-0.8-0.1-1.2-0.1
	c-0.4-0.1-0.8-0.3-1.1-0.6c-0.3-0.3-0.6-0.7-0.8-1.1c-0.2-0.5-0.3-1.1-0.3-1.9V9.9h-3V8.1h3v-4h2v4h4.1L53.4,9.9L53.4,9.9z"/>
<path class="st1" d="M53.4,9.9h-4.1v8.3c0,0.5,0.1,0.9,0.2,1.3c0.1,0.3,0.2,0.6,0.4,0.8c0.2,0.2,0.4,0.3,0.6,0.4
	c0.2,0.1,0.5,0.1,0.8,0.1c0.3,0,0.7-0.1,1.1-0.1c0.4-0.1,0.7-0.2,1-0.4l0.1,1.8c-0.7,0.3-1.6,0.5-2.7,0.5c-0.4,0-0.8-0.1-1.2-0.1
	c-0.4-0.1-0.8-0.3-1.1-0.6c-0.3-0.3-0.6-0.7-0.8-1.1c-0.2-0.5-0.3-1.1-0.3-1.9V9.9h-3V8.1h3v-4h2v4h4.1L53.4,9.9L53.4,9.9z"/>
<path class="st0" d="M61.1,12.5c0-0.6,0-1.2,0-1.9c0-0.6-0.1-1.5-0.1-2.5h2v2.6H63c0.1-0.4,0.3-0.7,0.6-1.1c0.3-0.4,0.6-0.7,0.9-0.9
	C65,8.4,65.4,8.1,65.9,8c0.5-0.2,1-0.3,1.7-0.3c0.6,0,1.1,0.1,1.5,0.2l-0.4,2c-0.3-0.1-0.6-0.1-1.1-0.1c-0.8,0-1.4,0.1-2,0.4
	c-0.5,0.3-1,0.7-1.4,1.1c-0.4,0.5-0.6,0.9-0.8,1.5c-0.2,0.5-0.3,1-0.3,1.5v7.9h-2L61.1,12.5L61.1,12.5z"/>
<path class="st1" d="M61.1,12.5c0-0.6,0-1.2,0-1.9c0-0.6-0.1-1.5-0.1-2.5h2v2.6H63c0.1-0.4,0.3-0.7,0.6-1.1c0.3-0.4,0.6-0.7,0.9-0.9
	C65,8.4,65.4,8.1,65.9,8c0.5-0.2,1-0.3,1.7-0.3c0.6,0,1.1,0.1,1.5,0.2l-0.4,2c-0.3-0.1-0.6-0.1-1.1-0.1c-0.8,0-1.4,0.1-2,0.4
	c-0.5,0.3-1,0.7-1.4,1.1c-0.4,0.5-0.6,0.9-0.8,1.5c-0.2,0.5-0.3,1-0.3,1.5v7.9h-2L61.1,12.5L61.1,12.5z"/>
<path class="st0" d="M76.5,15.6c0.1,0.7,0.2,1.4,0.5,2c0.3,0.6,0.6,1.2,1.1,1.6c0.5,0.5,1,0.8,1.6,1.1c0.6,0.3,1.3,0.4,2,0.4
	c1.1,0,2-0.2,2.7-0.7c0.8-0.5,1.4-1.1,1.8-1.7l1.5,1.3c-0.8,1.1-1.8,1.8-2.8,2.3c-1,0.5-2.1,0.7-3.3,0.7c-1,0-2-0.2-2.9-0.6
	c-0.9-0.4-1.7-0.9-2.3-1.5c-0.6-0.7-1.1-1.4-1.5-2.3c-0.4-0.9-0.6-1.9-0.6-2.9c0-1.1,0.2-2,0.5-2.9c0.4-0.9,0.9-1.7,1.5-2.3
	c0.6-0.7,1.4-1.2,2.3-1.5c0.9-0.4,1.8-0.6,2.8-0.6c1.1,0,2,0.2,2.9,0.6c0.8,0.4,1.5,0.9,2.1,1.5c0.6,0.6,1,1.4,1.3,2.2
	c0.3,0.9,0.4,1.8,0.4,2.7v0.9L76.5,15.6L76.5,15.6z M86.1,14c0-1.3-0.4-2.4-1.2-3.3c-0.8-0.8-1.9-1.2-3.4-1.2
	c-0.6,0-1.3,0.1-1.9,0.4c-0.6,0.2-1.1,0.6-1.6,1c-0.4,0.4-0.8,0.9-1.1,1.4c-0.3,0.5-0.4,1.1-0.4,1.7C76.6,14,86.1,14,86.1,14z"/>
<path class="st1" d="M76.5,15.6c0.1,0.7,0.2,1.4,0.5,2c0.3,0.6,0.6,1.2,1.1,1.6c0.5,0.5,1,0.8,1.6,1.1c0.6,0.3,1.3,0.4,2,0.4
	c1.1,0,2-0.2,2.7-0.7c0.8-0.5,1.4-1.1,1.8-1.7l1.5,1.3c-0.8,1.1-1.8,1.8-2.8,2.3c-1,0.5-2.1,0.7-3.3,0.7c-1,0-2-0.2-2.9-0.6
	c-0.9-0.4-1.7-0.9-2.3-1.5c-0.6-0.7-1.1-1.4-1.5-2.3c-0.4-0.9-0.6-1.9-0.6-2.9c0-1.1,0.2-2,0.5-2.9c0.4-0.9,0.9-1.7,1.5-2.3
	c0.6-0.7,1.4-1.2,2.3-1.5c0.9-0.4,1.8-0.6,2.8-0.6c1.1,0,2,0.2,2.9,0.6c0.8,0.4,1.5,0.9,2.1,1.5c0.6,0.6,1,1.4,1.3,2.2
	c0.3,0.9,0.4,1.8,0.4,2.7v0.9L76.5,15.6L76.5,15.6z M86.1,14c0-1.3-0.4-2.4-1.2-3.3c-0.8-0.8-1.9-1.2-3.4-1.2
	c-0.6,0-1.3,0.1-1.9,0.4c-0.6,0.2-1.1,0.6-1.6,1c-0.4,0.4-0.8,0.9-1.1,1.4c-0.3,0.5-0.4,1.1-0.4,1.7C76.6,14,86.1,14,86.1,14z"/>
<path class="st0" d="M99.5,2.7c0,0.4-0.2,0.8-0.4,1c-0.3,0.3-0.6,0.4-1,0.4c-0.4,0-0.7-0.1-1-0.4c-0.3-0.3-0.5-0.6-0.5-1
	c0-0.4,0.2-0.8,0.5-1c0.3-0.3,0.6-0.4,1-0.4s0.7,0.1,1,0.4C99.4,1.9,99.5,2.2,99.5,2.7 M99.1,22.1h-2V8.1h2V22.1z"/>
<path class="st1" d="M99.5,2.7c0,0.4-0.2,0.8-0.4,1c-0.3,0.3-0.6,0.4-1,0.4c-0.4,0-0.7-0.1-1-0.4c-0.3-0.3-0.5-0.6-0.5-1
	c0-0.4,0.2-0.8,0.5-1c0.3-0.3,0.6-0.4,1-0.4s0.7,0.1,1,0.4C99.4,1.9,99.5,2.2,99.5,2.7z M99.1,22.1h-2V8.1h2V22.1z"/>
<path class="st0" d="M108.7,11.2c0-0.5,0-1,0-1.6s-0.1-1-0.1-1.6h2.1v2.1h0.1c0.5-0.8,1.1-1.4,2-1.9c0.9-0.4,1.7-0.6,2.5-0.6
	c0.4,0,0.8,0,1.2,0.1c0.4,0.1,0.8,0.2,1.2,0.4s0.8,0.5,1.1,0.9c0.4,0.4,0.6,0.9,0.9,1.5c0.4-0.9,1-1.6,1.9-2.1
	c0.9-0.5,1.8-0.8,2.7-0.8c1.8,0,3.1,0.5,4,1.4c0.9,1,1.3,2.3,1.3,4.1v8.9h-2v-8.2c0-1.4-0.2-2.5-0.8-3.3c-0.5-0.8-1.4-1.1-2.8-1.1
	c-0.7,0-1.4,0.1-1.9,0.4c-0.5,0.3-0.9,0.7-1.2,1.2c-0.3,0.5-0.5,1-0.7,1.6c-0.1,0.6-0.2,1.2-0.2,1.9v7.5h-2v-8.2
	c0-1.4-0.2-2.5-0.8-3.3c-0.5-0.8-1.4-1.1-2.8-1.1c-0.1,0-0.4,0-0.8,0.1c-0.4,0.1-0.9,0.3-1.3,0.7c-0.5,0.4-0.9,0.9-1.2,1.6
	c-0.4,0.7-0.6,1.7-0.6,3v7.2h-2L108.7,11.2L108.7,11.2z"/>
<path class="st1" d="M108.7,11.2c0-0.5,0-1,0-1.6s-0.1-1-0.1-1.6h2.1v2.1h0.1c0.5-0.8,1.1-1.4,2-1.9c0.9-0.4,1.7-0.6,2.5-0.6
	c0.4,0,0.8,0,1.2,0.1c0.4,0.1,0.8,0.2,1.2,0.4s0.8,0.5,1.1,0.9c0.4,0.4,0.6,0.9,0.9,1.5c0.4-0.9,1-1.6,1.9-2.1
	c0.9-0.5,1.8-0.8,2.7-0.8c1.8,0,3.1,0.5,4,1.4c0.9,1,1.3,2.3,1.3,4.1v8.9h-2v-8.2c0-1.4-0.2-2.5-0.8-3.3c-0.5-0.8-1.4-1.1-2.8-1.1
	c-0.7,0-1.4,0.1-1.9,0.4c-0.5,0.3-0.9,0.7-1.2,1.2c-0.3,0.5-0.5,1-0.7,1.6c-0.1,0.6-0.2,1.2-0.2,1.9v7.5h-2v-8.2
	c0-1.4-0.2-2.5-0.8-3.3c-0.5-0.8-1.4-1.1-2.8-1.1c-0.1,0-0.4,0-0.8,0.1c-0.4,0.1-0.9,0.3-1.3,0.7c-0.5,0.4-0.9,0.9-1.2,1.6
	c-0.4,0.7-0.6,1.7-0.6,3v7.2h-2L108.7,11.2L108.7,11.2z"/>
<path class="st0" d="M139,11.2c0-0.5,0-1,0-1.6s-0.1-1-0.1-1.6h2.1v2.1h0.1c0.5-0.8,1.1-1.4,2-1.9s1.7-0.6,2.5-0.6
	c0.4,0,0.8,0,1.2,0.1c0.4,0.1,0.8,0.2,1.2,0.4s0.8,0.5,1.1,0.9c0.3,0.4,0.6,0.9,0.9,1.5c0.4-0.9,1-1.6,1.9-2.1
	c0.9-0.5,1.8-0.8,2.7-0.8c1.8,0,3.1,0.5,4,1.4c0.9,1,1.3,2.3,1.3,4.1v8.9h-2v-8.2c0-1.4-0.2-2.5-0.7-3.3c-0.5-0.8-1.4-1.1-2.8-1.1
	c-0.7,0-1.4,0.1-1.9,0.4c-0.5,0.3-0.9,0.7-1.2,1.2c-0.3,0.5-0.5,1-0.7,1.6c-0.1,0.6-0.2,1.2-0.2,1.9v7.5h-2v-8.2
	c0-1.4-0.3-2.5-0.8-3.3c-0.5-0.8-1.4-1.1-2.8-1.1c-0.1,0-0.4,0-0.8,0.1c-0.4,0.1-0.9,0.3-1.3,0.7c-0.5,0.4-0.9,0.9-1.2,1.6
	c-0.4,0.7-0.6,1.7-0.6,3v7.2h-2L139,11.2L139,11.2z"/>
<path class="st1" d="M139,11.2c0-0.5,0-1,0-1.6s-0.1-1-0.1-1.6h2.1v2.1h0.1c0.5-0.8,1.1-1.4,2-1.9s1.7-0.6,2.5-0.6
	c0.4,0,0.8,0,1.2,0.1c0.4,0.1,0.8,0.2,1.2,0.4s0.8,0.5,1.1,0.9c0.3,0.4,0.6,0.9,0.9,1.5c0.4-0.9,1-1.6,1.9-2.1
	c0.9-0.5,1.8-0.8,2.7-0.8c1.8,0,3.1,0.5,4,1.4c0.9,1,1.3,2.3,1.3,4.1v8.9h-2v-8.2c0-1.4-0.2-2.5-0.7-3.3c-0.5-0.8-1.4-1.1-2.8-1.1
	c-0.7,0-1.4,0.1-1.9,0.4c-0.5,0.3-0.9,0.7-1.2,1.2c-0.3,0.5-0.5,1-0.7,1.6c-0.1,0.6-0.2,1.2-0.2,1.9v7.5h-2v-8.2
	c0-1.4-0.3-2.5-0.8-3.3c-0.5-0.8-1.4-1.1-2.8-1.1c-0.1,0-0.4,0-0.8,0.1c-0.4,0.1-0.9,0.3-1.3,0.7c-0.5,0.4-0.9,0.9-1.2,1.6
	c-0.4,0.7-0.6,1.7-0.6,3v7.2h-2L139,11.2L139,11.2z"/>
<path class="st0" d="M183.6,15.1c0,1.1-0.2,2-0.6,2.9c-0.4,0.9-0.9,1.7-1.5,2.3c-0.7,0.7-1.4,1.2-2.4,1.5c-0.9,0.4-1.9,0.6-3,0.6
	c-1.1,0-2.1-0.2-3-0.6c-0.9-0.4-1.7-0.9-2.4-1.5c-0.7-0.7-1.2-1.4-1.5-2.3c-0.4-0.9-0.6-1.9-0.6-2.9s0.2-2,0.6-2.9
	c0.4-0.9,0.9-1.7,1.5-2.3c0.7-0.7,1.4-1.2,2.4-1.5c0.9-0.4,1.9-0.6,3-0.6c1.1,0,2.1,0.2,3,0.6c0.9,0.4,1.7,0.9,2.4,1.5
	c0.7,0.7,1.2,1.4,1.5,2.3C183.4,13.1,183.6,14,183.6,15.1 M181.5,15.1c0-0.8-0.1-1.5-0.4-2.2c-0.3-0.7-0.6-1.3-1.1-1.8
	c-0.5-0.5-1-0.9-1.7-1.2c-0.6-0.3-1.4-0.4-2.2-0.4c-0.8,0-1.6,0.1-2.2,0.4c-0.6,0.3-1.2,0.7-1.6,1.2c-0.4,0.5-0.8,1.1-1.1,1.8
	c-0.3,0.7-0.4,1.4-0.4,2.2c0,0.8,0.1,1.5,0.4,2.2c0.2,0.7,0.6,1.3,1.1,1.8c0.4,0.5,1,0.9,1.6,1.2c0.6,0.3,1.4,0.4,2.2,0.4
	c0.8,0,1.6-0.1,2.2-0.4c0.6-0.3,1.2-0.7,1.7-1.2c0.5-0.5,0.8-1.1,1.1-1.8C181.3,16.6,181.5,15.9,181.5,15.1"/>
<path class="st1" d="M183.6,15.1c0,1.1-0.2,2-0.6,2.9c-0.4,0.9-0.9,1.7-1.5,2.3c-0.7,0.7-1.4,1.2-2.4,1.5c-0.9,0.4-1.9,0.6-3,0.6
	c-1.1,0-2.1-0.2-3-0.6c-0.9-0.4-1.7-0.9-2.4-1.5c-0.7-0.7-1.2-1.4-1.5-2.3c-0.4-0.9-0.6-1.9-0.6-2.9s0.2-2,0.6-2.9
	c0.4-0.9,0.9-1.7,1.5-2.3c0.7-0.7,1.4-1.2,2.4-1.5c0.9-0.4,1.9-0.6,3-0.6c1.1,0,2.1,0.2,3,0.6c0.9,0.4,1.7,0.9,2.4,1.5
	c0.7,0.7,1.2,1.4,1.5,2.3C183.4,13.1,183.6,14,183.6,15.1z M181.5,15.1c0-0.8-0.1-1.5-0.4-2.2c-0.3-0.7-0.6-1.3-1.1-1.8
	c-0.5-0.5-1-0.9-1.7-1.2c-0.6-0.3-1.4-0.4-2.2-0.4c-0.8,0-1.6,0.1-2.2,0.4c-0.6,0.3-1.2,0.7-1.6,1.2c-0.4,0.5-0.8,1.1-1.1,1.8
	c-0.3,0.7-0.4,1.4-0.4,2.2c0,0.8,0.1,1.5,0.4,2.2c0.2,0.7,0.6,1.3,1.1,1.8c0.4,0.5,1,0.9,1.6,1.2c0.6,0.3,1.4,0.4,2.2,0.4
	c0.8,0,1.6-0.1,2.2-0.4c0.6-0.3,1.2-0.7,1.7-1.2c0.5-0.5,0.8-1.1,1.1-1.8C181.3,16.6,181.5,15.9,181.5,15.1z"/>
<path class="st0" d="M192,8.1h2v2.3h0.1c0.3-0.5,0.7-0.9,1.1-1.2c0.4-0.3,0.9-0.6,1.4-0.8c0.5-0.2,1-0.4,1.5-0.5
	c0.5-0.1,1-0.2,1.5-0.2c1.1,0,2.1,0.2,3,0.6c0.9,0.4,1.7,0.9,2.4,1.5c0.7,0.7,1.2,1.4,1.5,2.3c0.4,0.9,0.6,1.9,0.6,2.9
	s-0.2,2-0.6,2.9c-0.4,0.9-0.9,1.7-1.5,2.3c-0.7,0.7-1.4,1.2-2.4,1.5c-0.9,0.4-1.9,0.6-3,0.6c-0.5,0-0.9-0.1-1.5-0.2
	c-0.5-0.1-1-0.3-1.5-0.5c-0.5-0.2-0.9-0.5-1.4-0.8c-0.4-0.3-0.8-0.8-1.1-1.2H194v11h-2V8.1z M204.9,15.1c0-0.8-0.1-1.5-0.4-2.2
	c-0.3-0.7-0.6-1.3-1.1-1.8c-0.5-0.5-1-0.9-1.7-1.2c-0.7-0.3-1.4-0.4-2.2-0.4c-0.8,0-1.6,0.1-2.3,0.4c-0.7,0.3-1.3,0.7-1.8,1.2
	s-0.9,1.1-1.2,1.8c-0.3,0.7-0.4,1.4-0.4,2.2c0,0.8,0.1,1.5,0.4,2.2c0.3,0.7,0.7,1.3,1.2,1.8c0.5,0.5,1.1,0.9,1.8,1.2
	c0.7,0.3,1.4,0.4,2.3,0.4c0.8,0,1.6-0.1,2.2-0.4c0.6-0.3,1.2-0.7,1.7-1.2c0.5-0.5,0.8-1.1,1.1-1.8C204.7,16.6,204.9,15.9,204.9,15.1
	"/>
<path class="st1" d="M192,8.1h2v2.3h0.1c0.3-0.5,0.7-0.9,1.1-1.2c0.4-0.3,0.9-0.6,1.4-0.8c0.5-0.2,1-0.4,1.5-0.5
	c0.5-0.1,1-0.2,1.5-0.2c1.1,0,2.1,0.2,3,0.6c0.9,0.4,1.7,0.9,2.4,1.5c0.7,0.7,1.2,1.4,1.5,2.3c0.4,0.9,0.6,1.9,0.6,2.9
	s-0.2,2-0.6,2.9c-0.4,0.9-0.9,1.7-1.5,2.3c-0.7,0.7-1.4,1.2-2.4,1.5c-0.9,0.4-1.9,0.6-3,0.6c-0.5,0-0.9-0.1-1.5-0.2
	c-0.5-0.1-1-0.3-1.5-0.5c-0.5-0.2-0.9-0.5-1.4-0.8c-0.4-0.3-0.8-0.8-1.1-1.2H194v11h-2V8.1z M204.9,15.1c0-0.8-0.1-1.5-0.4-2.2
	c-0.3-0.7-0.6-1.3-1.1-1.8c-0.5-0.5-1-0.9-1.7-1.2c-0.7-0.3-1.4-0.4-2.2-0.4c-0.8,0-1.6,0.1-2.3,0.4c-0.7,0.3-1.3,0.7-1.8,1.2
	s-0.9,1.1-1.2,1.8c-0.3,0.7-0.4,1.4-0.4,2.2c0,0.8,0.1,1.5,0.4,2.2c0.3,0.7,0.7,1.3,1.2,1.8c0.5,0.5,1.1,0.9,1.8,1.2
	c0.7,0.3,1.4,0.4,2.3,0.4c0.8,0,1.6-0.1,2.2-0.4c0.6-0.3,1.2-0.7,1.7-1.2c0.5-0.5,0.8-1.1,1.1-1.8C204.7,16.6,204.9,15.9,204.9,15.1
	z"/>
<path class="st0" d="M215.4,12.5c0-0.6,0-1.2,0-1.9c0-0.6-0.1-1.5-0.1-2.5h2v2.6h0.1c0.1-0.4,0.3-0.7,0.6-1.1
	c0.3-0.4,0.6-0.7,0.9-0.9c0.4-0.3,0.8-0.5,1.3-0.7c0.5-0.2,1-0.3,1.7-0.3c0.6,0,1.1,0.1,1.5,0.2l-0.4,2c-0.3-0.1-0.6-0.1-1.1-0.1
	c-0.8,0-1.4,0.1-2,0.4c-0.5,0.3-1,0.7-1.4,1.1c-0.4,0.5-0.6,0.9-0.8,1.5c-0.2,0.5-0.3,1-0.3,1.5v7.9h-2V12.5z"/>
<path class="st1" d="M215.4,12.5c0-0.6,0-1.2,0-1.9c0-0.6-0.1-1.5-0.1-2.5h2v2.6h0.1c0.1-0.4,0.3-0.7,0.6-1.1
	c0.3-0.4,0.6-0.7,0.9-0.9c0.4-0.3,0.8-0.5,1.3-0.7c0.5-0.2,1-0.3,1.7-0.3c0.6,0,1.1,0.1,1.5,0.2l-0.4,2c-0.3-0.1-0.6-0.1-1.1-0.1
	c-0.8,0-1.4,0.1-2,0.4c-0.5,0.3-1,0.7-1.4,1.1c-0.4,0.5-0.6,0.9-0.8,1.5c-0.2,0.5-0.3,1-0.3,1.5v7.9h-2V12.5z"/>
<path class="st0" d="M243.6,15.1c0,1.1-0.2,2-0.6,2.9c-0.4,0.9-0.9,1.7-1.5,2.3c-0.7,0.7-1.4,1.2-2.4,1.5c-0.9,0.4-1.9,0.6-3,0.6
	c-1.1,0-2.1-0.2-3-0.6c-0.9-0.4-1.7-0.9-2.4-1.5c-0.7-0.7-1.2-1.4-1.5-2.3c-0.4-0.9-0.6-1.9-0.6-2.9s0.2-2,0.6-2.9
	c0.4-0.9,0.9-1.7,1.5-2.3c0.7-0.7,1.4-1.2,2.4-1.5c0.9-0.4,1.9-0.6,3-0.6c1.1,0,2.1,0.2,3,0.6c0.9,0.4,1.7,0.9,2.4,1.5
	c0.7,0.7,1.2,1.4,1.5,2.3C243.4,13.1,243.6,14,243.6,15.1 M241.4,15.1c0-0.8-0.1-1.5-0.4-2.2c-0.3-0.7-0.6-1.3-1.1-1.8
	c-0.5-0.5-1-0.9-1.7-1.2c-0.6-0.3-1.4-0.4-2.2-0.4c-0.8,0-1.6,0.1-2.2,0.4c-0.6,0.3-1.2,0.7-1.6,1.2c-0.4,0.5-0.8,1.1-1.1,1.8
	c-0.3,0.7-0.4,1.4-0.4,2.2c0,0.8,0.1,1.5,0.4,2.2c0.2,0.7,0.6,1.3,1.1,1.8c0.4,0.5,1,0.9,1.6,1.2c0.6,0.3,1.4,0.4,2.2,0.4
	c0.8,0,1.6-0.1,2.2-0.4c0.6-0.3,1.2-0.7,1.7-1.2c0.5-0.5,0.8-1.1,1.1-1.8C241.3,16.6,241.4,15.9,241.4,15.1"/>
<path class="st1" d="M243.6,15.1c0,1.1-0.2,2-0.6,2.9c-0.4,0.9-0.9,1.7-1.5,2.3c-0.7,0.7-1.4,1.2-2.4,1.5c-0.9,0.4-1.9,0.6-3,0.6
	c-1.1,0-2.1-0.2-3-0.6c-0.9-0.4-1.7-0.9-2.4-1.5c-0.7-0.7-1.2-1.4-1.5-2.3c-0.4-0.9-0.6-1.9-0.6-2.9s0.2-2,0.6-2.9
	c0.4-0.9,0.9-1.7,1.5-2.3c0.7-0.7,1.4-1.2,2.4-1.5c0.9-0.4,1.9-0.6,3-0.6c1.1,0,2.1,0.2,3,0.6c0.9,0.4,1.7,0.9,2.4,1.5
	c0.7,0.7,1.2,1.4,1.5,2.3C243.4,13.1,243.6,14,243.6,15.1z M241.4,15.1c0-0.8-0.1-1.5-0.4-2.2c-0.3-0.7-0.6-1.3-1.1-1.8
	c-0.5-0.5-1-0.9-1.7-1.2c-0.6-0.3-1.4-0.4-2.2-0.4c-0.8,0-1.6,0.1-2.2,0.4c-0.6,0.3-1.2,0.7-1.6,1.2c-0.4,0.5-0.8,1.1-1.1,1.8
	c-0.3,0.7-0.4,1.4-0.4,2.2c0,0.8,0.1,1.5,0.4,2.2c0.2,0.7,0.6,1.3,1.1,1.8c0.4,0.5,1,0.9,1.6,1.2c0.6,0.3,1.4,0.4,2.2,0.4
	c0.8,0,1.6-0.1,2.2-0.4c0.6-0.3,1.2-0.7,1.7-1.2c0.5-0.5,0.8-1.1,1.1-1.8C241.3,16.6,241.4,15.9,241.4,15.1z"/>
<path class="st0" d="M255.6,20.7c0,0.4-0.1,0.8-0.5,1.1c-0.3,0.3-0.7,0.5-1.2,0.5c-0.5,0-0.9-0.2-1.2-0.5c-0.3-0.3-0.4-0.7-0.4-1.1
	c0-0.4,0.2-0.8,0.4-1.1c0.3-0.3,0.7-0.5,1.2-0.5s0.9,0.2,1.2,0.5C255.5,19.9,255.6,20.3,255.6,20.7"/>
<path class="st1" d="M255.6,20.7c0,0.4-0.1,0.8-0.5,1.1c-0.3,0.3-0.7,0.5-1.2,0.5c-0.5,0-0.9-0.2-1.2-0.5c-0.3-0.3-0.4-0.7-0.4-1.1
	c0-0.4,0.2-0.8,0.4-1.1c0.3-0.3,0.7-0.5,1.2-0.5s0.9,0.2,1.2,0.5C255.5,19.9,255.6,20.3,255.6,20.7z"/>
<path class="st0" d="M275.4,11.4c-0.3-0.5-0.8-1-1.4-1.3c-0.6-0.4-1.3-0.5-2.1-0.5c-0.8,0-1.6,0.1-2.2,0.4c-0.6,0.3-1.2,0.7-1.7,1.2
	c-0.5,0.5-0.8,1.1-1,1.8c-0.2,0.7-0.4,1.4-0.4,2.2c0,0.8,0.1,1.5,0.4,2.2c0.2,0.7,0.6,1.3,1,1.8c0.5,0.5,1,0.9,1.7,1.2
	c0.6,0.3,1.4,0.4,2.2,0.4c0.8,0,1.5-0.2,2.1-0.5c0.6-0.4,1.1-0.8,1.4-1.3L277,20c-0.7,0.8-1.5,1.4-2.4,1.8c-0.9,0.4-1.8,0.6-2.8,0.6
	c-1.1,0-2.2-0.2-3.1-0.5c-0.9-0.4-1.7-0.9-2.4-1.5c-0.7-0.7-1.1-1.4-1.5-2.4c-0.3-0.9-0.5-1.9-0.5-3c0-1.1,0.2-2,0.5-3
	c0.3-0.9,0.8-1.7,1.5-2.4c0.6-0.7,1.4-1.2,2.4-1.5c0.9-0.4,2-0.5,3.1-0.5c1,0,1.9,0.2,2.8,0.6c0.9,0.4,1.7,1,2.4,1.8L275.4,11.4z"/>
<path class="st1" d="M275.4,11.4c-0.3-0.5-0.8-1-1.4-1.3c-0.6-0.4-1.3-0.5-2.1-0.5c-0.8,0-1.6,0.1-2.2,0.4c-0.6,0.3-1.2,0.7-1.7,1.2
	c-0.5,0.5-0.8,1.1-1,1.8c-0.2,0.7-0.4,1.4-0.4,2.2c0,0.8,0.1,1.5,0.4,2.2c0.2,0.7,0.6,1.3,1,1.8c0.5,0.5,1,0.9,1.7,1.2
	c0.6,0.3,1.4,0.4,2.2,0.4c0.8,0,1.5-0.2,2.1-0.5c0.6-0.4,1.1-0.8,1.4-1.3L277,20c-0.7,0.8-1.5,1.4-2.4,1.8c-0.9,0.4-1.8,0.6-2.8,0.6
	c-1.1,0-2.2-0.2-3.1-0.5c-0.9-0.4-1.7-0.9-2.4-1.5c-0.7-0.7-1.1-1.4-1.5-2.4c-0.3-0.9-0.5-1.9-0.5-3c0-1.1,0.2-2,0.5-3
	c0.3-0.9,0.8-1.7,1.5-2.4c0.6-0.7,1.4-1.2,2.4-1.5c0.9-0.4,2-0.5,3.1-0.5c1,0,1.9,0.2,2.8,0.6c0.9,0.4,1.7,1,2.4,1.8L275.4,11.4z"/>
<path class="st0" d="M298.6,15.1c0,1.1-0.2,2-0.6,2.9c-0.4,0.9-0.9,1.7-1.5,2.3c-0.7,0.7-1.4,1.2-2.4,1.5c-0.9,0.4-1.9,0.6-3,0.6
	c-1.1,0-2.1-0.2-3-0.6c-0.9-0.4-1.7-0.9-2.4-1.5c-0.7-0.7-1.2-1.4-1.5-2.3c-0.4-0.9-0.6-1.9-0.6-2.9s0.2-2,0.6-2.9
	c0.4-0.9,0.9-1.7,1.5-2.3c0.7-0.7,1.4-1.2,2.4-1.5c0.9-0.4,1.9-0.6,3-0.6c1.1,0,2.1,0.2,3,0.6c0.9,0.4,1.7,0.9,2.4,1.5
	c0.7,0.7,1.2,1.4,1.5,2.3C298.5,13.1,298.6,14,298.6,15.1 M296.5,15.1c0-0.8-0.1-1.5-0.4-2.2c-0.3-0.7-0.6-1.3-1.1-1.8
	c-0.5-0.5-1-0.9-1.7-1.2c-0.6-0.3-1.4-0.4-2.2-0.4c-0.8,0-1.6,0.1-2.2,0.4c-0.6,0.3-1.2,0.7-1.7,1.2c-0.4,0.5-0.8,1.1-1,1.8
	c-0.3,0.7-0.4,1.4-0.4,2.2c0,0.8,0.1,1.5,0.4,2.2c0.2,0.7,0.6,1.3,1,1.8c0.5,0.5,1,0.9,1.7,1.2c0.6,0.3,1.4,0.4,2.2,0.4
	c0.8,0,1.6-0.1,2.2-0.4c0.6-0.3,1.2-0.7,1.7-1.2c0.5-0.5,0.8-1.1,1.1-1.8C296.4,16.6,296.5,15.9,296.5,15.1"/>
<path class="st1" d="M298.6,15.1c0,1.1-0.2,2-0.6,2.9c-0.4,0.9-0.9,1.7-1.5,2.3c-0.7,0.7-1.4,1.2-2.4,1.5c-0.9,0.4-1.9,0.6-3,0.6
	c-1.1,0-2.1-0.2-3-0.6c-0.9-0.4-1.7-0.9-2.4-1.5c-0.7-0.7-1.2-1.4-1.5-2.3c-0.4-0.9-0.6-1.9-0.6-2.9s0.2-2,0.6-2.9
	c0.4-0.9,0.9-1.7,1.5-2.3c0.7-0.7,1.4-1.2,2.4-1.5c0.9-0.4,1.9-0.6,3-0.6c1.1,0,2.1,0.2,3,0.6c0.9,0.4,1.7,0.9,2.4,1.5
	c0.7,0.7,1.2,1.4,1.5,2.3C298.5,13.1,298.6,14,298.6,15.1z M296.5,15.1c0-0.8-0.1-1.5-0.4-2.2c-0.3-0.7-0.6-1.3-1.1-1.8
	c-0.5-0.5-1-0.9-1.7-1.2c-0.6-0.3-1.4-0.4-2.2-0.4c-0.8,0-1.6,0.1-2.2,0.4c-0.6,0.3-1.2,0.7-1.7,1.2c-0.4,0.5-0.8,1.1-1,1.8
	c-0.3,0.7-0.4,1.4-0.4,2.2c0,0.8,0.1,1.5,0.4,2.2c0.2,0.7,0.6,1.3,1,1.8c0.5,0.5,1,0.9,1.7,1.2c0.6,0.3,1.4,0.4,2.2,0.4
	c0.8,0,1.6-0.1,2.2-0.4c0.6-0.3,1.2-0.7,1.7-1.2c0.5-0.5,0.8-1.1,1.1-1.8C296.4,16.6,296.5,15.9,296.5,15.1z"/>
<path class="st0" d="M307,11.2c0-0.5,0-1,0-1.6s-0.1-1-0.1-1.6h2.1v2.1h0.1c0.5-0.8,1.1-1.4,2-1.9c0.8-0.4,1.7-0.6,2.5-0.6
	c0.4,0,0.8,0,1.2,0.1c0.4,0.1,0.8,0.2,1.2,0.4c0.4,0.2,0.8,0.5,1.1,0.9c0.4,0.4,0.6,0.9,0.9,1.5c0.4-0.9,1-1.6,1.9-2.1
	c0.9-0.5,1.8-0.8,2.7-0.8c1.8,0,3.1,0.5,4,1.4c0.9,1,1.3,2.3,1.3,4.1v8.9h-2v-8.2c0-1.4-0.2-2.5-0.8-3.3c-0.5-0.8-1.4-1.1-2.8-1.1
	c-0.7,0-1.4,0.1-1.9,0.4c-0.5,0.3-0.9,0.7-1.2,1.2c-0.3,0.5-0.5,1-0.7,1.6c-0.1,0.6-0.2,1.2-0.2,1.9v7.5h-2v-8.2
	c0-1.4-0.3-2.5-0.8-3.3c-0.5-0.8-1.4-1.1-2.8-1.1c-0.1,0-0.4,0-0.8,0.1c-0.4,0.1-0.9,0.3-1.3,0.7c-0.5,0.4-0.9,0.9-1.2,1.6
	c-0.4,0.7-0.6,1.7-0.6,3v7.2h-2L307,11.2L307,11.2z"/>
<path class="st1" d="M307,11.2c0-0.5,0-1,0-1.6s-0.1-1-0.1-1.6h2.1v2.1h0.1c0.5-0.8,1.1-1.4,2-1.9c0.8-0.4,1.7-0.6,2.5-0.6
	c0.4,0,0.8,0,1.2,0.1c0.4,0.1,0.8,0.2,1.2,0.4c0.4,0.2,0.8,0.5,1.1,0.9c0.4,0.4,0.6,0.9,0.9,1.5c0.4-0.9,1-1.6,1.9-2.1
	c0.9-0.5,1.8-0.8,2.7-0.8c1.8,0,3.1,0.5,4,1.4c0.9,1,1.3,2.3,1.3,4.1v8.9h-2v-8.2c0-1.4-0.2-2.5-0.8-3.3c-0.5-0.8-1.4-1.1-2.8-1.1
	c-0.7,0-1.4,0.1-1.9,0.4c-0.5,0.3-0.9,0.7-1.2,1.2c-0.3,0.5-0.5,1-0.7,1.6c-0.1,0.6-0.2,1.2-0.2,1.9v7.5h-2v-8.2
	c0-1.4-0.3-2.5-0.8-3.3c-0.5-0.8-1.4-1.1-2.8-1.1c-0.1,0-0.4,0-0.8,0.1c-0.4,0.1-0.9,0.3-1.3,0.7c-0.5,0.4-0.9,0.9-1.2,1.6
	c-0.4,0.7-0.6,1.7-0.6,3v7.2h-2L307,11.2L307,11.2z"/>
<rect x="111.8" y="37.4" class="st0" width="1.2" height="12"/>
<rect x="111.8" y="37.4" class="st2" width="1.2" height="12"/>
<path class="st0" d="M115.9,43.3c0-0.3,0-0.6,0-0.9c0-0.3,0-0.6-0.1-0.9h1.2v1.2h0c0.3-0.5,0.6-0.8,1.1-1c0.5-0.2,1-0.4,1.4-0.4
	c0.2,0,0.4,0,0.7,0.1c0.2,0,0.5,0.1,0.7,0.2c0.2,0.1,0.4,0.3,0.6,0.5c0.2,0.2,0.4,0.5,0.5,0.8c0.2-0.5,0.6-0.9,1.1-1.2
	c0.5-0.3,1-0.4,1.5-0.4c1,0,1.8,0.3,2.2,0.8c0.5,0.5,0.7,1.3,0.7,2.3v5h-1.1v-4.6c0-0.8-0.1-1.4-0.4-1.8c-0.3-0.4-0.8-0.6-1.6-0.6
	c-0.4,0-0.8,0.1-1,0.2s-0.5,0.4-0.7,0.7c-0.2,0.3-0.3,0.6-0.4,0.9c-0.1,0.3-0.1,0.7-0.1,1.1v4.2h-1.1v-4.6c0-0.8-0.1-1.4-0.4-1.8
	c-0.3-0.4-0.8-0.6-1.6-0.6c-0.1,0-0.2,0-0.5,0.1c-0.2,0-0.5,0.2-0.8,0.4c-0.3,0.2-0.5,0.5-0.7,0.9c-0.2,0.4-0.3,1-0.3,1.7v4.1h-1.1
	L115.9,43.3L115.9,43.3z"/>
<path class="st2" d="M115.9,43.3c0-0.3,0-0.6,0-0.9c0-0.3,0-0.6-0.1-0.9h1.2v1.2h0c0.3-0.5,0.6-0.8,1.1-1c0.5-0.2,1-0.4,1.4-0.4
	c0.2,0,0.4,0,0.7,0.1c0.2,0,0.5,0.1,0.7,0.2c0.2,0.1,0.4,0.3,0.6,0.5c0.2,0.2,0.4,0.5,0.5,0.8c0.2-0.5,0.6-0.9,1.1-1.2
	c0.5-0.3,1-0.4,1.5-0.4c1,0,1.8,0.3,2.2,0.8c0.5,0.5,0.7,1.3,0.7,2.3v5h-1.1v-4.6c0-0.8-0.1-1.4-0.4-1.8c-0.3-0.4-0.8-0.6-1.6-0.6
	c-0.4,0-0.8,0.1-1,0.2s-0.5,0.4-0.7,0.7c-0.2,0.3-0.3,0.6-0.4,0.9c-0.1,0.3-0.1,0.7-0.1,1.1v4.2h-1.1v-4.6c0-0.8-0.1-1.4-0.4-1.8
	c-0.3-0.4-0.8-0.6-1.6-0.6c-0.1,0-0.2,0-0.5,0.1c-0.2,0-0.5,0.2-0.8,0.4c-0.3,0.2-0.5,0.5-0.7,0.9c-0.2,0.4-0.3,1-0.3,1.7v4.1h-1.1
	L115.9,43.3L115.9,43.3z"/>
<path class="st0" d="M130.3,43.3c0-0.3,0-0.6,0-0.9c0-0.3,0-0.6-0.1-0.9h1.2v1.2h0c0.3-0.5,0.6-0.8,1.1-1c0.5-0.2,1-0.4,1.4-0.4
	c0.2,0,0.4,0,0.7,0.1c0.2,0,0.5,0.1,0.7,0.2c0.2,0.1,0.4,0.3,0.6,0.5c0.2,0.2,0.4,0.5,0.5,0.8c0.2-0.5,0.6-0.9,1.1-1.2
	c0.5-0.3,1-0.4,1.5-0.4c1,0,1.8,0.3,2.2,0.8c0.5,0.5,0.7,1.3,0.7,2.3v5h-1.1v-4.6c0-0.8-0.1-1.4-0.4-1.8c-0.3-0.4-0.8-0.6-1.6-0.6
	c-0.4,0-0.8,0.1-1,0.2s-0.5,0.4-0.7,0.7c-0.2,0.3-0.3,0.6-0.4,0.9c-0.1,0.3-0.1,0.7-0.1,1.1v4.2h-1.1v-4.6c0-0.8-0.1-1.4-0.4-1.8
	c-0.3-0.4-0.8-0.6-1.6-0.6c-0.1,0-0.2,0-0.5,0.1c-0.2,0-0.5,0.2-0.8,0.4c-0.3,0.2-0.5,0.5-0.7,0.9c-0.2,0.4-0.3,1-0.3,1.7v4.1h-1.1
	L130.3,43.3L130.3,43.3z"/>
<path class="st2" d="M130.3,43.3c0-0.3,0-0.6,0-0.9c0-0.3,0-0.6-0.1-0.9h1.2v1.2h0c0.3-0.5,0.6-0.8,1.1-1c0.5-0.2,1-0.4,1.4-0.4
	c0.2,0,0.4,0,0.7,0.1c0.2,0,0.5,0.1,0.7,0.2c0.2,0.1,0.4,0.3,0.6,0.5c0.2,0.2,0.4,0.5,0.5,0.8c0.2-0.5,0.6-0.9,1.1-1.2
	c0.5-0.3,1-0.4,1.5-0.4c1,0,1.8,0.3,2.2,0.8c0.5,0.5,0.7,1.3,0.7,2.3v5h-1.1v-4.6c0-0.8-0.1-1.4-0.4-1.8c-0.3-0.4-0.8-0.6-1.6-0.6
	c-0.4,0-0.8,0.1-1,0.2s-0.5,0.4-0.7,0.7c-0.2,0.3-0.3,0.6-0.4,0.9c-0.1,0.3-0.1,0.7-0.1,1.1v4.2h-1.1v-4.6c0-0.8-0.1-1.4-0.4-1.8
	c-0.3-0.4-0.8-0.6-1.6-0.6c-0.1,0-0.2,0-0.5,0.1c-0.2,0-0.5,0.2-0.8,0.4c-0.3,0.2-0.5,0.5-0.7,0.9c-0.2,0.4-0.3,1-0.3,1.7v4.1h-1.1
	L130.3,43.3L130.3,43.3z"/>
<path class="st0" d="M152.6,45.4c0,0.6-0.1,1.1-0.3,1.7c-0.2,0.5-0.5,0.9-0.9,1.3c-0.4,0.4-0.8,0.7-1.3,0.9
	c-0.5,0.2-1.1,0.3-1.7,0.3c-0.6,0-1.2-0.1-1.7-0.3c-0.5-0.2-1-0.5-1.3-0.9c-0.4-0.4-0.7-0.8-0.9-1.3c-0.2-0.5-0.3-1.1-0.3-1.7
	c0-0.6,0.1-1.1,0.3-1.7c0.2-0.5,0.5-0.9,0.9-1.3c0.4-0.4,0.8-0.7,1.3-0.9c0.5-0.2,1.1-0.3,1.7-0.3c0.6,0,1.2,0.1,1.7,0.3
	c0.5,0.2,1,0.5,1.3,0.9c0.4,0.4,0.7,0.8,0.9,1.3C152.5,44.3,152.6,44.9,152.6,45.4 M151.4,45.4c0-0.4-0.1-0.8-0.2-1.2
	c-0.1-0.4-0.3-0.7-0.6-1c-0.3-0.3-0.6-0.5-0.9-0.7s-0.8-0.2-1.2-0.2c-0.5,0-0.9,0.1-1.2,0.2c-0.4,0.2-0.7,0.4-0.9,0.7
	c-0.3,0.3-0.4,0.6-0.6,1c-0.1,0.4-0.2,0.8-0.2,1.2c0,0.4,0.1,0.8,0.2,1.2c0.1,0.4,0.3,0.7,0.6,1c0.3,0.3,0.6,0.5,0.9,0.7
	c0.4,0.2,0.8,0.2,1.2,0.2c0.5,0,0.9-0.1,1.2-0.2s0.7-0.4,0.9-0.7c0.3-0.3,0.5-0.6,0.6-1C151.3,46.3,151.4,45.9,151.4,45.4"/>
<path class="st2" d="M152.6,45.4c0,0.6-0.1,1.1-0.3,1.7c-0.2,0.5-0.5,0.9-0.9,1.3c-0.4,0.4-0.8,0.7-1.3,0.9
	c-0.5,0.2-1.1,0.3-1.7,0.3c-0.6,0-1.2-0.1-1.7-0.3c-0.5-0.2-1-0.5-1.3-0.9c-0.4-0.4-0.7-0.8-0.9-1.3c-0.2-0.5-0.3-1.1-0.3-1.7
	c0-0.6,0.1-1.1,0.3-1.7c0.2-0.5,0.5-0.9,0.9-1.3c0.4-0.4,0.8-0.7,1.3-0.9c0.5-0.2,1.1-0.3,1.7-0.3c0.6,0,1.2,0.1,1.7,0.3
	c0.5,0.2,1,0.5,1.3,0.9c0.4,0.4,0.7,0.8,0.9,1.3C152.5,44.3,152.6,44.9,152.6,45.4z M151.4,45.4c0-0.4-0.1-0.8-0.2-1.2
	c-0.1-0.4-0.3-0.7-0.6-1c-0.3-0.3-0.6-0.5-0.9-0.7s-0.8-0.2-1.2-0.2c-0.5,0-0.9,0.1-1.2,0.2c-0.4,0.2-0.7,0.4-0.9,0.7
	c-0.3,0.3-0.4,0.6-0.6,1c-0.1,0.4-0.2,0.8-0.2,1.2c0,0.4,0.1,0.8,0.2,1.2c0.1,0.4,0.3,0.7,0.6,1c0.3,0.3,0.6,0.5,0.9,0.7
	c0.4,0.2,0.8,0.2,1.2,0.2c0.5,0,0.9-0.1,1.2-0.2s0.7-0.4,0.9-0.7c0.3-0.3,0.5-0.6,0.6-1C151.3,46.3,151.4,45.9,151.4,45.4z"/>
<path class="st0" d="M154.7,36.6h1.1v6.2h0c0.2-0.3,0.4-0.5,0.6-0.7c0.2-0.2,0.5-0.3,0.8-0.5c0.3-0.1,0.6-0.2,0.8-0.3
	c0.3-0.1,0.6-0.1,0.8-0.1c0.6,0,1.2,0.1,1.7,0.3c0.5,0.2,1,0.5,1.3,0.9c0.4,0.4,0.7,0.8,0.9,1.3c0.2,0.5,0.3,1.1,0.3,1.7
	c0,0.6-0.1,1.1-0.3,1.7c-0.2,0.5-0.5,0.9-0.9,1.3c-0.4,0.4-0.8,0.7-1.3,0.9s-1.1,0.3-1.7,0.3c-0.3,0-0.5,0-0.8-0.1
	c-0.3-0.1-0.6-0.1-0.8-0.3c-0.3-0.1-0.5-0.3-0.8-0.5c-0.2-0.2-0.5-0.4-0.6-0.7h0v1.3h-1.1V36.6z M161.9,45.4c0-0.4-0.1-0.8-0.2-1.2
	c-0.1-0.4-0.3-0.7-0.6-1c-0.3-0.3-0.6-0.5-0.9-0.7c-0.4-0.2-0.8-0.2-1.2-0.2c-0.5,0-0.9,0.1-1.3,0.2c-0.4,0.2-0.7,0.4-1,0.7
	c-0.3,0.3-0.5,0.6-0.7,1c-0.2,0.4-0.2,0.8-0.2,1.2c0,0.4,0.1,0.8,0.2,1.2c0.2,0.4,0.4,0.7,0.7,1c0.3,0.3,0.6,0.5,1,0.7
	c0.4,0.2,0.8,0.2,1.3,0.2c0.5,0,0.9-0.1,1.2-0.2c0.4-0.2,0.7-0.4,0.9-0.7c0.3-0.3,0.5-0.6,0.6-1C161.8,46.3,161.9,45.9,161.9,45.4"
	/>
<path class="st2" d="M154.7,36.6h1.1v6.2h0c0.2-0.3,0.4-0.5,0.6-0.7c0.2-0.2,0.5-0.3,0.8-0.5c0.3-0.1,0.6-0.2,0.8-0.3
	c0.3-0.1,0.6-0.1,0.8-0.1c0.6,0,1.2,0.1,1.7,0.3c0.5,0.2,1,0.5,1.3,0.9c0.4,0.4,0.7,0.8,0.9,1.3c0.2,0.5,0.3,1.1,0.3,1.7
	c0,0.6-0.1,1.1-0.3,1.7c-0.2,0.5-0.5,0.9-0.9,1.3c-0.4,0.4-0.8,0.7-1.3,0.9s-1.1,0.3-1.7,0.3c-0.3,0-0.5,0-0.8-0.1
	c-0.3-0.1-0.6-0.1-0.8-0.3c-0.3-0.1-0.5-0.3-0.8-0.5c-0.2-0.2-0.5-0.4-0.6-0.7h0v1.3h-1.1V36.6z M161.9,45.4c0-0.4-0.1-0.8-0.2-1.2
	c-0.1-0.4-0.3-0.7-0.6-1c-0.3-0.3-0.6-0.5-0.9-0.7c-0.4-0.2-0.8-0.2-1.2-0.2c-0.5,0-0.9,0.1-1.3,0.2c-0.4,0.2-0.7,0.4-1,0.7
	c-0.3,0.3-0.5,0.6-0.7,1c-0.2,0.4-0.2,0.8-0.2,1.2c0,0.4,0.1,0.8,0.2,1.2c0.2,0.4,0.4,0.7,0.7,1c0.3,0.3,0.6,0.5,1,0.7
	c0.4,0.2,0.8,0.2,1.3,0.2c0.5,0,0.9-0.1,1.2-0.2c0.4-0.2,0.7-0.4,0.9-0.7c0.3-0.3,0.5-0.6,0.6-1C161.8,46.3,161.9,45.9,161.9,45.4z"
	/>
<path class="st0" d="M166.6,38.5c0,0.2-0.1,0.4-0.3,0.6s-0.4,0.2-0.6,0.2c-0.2,0-0.4-0.1-0.6-0.2c-0.2-0.2-0.3-0.3-0.3-0.6
	s0.1-0.4,0.3-0.6c0.2-0.2,0.4-0.2,0.6-0.2c0.2,0,0.4,0.1,0.6,0.2C166.5,38,166.6,38.2,166.6,38.5 M166.3,49.4h-1.1v-7.9h1.1V49.4z"
	/>
<path class="st2" d="M166.6,38.5c0,0.2-0.1,0.4-0.3,0.6s-0.4,0.2-0.6,0.2c-0.2,0-0.4-0.1-0.6-0.2c-0.2-0.2-0.3-0.3-0.3-0.6
	s0.1-0.4,0.3-0.6c0.2-0.2,0.4-0.2,0.6-0.2c0.2,0,0.4,0.1,0.6,0.2C166.5,38,166.6,38.2,166.6,38.5z M166.3,49.4h-1.1v-7.9h1.1V49.4z"
	/>
<rect x="169.3" y="36.6" class="st0" width="1.1" height="12.8"/>
<rect x="169.3" y="36.6" class="st2" width="1.1" height="12.8"/>
<path class="st0" d="M174.7,38.5c0,0.2-0.1,0.4-0.3,0.6c-0.2,0.2-0.4,0.2-0.6,0.2c-0.2,0-0.4-0.1-0.6-0.2s-0.3-0.3-0.3-0.6
	s0.1-0.4,0.3-0.6c0.2-0.2,0.4-0.2,0.6-0.2c0.2,0,0.4,0.1,0.6,0.2C174.6,38,174.7,38.2,174.7,38.5 M174.4,49.4h-1.1v-7.9h1.1V49.4z"
	/>
<path class="st2" d="M174.7,38.5c0,0.2-0.1,0.4-0.3,0.6c-0.2,0.2-0.4,0.2-0.6,0.2c-0.2,0-0.4-0.1-0.6-0.2s-0.3-0.3-0.3-0.6
	s0.1-0.4,0.3-0.6c0.2-0.2,0.4-0.2,0.6-0.2c0.2,0,0.4,0.1,0.6,0.2C174.6,38,174.7,38.2,174.7,38.5z M174.4,49.4h-1.1v-7.9h1.1V49.4z"
	/>
<path class="st0" d="M177.9,45.8c0,0.4,0.1,0.8,0.3,1.1c0.2,0.3,0.4,0.6,0.6,0.9c0.3,0.3,0.6,0.5,0.9,0.6c0.3,0.1,0.7,0.2,1.1,0.2
	c0.6,0,1.1-0.1,1.5-0.4c0.4-0.3,0.8-0.6,1-1l0.9,0.7c-0.5,0.6-1,1-1.6,1.3c-0.6,0.3-1.2,0.4-1.8,0.4c-0.6,0-1.1-0.1-1.6-0.3
	c-0.5-0.2-0.9-0.5-1.3-0.9c-0.4-0.4-0.6-0.8-0.9-1.3c-0.2-0.5-0.3-1.1-0.3-1.7c0-0.6,0.1-1.1,0.3-1.7c0.2-0.5,0.5-0.9,0.8-1.3
	c0.4-0.4,0.8-0.7,1.3-0.9c0.5-0.2,1-0.3,1.6-0.3c0.6,0,1.1,0.1,1.6,0.3c0.5,0.2,0.9,0.5,1.2,0.9c0.3,0.4,0.6,0.8,0.7,1.2
	c0.2,0.5,0.3,1,0.3,1.5v0.5L177.9,45.8L177.9,45.8z M183.3,44.8c0-0.8-0.2-1.4-0.7-1.8c-0.4-0.5-1.1-0.7-1.9-0.7
	c-0.4,0-0.7,0.1-1,0.2c-0.3,0.1-0.6,0.3-0.9,0.6c-0.3,0.2-0.5,0.5-0.6,0.8c-0.1,0.3-0.2,0.6-0.2,0.9L183.3,44.8L183.3,44.8z"/>
<path class="st2" d="M177.9,45.8c0,0.4,0.1,0.8,0.3,1.1c0.2,0.3,0.4,0.6,0.6,0.9c0.3,0.3,0.6,0.5,0.9,0.6c0.3,0.1,0.7,0.2,1.1,0.2
	c0.6,0,1.1-0.1,1.5-0.4c0.4-0.3,0.8-0.6,1-1l0.9,0.7c-0.5,0.6-1,1-1.6,1.3c-0.6,0.3-1.2,0.4-1.8,0.4c-0.6,0-1.1-0.1-1.6-0.3
	c-0.5-0.2-0.9-0.5-1.3-0.9c-0.4-0.4-0.6-0.8-0.9-1.3c-0.2-0.5-0.3-1.1-0.3-1.7c0-0.6,0.1-1.1,0.3-1.7c0.2-0.5,0.5-0.9,0.8-1.3
	c0.4-0.4,0.8-0.7,1.3-0.9c0.5-0.2,1-0.3,1.6-0.3c0.6,0,1.1,0.1,1.6,0.3c0.5,0.2,0.9,0.5,1.2,0.9c0.3,0.4,0.6,0.8,0.7,1.2
	c0.2,0.5,0.3,1,0.3,1.5v0.5L177.9,45.8L177.9,45.8z M183.3,44.8c0-0.8-0.2-1.4-0.7-1.8c-0.4-0.5-1.1-0.7-1.9-0.7
	c-0.4,0-0.7,0.1-1,0.2c-0.3,0.1-0.6,0.3-0.9,0.6c-0.3,0.2-0.5,0.5-0.6,0.8c-0.1,0.3-0.2,0.6-0.2,0.9L183.3,44.8L183.3,44.8z"/>
<path class="st0" d="M186.6,44c0-0.3,0-0.7,0-1.1c0-0.4,0-0.8,0-1.4h1.1V43h0c0.1-0.2,0.2-0.4,0.3-0.6c0.1-0.2,0.3-0.4,0.5-0.5
	c0.2-0.2,0.5-0.3,0.7-0.4c0.3-0.1,0.6-0.1,0.9-0.1c0.3,0,0.6,0,0.8,0.1l-0.2,1.1c-0.1-0.1-0.4-0.1-0.6-0.1c-0.4,0-0.8,0.1-1.1,0.2
	c-0.3,0.2-0.6,0.4-0.8,0.6c-0.2,0.3-0.4,0.5-0.4,0.8c-0.1,0.3-0.1,0.6-0.1,0.8v4.5h-1.1L186.6,44L186.6,44z"/>
<path class="st2" d="M186.6,44c0-0.3,0-0.7,0-1.1c0-0.4,0-0.8,0-1.4h1.1V43h0c0.1-0.2,0.2-0.4,0.3-0.6c0.1-0.2,0.3-0.4,0.5-0.5
	c0.2-0.2,0.5-0.3,0.7-0.4c0.3-0.1,0.6-0.1,0.9-0.1c0.3,0,0.6,0,0.8,0.1l-0.2,1.1c-0.1-0.1-0.4-0.1-0.6-0.1c-0.4,0-0.8,0.1-1.1,0.2
	c-0.3,0.2-0.6,0.4-0.8,0.6c-0.2,0.3-0.4,0.5-0.4,0.8c-0.1,0.3-0.1,0.6-0.1,0.8v4.5h-1.1L186.6,44L186.6,44z"/>
<path class="st0" d="M204.7,49.4h-1.1v-1.3h0c-0.2,0.3-0.4,0.5-0.6,0.7c-0.2,0.2-0.5,0.4-0.8,0.5c-0.3,0.1-0.6,0.2-0.8,0.3
	c-0.3,0.1-0.6,0.1-0.8,0.1c-0.6,0-1.2-0.1-1.7-0.3c-0.5-0.2-1-0.5-1.3-0.9c-0.4-0.4-0.7-0.8-0.9-1.3c-0.2-0.5-0.3-1.1-0.3-1.7
	c0-0.6,0.1-1.1,0.3-1.7c0.2-0.5,0.5-0.9,0.9-1.3c0.4-0.4,0.8-0.7,1.3-0.9c0.5-0.2,1.1-0.3,1.7-0.3c0.3,0,0.5,0,0.8,0.1
	c0.3,0.1,0.6,0.1,0.8,0.3c0.3,0.1,0.5,0.3,0.8,0.5c0.2,0.2,0.5,0.4,0.6,0.7h0v-6.2h1.1V49.4z M197.5,45.4c0,0.4,0.1,0.8,0.2,1.2
	c0.1,0.4,0.3,0.7,0.6,1c0.3,0.3,0.6,0.5,0.9,0.7c0.4,0.2,0.8,0.2,1.2,0.2c0.4,0,0.9-0.1,1.3-0.2s0.7-0.4,1-0.7
	c0.3-0.3,0.5-0.6,0.7-1c0.2-0.4,0.2-0.8,0.2-1.2c0-0.4-0.1-0.8-0.2-1.2c-0.2-0.4-0.4-0.7-0.7-1c-0.3-0.3-0.6-0.5-1-0.7
	s-0.8-0.2-1.3-0.2c-0.5,0-0.9,0.1-1.2,0.2c-0.4,0.2-0.7,0.4-0.9,0.7c-0.3,0.3-0.5,0.6-0.6,1C197.6,44.6,197.5,45,197.5,45.4"/>
<path class="st2" d="M204.7,49.4h-1.1v-1.3h0c-0.2,0.3-0.4,0.5-0.6,0.7c-0.2,0.2-0.5,0.4-0.8,0.5c-0.3,0.1-0.6,0.2-0.8,0.3
	c-0.3,0.1-0.6,0.1-0.8,0.1c-0.6,0-1.2-0.1-1.7-0.3c-0.5-0.2-1-0.5-1.3-0.9c-0.4-0.4-0.7-0.8-0.9-1.3c-0.2-0.5-0.3-1.1-0.3-1.7
	c0-0.6,0.1-1.1,0.3-1.7c0.2-0.5,0.5-0.9,0.9-1.3c0.4-0.4,0.8-0.7,1.3-0.9c0.5-0.2,1.1-0.3,1.7-0.3c0.3,0,0.5,0,0.8,0.1
	c0.3,0.1,0.6,0.1,0.8,0.3c0.3,0.1,0.5,0.3,0.8,0.5c0.2,0.2,0.5,0.4,0.6,0.7h0v-6.2h1.1V49.4z M197.5,45.4c0,0.4,0.1,0.8,0.2,1.2
	c0.1,0.4,0.3,0.7,0.6,1c0.3,0.3,0.6,0.5,0.9,0.7c0.4,0.2,0.8,0.2,1.2,0.2c0.4,0,0.9-0.1,1.3-0.2s0.7-0.4,1-0.7
	c0.3-0.3,0.5-0.6,0.7-1c0.2-0.4,0.2-0.8,0.2-1.2c0-0.4-0.1-0.8-0.2-1.2c-0.2-0.4-0.4-0.7-0.7-1c-0.3-0.3-0.6-0.5-1-0.7
	s-0.8-0.2-1.3-0.2c-0.5,0-0.9,0.1-1.2,0.2c-0.4,0.2-0.7,0.4-0.9,0.7c-0.3,0.3-0.5,0.6-0.6,1C197.6,44.6,197.5,45,197.5,45.4z"/>
<polygon class="st0" points="208,41.4 206.9,41.4 208,37.4 209.4,37.4 "/>
<polygon class="st2" points="208,41.4 206.9,41.4 208,37.4 209.4,37.4 "/>
<path class="st0" d="M212.3,45.8c0,0.4,0.1,0.8,0.3,1.1c0.2,0.3,0.4,0.6,0.6,0.9c0.3,0.3,0.6,0.5,0.9,0.6c0.3,0.1,0.7,0.2,1.1,0.2
	c0.6,0,1.1-0.1,1.5-0.4c0.4-0.3,0.8-0.6,1-1l0.9,0.7c-0.5,0.6-1,1-1.6,1.3c-0.6,0.3-1.2,0.4-1.8,0.4c-0.6,0-1.1-0.1-1.6-0.3
	c-0.5-0.2-0.9-0.5-1.3-0.9c-0.4-0.4-0.6-0.8-0.9-1.3c-0.2-0.5-0.3-1.1-0.3-1.7c0-0.6,0.1-1.1,0.3-1.7c0.2-0.5,0.5-0.9,0.8-1.3
	c0.4-0.4,0.8-0.7,1.3-0.9c0.5-0.2,1-0.3,1.6-0.3c0.6,0,1.1,0.1,1.6,0.3c0.5,0.2,0.9,0.5,1.2,0.9c0.3,0.4,0.6,0.8,0.7,1.2
	c0.2,0.5,0.3,1,0.3,1.5v0.5L212.3,45.8L212.3,45.8z M217.7,44.8c0-0.8-0.2-1.4-0.7-1.8c-0.4-0.5-1.1-0.7-1.9-0.7
	c-0.4,0-0.7,0.1-1,0.2c-0.3,0.1-0.6,0.3-0.9,0.6c-0.3,0.2-0.5,0.5-0.6,0.8c-0.2,0.3-0.2,0.6-0.2,0.9L217.7,44.8L217.7,44.8z"/>
<path class="st2" d="M212.3,45.8c0,0.4,0.1,0.8,0.3,1.1c0.2,0.3,0.4,0.6,0.6,0.9c0.3,0.3,0.6,0.5,0.9,0.6c0.3,0.1,0.7,0.2,1.1,0.2
	c0.6,0,1.1-0.1,1.5-0.4c0.4-0.3,0.8-0.6,1-1l0.9,0.7c-0.5,0.6-1,1-1.6,1.3c-0.6,0.3-1.2,0.4-1.8,0.4c-0.6,0-1.1-0.1-1.6-0.3
	c-0.5-0.2-0.9-0.5-1.3-0.9c-0.4-0.4-0.6-0.8-0.9-1.3c-0.2-0.5-0.3-1.1-0.3-1.7c0-0.6,0.1-1.1,0.3-1.7c0.2-0.5,0.5-0.9,0.8-1.3
	c0.4-0.4,0.8-0.7,1.3-0.9c0.5-0.2,1-0.3,1.6-0.3c0.6,0,1.1,0.1,1.6,0.3c0.5,0.2,0.9,0.5,1.2,0.9c0.3,0.4,0.6,0.8,0.7,1.2
	c0.2,0.5,0.3,1,0.3,1.5v0.5L212.3,45.8L212.3,45.8z M217.7,44.8c0-0.8-0.2-1.4-0.7-1.8c-0.4-0.5-1.1-0.7-1.9-0.7
	c-0.4,0-0.7,0.1-1,0.2c-0.3,0.1-0.6,0.3-0.9,0.6c-0.3,0.2-0.5,0.5-0.6,0.8c-0.2,0.3-0.2,0.6-0.2,0.9L217.7,44.8L217.7,44.8z"/>
<path class="st0" d="M222,41.5c0,0.2,0,0.4,0,0.6c0,0.2,0,0.4,0,0.6h0c0.1-0.2,0.3-0.4,0.5-0.6c0.2-0.2,0.4-0.3,0.6-0.5
	c0.2-0.1,0.5-0.2,0.8-0.3c0.3-0.1,0.5-0.1,0.8-0.1c1,0,1.8,0.3,2.2,0.8c0.5,0.5,0.7,1.3,0.7,2.3v5h-1.1V45c0-0.9-0.2-1.5-0.5-2
	c-0.3-0.5-0.9-0.7-1.7-0.7c-0.1,0-0.2,0-0.5,0.1c-0.3,0-0.5,0.2-0.8,0.4c-0.3,0.2-0.5,0.5-0.8,0.9c-0.2,0.4-0.3,1-0.3,1.7v4.1h-1.1
	v-6.2c0-0.2,0-0.5,0-0.8c0-0.3,0-0.6-0.1-0.9C220.8,41.5,222,41.5,222,41.5z"/>
<path class="st2" d="M222,41.5c0,0.2,0,0.4,0,0.6c0,0.2,0,0.4,0,0.6h0c0.1-0.2,0.3-0.4,0.5-0.6c0.2-0.2,0.4-0.3,0.6-0.5
	c0.2-0.1,0.5-0.2,0.8-0.3c0.3-0.1,0.5-0.1,0.8-0.1c1,0,1.8,0.3,2.2,0.8c0.5,0.5,0.7,1.3,0.7,2.3v5h-1.1V45c0-0.9-0.2-1.5-0.5-2
	c-0.3-0.5-0.9-0.7-1.7-0.7c-0.1,0-0.2,0-0.5,0.1c-0.3,0-0.5,0.2-0.8,0.4c-0.3,0.2-0.5,0.5-0.8,0.9c-0.2,0.4-0.3,1-0.3,1.7v4.1h-1.1
	v-6.2c0-0.2,0-0.5,0-0.8c0-0.3,0-0.6-0.1-0.9C220.8,41.5,222,41.5,222,41.5z"/>
<path class="st0" d="M234.4,42.5h-2.3v4.7c0,0.3,0,0.5,0.1,0.7c0.1,0.2,0.1,0.3,0.2,0.4c0.1,0.1,0.2,0.2,0.4,0.2
	c0.1,0,0.3,0.1,0.5,0.1c0.2,0,0.4,0,0.6-0.1c0.2-0.1,0.4-0.1,0.6-0.2l0.1,1c-0.4,0.2-0.9,0.3-1.5,0.3c-0.2,0-0.4,0-0.7-0.1
	c-0.2-0.1-0.4-0.2-0.6-0.3c-0.2-0.2-0.3-0.4-0.5-0.6c-0.1-0.3-0.2-0.6-0.2-1.1v-5h-1.7v-1h1.7v-2.2h1.1v2.2h2.3L234.4,42.5
	L234.4,42.5z"/>
<path class="st2" d="M234.4,42.5h-2.3v4.7c0,0.3,0,0.5,0.1,0.7c0.1,0.2,0.1,0.3,0.2,0.4c0.1,0.1,0.2,0.2,0.4,0.2
	c0.1,0,0.3,0.1,0.5,0.1c0.2,0,0.4,0,0.6-0.1c0.2-0.1,0.4-0.1,0.6-0.2l0.1,1c-0.4,0.2-0.9,0.3-1.5,0.3c-0.2,0-0.4,0-0.7-0.1
	c-0.2-0.1-0.4-0.2-0.6-0.3c-0.2-0.2-0.3-0.4-0.5-0.6c-0.1-0.3-0.2-0.6-0.2-1.1v-5h-1.7v-1h1.7v-2.2h1.1v2.2h2.3L234.4,42.5
	L234.4,42.5z"/>
<path class="st0" d="M236,44c0-0.3,0-0.7,0-1.1c0-0.4,0-0.8,0-1.4h1.1V43h0c0.1-0.2,0.2-0.4,0.3-0.6c0.1-0.2,0.3-0.4,0.5-0.5
	c0.2-0.2,0.4-0.3,0.7-0.4c0.3-0.1,0.6-0.1,0.9-0.1c0.3,0,0.6,0,0.8,0.1l-0.2,1.1c-0.1-0.1-0.4-0.1-0.6-0.1c-0.4,0-0.8,0.1-1.1,0.2
	c-0.3,0.2-0.6,0.4-0.8,0.6c-0.2,0.3-0.4,0.5-0.4,0.8c-0.1,0.3-0.1,0.6-0.1,0.8v4.5H236L236,44L236,44z"/>
<path class="st2" d="M236,44c0-0.3,0-0.7,0-1.1c0-0.4,0-0.8,0-1.4h1.1V43h0c0.1-0.2,0.2-0.4,0.3-0.6c0.1-0.2,0.3-0.4,0.5-0.5
	c0.2-0.2,0.4-0.3,0.7-0.4c0.3-0.1,0.6-0.1,0.9-0.1c0.3,0,0.6,0,0.8,0.1l-0.2,1.1c-0.1-0.1-0.4-0.1-0.6-0.1c-0.4,0-0.8,0.1-1.1,0.2
	c-0.3,0.2-0.6,0.4-0.8,0.6c-0.2,0.3-0.4,0.5-0.4,0.8c-0.1,0.3-0.1,0.6-0.1,0.8v4.5H236L236,44L236,44z"/>
<path class="st0" d="M242,45.8c0,0.4,0.1,0.8,0.3,1.1c0.2,0.3,0.4,0.6,0.6,0.9c0.3,0.3,0.6,0.5,0.9,0.6c0.3,0.1,0.7,0.2,1.1,0.2
	c0.6,0,1.1-0.1,1.5-0.4c0.4-0.3,0.8-0.6,1-1l0.9,0.7c-0.5,0.6-1,1-1.6,1.3c-0.6,0.3-1.2,0.4-1.8,0.4c-0.6,0-1.1-0.1-1.6-0.3
	c-0.5-0.2-0.9-0.5-1.3-0.9c-0.4-0.4-0.6-0.8-0.9-1.3c-0.2-0.5-0.3-1.1-0.3-1.7c0-0.6,0.1-1.1,0.3-1.7c0.2-0.5,0.5-0.9,0.8-1.3
	c0.4-0.4,0.8-0.7,1.3-0.9c0.5-0.2,1-0.3,1.6-0.3c0.6,0,1.1,0.1,1.6,0.3c0.5,0.2,0.9,0.5,1.2,0.9c0.3,0.4,0.6,0.8,0.7,1.2
	c0.2,0.5,0.3,1,0.3,1.5v0.5L242,45.8L242,45.8z M247.4,44.8c0-0.8-0.2-1.4-0.7-1.8c-0.4-0.5-1.1-0.7-1.9-0.7c-0.4,0-0.7,0.1-1,0.2
	c-0.3,0.1-0.6,0.3-0.9,0.6c-0.3,0.2-0.5,0.5-0.6,0.8c-0.1,0.3-0.2,0.6-0.2,0.9L247.4,44.8L247.4,44.8z"/>
<path class="st2" d="M242,45.8c0,0.4,0.1,0.8,0.3,1.1c0.2,0.3,0.4,0.6,0.6,0.9c0.3,0.3,0.6,0.5,0.9,0.6c0.3,0.1,0.7,0.2,1.1,0.2
	c0.6,0,1.1-0.1,1.5-0.4c0.4-0.3,0.8-0.6,1-1l0.9,0.7c-0.5,0.6-1,1-1.6,1.3c-0.6,0.3-1.2,0.4-1.8,0.4c-0.6,0-1.1-0.1-1.6-0.3
	c-0.5-0.2-0.9-0.5-1.3-0.9c-0.4-0.4-0.6-0.8-0.9-1.3c-0.2-0.5-0.3-1.1-0.3-1.7c0-0.6,0.1-1.1,0.3-1.7c0.2-0.5,0.5-0.9,0.8-1.3
	c0.4-0.4,0.8-0.7,1.3-0.9c0.5-0.2,1-0.3,1.6-0.3c0.6,0,1.1,0.1,1.6,0.3c0.5,0.2,0.9,0.5,1.2,0.9c0.3,0.4,0.6,0.8,0.7,1.2
	c0.2,0.5,0.3,1,0.3,1.5v0.5L242,45.8L242,45.8z M247.4,44.8c0-0.8-0.2-1.4-0.7-1.8c-0.4-0.5-1.1-0.7-1.9-0.7c-0.4,0-0.7,0.1-1,0.2
	c-0.3,0.1-0.6,0.3-0.9,0.6c-0.3,0.2-0.5,0.5-0.6,0.8c-0.1,0.3-0.2,0.6-0.2,0.9L247.4,44.8L247.4,44.8z"/>
<path class="st0" d="M250.6,41.5h1.1v1.3h0c0.2-0.3,0.4-0.5,0.6-0.7c0.2-0.2,0.5-0.3,0.8-0.5c0.3-0.1,0.5-0.2,0.8-0.3
	c0.3-0.1,0.6-0.1,0.8-0.1c0.6,0,1.2,0.1,1.7,0.3c0.5,0.2,1,0.5,1.3,0.9c0.4,0.4,0.7,0.8,0.9,1.3c0.2,0.5,0.3,1.1,0.3,1.7
	c0,0.6-0.1,1.1-0.3,1.7c-0.2,0.5-0.5,0.9-0.9,1.3c-0.4,0.4-0.8,0.7-1.3,0.9s-1.1,0.3-1.7,0.3c-0.3,0-0.5,0-0.8-0.1
	c-0.3-0.1-0.6-0.1-0.8-0.3c-0.3-0.1-0.5-0.3-0.8-0.5c-0.2-0.2-0.5-0.4-0.6-0.7h0v6.2h-1.1L250.6,41.5L250.6,41.5z M257.8,45.4
	c0-0.4-0.1-0.8-0.2-1.2c-0.1-0.4-0.3-0.7-0.6-1c-0.3-0.3-0.6-0.5-0.9-0.7c-0.4-0.2-0.8-0.2-1.2-0.2c-0.5,0-0.9,0.1-1.3,0.2
	c-0.4,0.2-0.7,0.4-1,0.7c-0.3,0.3-0.5,0.6-0.7,1c-0.2,0.4-0.2,0.8-0.2,1.2c0,0.4,0.1,0.8,0.2,1.2c0.2,0.4,0.4,0.7,0.7,1
	c0.3,0.3,0.6,0.5,1,0.7c0.4,0.2,0.8,0.2,1.3,0.2c0.5,0,0.9-0.1,1.2-0.2c0.4-0.2,0.7-0.4,0.9-0.7c0.3-0.3,0.5-0.6,0.6-1
	C257.7,46.3,257.8,45.9,257.8,45.4"/>
<path class="st2" d="M250.6,41.5h1.1v1.3h0c0.2-0.3,0.4-0.5,0.6-0.7c0.2-0.2,0.5-0.3,0.8-0.5c0.3-0.1,0.5-0.2,0.8-0.3
	c0.3-0.1,0.6-0.1,0.8-0.1c0.6,0,1.2,0.1,1.7,0.3c0.5,0.2,1,0.5,1.3,0.9c0.4,0.4,0.7,0.8,0.9,1.3c0.2,0.5,0.3,1.1,0.3,1.7
	c0,0.6-0.1,1.1-0.3,1.7c-0.2,0.5-0.5,0.9-0.9,1.3c-0.4,0.4-0.8,0.7-1.3,0.9s-1.1,0.3-1.7,0.3c-0.3,0-0.5,0-0.8-0.1
	c-0.3-0.1-0.6-0.1-0.8-0.3c-0.3-0.1-0.5-0.3-0.8-0.5c-0.2-0.2-0.5-0.4-0.6-0.7h0v6.2h-1.1L250.6,41.5L250.6,41.5z M257.8,45.4
	c0-0.4-0.1-0.8-0.2-1.2c-0.1-0.4-0.3-0.7-0.6-1c-0.3-0.3-0.6-0.5-0.9-0.7c-0.4-0.2-0.8-0.2-1.2-0.2c-0.5,0-0.9,0.1-1.3,0.2
	c-0.4,0.2-0.7,0.4-1,0.7c-0.3,0.3-0.5,0.6-0.7,1c-0.2,0.4-0.2,0.8-0.2,1.2c0,0.4,0.1,0.8,0.2,1.2c0.2,0.4,0.4,0.7,0.7,1
	c0.3,0.3,0.6,0.5,1,0.7c0.4,0.2,0.8,0.2,1.3,0.2c0.5,0,0.9-0.1,1.2-0.2c0.4-0.2,0.7-0.4,0.9-0.7c0.3-0.3,0.5-0.6,0.6-1
	C257.7,46.3,257.8,45.9,257.8,45.4z"/>
<path class="st0" d="M261,44c0-0.3,0-0.7,0-1.1c0-0.4,0-0.8,0-1.4h1.1V43h0c0.1-0.2,0.2-0.4,0.3-0.6c0.1-0.2,0.3-0.4,0.5-0.5
	c0.2-0.2,0.5-0.3,0.7-0.4c0.3-0.1,0.6-0.1,0.9-0.1c0.3,0,0.6,0,0.8,0.1l-0.2,1.1c-0.1-0.1-0.4-0.1-0.6-0.1c-0.4,0-0.8,0.1-1.1,0.2
	c-0.3,0.2-0.6,0.4-0.8,0.6c-0.2,0.3-0.4,0.5-0.4,0.8c-0.1,0.3-0.1,0.6-0.1,0.8v4.5H261L261,44L261,44z"/>
<path class="st2" d="M261,44c0-0.3,0-0.7,0-1.1c0-0.4,0-0.8,0-1.4h1.1V43h0c0.1-0.2,0.2-0.4,0.3-0.6c0.1-0.2,0.3-0.4,0.5-0.5
	c0.2-0.2,0.5-0.3,0.7-0.4c0.3-0.1,0.6-0.1,0.9-0.1c0.3,0,0.6,0,0.8,0.1l-0.2,1.1c-0.1-0.1-0.4-0.1-0.6-0.1c-0.4,0-0.8,0.1-1.1,0.2
	c-0.3,0.2-0.6,0.4-0.8,0.6c-0.2,0.3-0.4,0.5-0.4,0.8c-0.1,0.3-0.1,0.6-0.1,0.8v4.5H261L261,44L261,44z"/>
<path class="st0" d="M268.1,38.5c0,0.2-0.1,0.4-0.3,0.6c-0.2,0.2-0.4,0.2-0.6,0.2s-0.4-0.1-0.6-0.2c-0.2-0.2-0.3-0.3-0.3-0.6
	s0.1-0.4,0.3-0.6c0.2-0.2,0.4-0.2,0.6-0.2s0.4,0.1,0.6,0.2C268.1,38,268.1,38.2,268.1,38.5 M267.9,49.4h-1.1v-7.9h1.1V49.4z"/>
<path class="st2" d="M268.1,38.5c0,0.2-0.1,0.4-0.3,0.6c-0.2,0.2-0.4,0.2-0.6,0.2s-0.4-0.1-0.6-0.2c-0.2-0.2-0.3-0.3-0.3-0.6
	s0.1-0.4,0.3-0.6c0.2-0.2,0.4-0.2,0.6-0.2s0.4,0.1,0.6,0.2C268.1,38,268.1,38.2,268.1,38.5z M267.9,49.4h-1.1v-7.9h1.1V49.4z"/>
<path class="st0" d="M274.8,43.4c-0.2-0.3-0.4-0.6-0.7-0.8c-0.3-0.2-0.6-0.3-1-0.3c-0.2,0-0.4,0-0.6,0.1c-0.2,0-0.4,0.1-0.5,0.2
	c-0.2,0.1-0.3,0.2-0.4,0.4c-0.1,0.1-0.1,0.3-0.1,0.5c0,0.4,0.1,0.6,0.4,0.8c0.3,0.2,0.6,0.3,1.2,0.4l1.1,0.3c0.6,0.1,1,0.4,1.4,0.8
	c0.4,0.4,0.5,0.8,0.5,1.4c0,0.4-0.1,0.8-0.3,1.1c-0.2,0.3-0.4,0.6-0.7,0.8c-0.3,0.2-0.6,0.3-1,0.4c-0.4,0.1-0.7,0.1-1.1,0.1
	c-0.6,0-1.2-0.1-1.7-0.3c-0.5-0.2-1-0.6-1.3-1.2l1-0.7c0.2,0.4,0.5,0.6,0.9,0.9c0.3,0.2,0.8,0.3,1.2,0.3c0.2,0,0.5,0,0.7-0.1
	c0.2,0,0.4-0.1,0.6-0.2c0.2-0.1,0.3-0.2,0.4-0.4c0.1-0.2,0.2-0.4,0.2-0.6c0-0.4-0.1-0.7-0.4-0.9c-0.3-0.2-0.6-0.3-1.1-0.4l-1.1-0.3
	c-0.1,0-0.3-0.1-0.5-0.2c-0.2-0.1-0.5-0.2-0.7-0.4c-0.2-0.2-0.4-0.4-0.6-0.6c-0.2-0.3-0.2-0.6-0.2-0.9c0-0.4,0.1-0.8,0.2-1.1
	c0.2-0.3,0.4-0.6,0.7-0.7c0.3-0.2,0.6-0.3,0.9-0.4c0.4-0.1,0.7-0.1,1.1-0.1c0.6,0,1.1,0.1,1.5,0.3c0.5,0.2,0.8,0.6,1.1,1.1
	L274.8,43.4z"/>
<path class="st2" d="M274.8,43.4c-0.2-0.3-0.4-0.6-0.7-0.8c-0.3-0.2-0.6-0.3-1-0.3c-0.2,0-0.4,0-0.6,0.1c-0.2,0-0.4,0.1-0.5,0.2
	c-0.2,0.1-0.3,0.2-0.4,0.4c-0.1,0.1-0.1,0.3-0.1,0.5c0,0.4,0.1,0.6,0.4,0.8c0.3,0.2,0.6,0.3,1.2,0.4l1.1,0.3c0.6,0.1,1,0.4,1.4,0.8
	c0.4,0.4,0.5,0.8,0.5,1.4c0,0.4-0.1,0.8-0.3,1.1c-0.2,0.3-0.4,0.6-0.7,0.8c-0.3,0.2-0.6,0.3-1,0.4c-0.4,0.1-0.7,0.1-1.1,0.1
	c-0.6,0-1.2-0.1-1.7-0.3c-0.5-0.2-1-0.6-1.3-1.2l1-0.7c0.2,0.4,0.5,0.6,0.9,0.9c0.3,0.2,0.8,0.3,1.2,0.3c0.2,0,0.5,0,0.7-0.1
	c0.2,0,0.4-0.1,0.6-0.2c0.2-0.1,0.3-0.2,0.4-0.4c0.1-0.2,0.2-0.4,0.2-0.6c0-0.4-0.1-0.7-0.4-0.9c-0.3-0.2-0.6-0.3-1.1-0.4l-1.1-0.3
	c-0.1,0-0.3-0.1-0.5-0.2c-0.2-0.1-0.5-0.2-0.7-0.4c-0.2-0.2-0.4-0.4-0.6-0.6c-0.2-0.3-0.2-0.6-0.2-0.9c0-0.4,0.1-0.8,0.2-1.1
	c0.2-0.3,0.4-0.6,0.7-0.7c0.3-0.2,0.6-0.3,0.9-0.4c0.4-0.1,0.7-0.1,1.1-0.1c0.6,0,1.1,0.1,1.5,0.3c0.5,0.2,0.8,0.6,1.1,1.1
	L274.8,43.4z"/>
<path class="st0" d="M278.5,45.8c0,0.4,0.1,0.8,0.3,1.1c0.2,0.3,0.4,0.6,0.6,0.9c0.3,0.3,0.6,0.5,0.9,0.6c0.3,0.1,0.7,0.2,1.1,0.2
	c0.6,0,1.1-0.1,1.5-0.4c0.4-0.3,0.8-0.6,1-1l0.9,0.7c-0.5,0.6-1,1-1.6,1.3c-0.6,0.3-1.2,0.4-1.8,0.4c-0.6,0-1.1-0.1-1.6-0.3
	c-0.5-0.2-0.9-0.5-1.3-0.9c-0.4-0.4-0.6-0.8-0.9-1.3c-0.2-0.5-0.3-1.1-0.3-1.7c0-0.6,0.1-1.1,0.3-1.7c0.2-0.5,0.5-0.9,0.8-1.3
	c0.4-0.4,0.8-0.7,1.3-0.9c0.5-0.2,1-0.3,1.6-0.3c0.6,0,1.1,0.1,1.6,0.3c0.5,0.2,0.9,0.5,1.2,0.9c0.3,0.4,0.6,0.8,0.7,1.2
	c0.2,0.5,0.3,1,0.3,1.5v0.5L278.5,45.8L278.5,45.8z M283.9,44.8c0-0.8-0.2-1.4-0.7-1.8c-0.5-0.5-1.1-0.7-1.9-0.7
	c-0.4,0-0.7,0.1-1,0.2c-0.3,0.1-0.6,0.3-0.9,0.6c-0.3,0.2-0.5,0.5-0.6,0.8c-0.2,0.3-0.2,0.6-0.2,0.9L283.9,44.8L283.9,44.8z"/>
<path class="st2" d="M278.5,45.8c0,0.4,0.1,0.8,0.3,1.1c0.2,0.3,0.4,0.6,0.6,0.9c0.3,0.3,0.6,0.5,0.9,0.6c0.3,0.1,0.7,0.2,1.1,0.2
	c0.6,0,1.1-0.1,1.5-0.4c0.4-0.3,0.8-0.6,1-1l0.9,0.7c-0.5,0.6-1,1-1.6,1.3c-0.6,0.3-1.2,0.4-1.8,0.4c-0.6,0-1.1-0.1-1.6-0.3
	c-0.5-0.2-0.9-0.5-1.3-0.9c-0.4-0.4-0.6-0.8-0.9-1.3c-0.2-0.5-0.3-1.1-0.3-1.7c0-0.6,0.1-1.1,0.3-1.7c0.2-0.5,0.5-0.9,0.8-1.3
	c0.4-0.4,0.8-0.7,1.3-0.9c0.5-0.2,1-0.3,1.6-0.3c0.6,0,1.1,0.1,1.6,0.3c0.5,0.2,0.9,0.5,1.2,0.9c0.3,0.4,0.6,0.8,0.7,1.2
	c0.2,0.5,0.3,1,0.3,1.5v0.5L278.5,45.8L278.5,45.8z M283.9,44.8c0-0.8-0.2-1.4-0.7-1.8c-0.5-0.5-1.1-0.7-1.9-0.7
	c-0.4,0-0.7,0.1-1,0.2c-0.3,0.1-0.6,0.3-0.9,0.6c-0.3,0.2-0.5,0.5-0.6,0.8c-0.2,0.3-0.2,0.6-0.2,0.9L283.9,44.8L283.9,44.8z"/>
</svg>
