<?xml version="1.0" encoding="utf-8"?>
<!-- Generator: Adobe Illustrator 15.0.0, SVG Export Plug-In . SVG Version: 6.00 Build 0)  -->
<!DOCTYPE svg PUBLIC "-//W3C//DTD SVG 1.1//EN" "http://www.w3.org/Graphics/SVG/1.1/DTD/svg11.dtd">
<svg version="1.1" id="Calque_1" xmlns="http://www.w3.org/2000/svg" xmlns:xlink="http://www.w3.org/1999/xlink" x="0px" y="0px"
	 width="330px" height="58.5px" viewBox="0 0 330 58.5" enable-background="new 0 0 330 58.5" xml:space="preserve">
<polygon fill="#FFFFFF" stroke="#FFFFFF" stroke-miterlimit="10" points="10.471,22.121 8.25,22.121 2.545,8.071 4.887,8.071 
	9.39,19.899 9.451,19.899 13.923,8.071 16.175,8.071 "/>
<polygon fill="#FFFFFF" stroke="#FFFFFF" stroke-width="1.35" stroke-miterlimit="10" points="10.471,22.121 8.25,22.121 
	2.545,8.071 4.887,8.071 9.39,19.899 9.451,19.899 13.923,8.071 16.175,8.071 "/>
<path fill="#FFFFFF" stroke="#FFFFFF" stroke-miterlimit="10" d="M37.759,15.096c0,1.06-0.186,2.041-0.555,2.942
	c-0.369,0.9-0.886,1.681-1.546,2.342c-0.66,0.661-1.447,1.176-2.357,1.548c-0.91,0.367-1.917,0.555-3.017,0.555
	c-1.081,0-2.075-0.188-2.987-0.555c-0.911-0.372-1.697-0.888-2.357-1.548c-0.661-0.661-1.177-1.441-1.546-2.342
	c-0.37-0.901-0.555-1.882-0.555-2.942s0.185-2.041,0.555-2.94c0.369-0.902,0.885-1.683,1.546-2.342
	c0.66-0.663,1.446-1.176,2.357-1.548c0.912-0.369,1.906-0.555,2.987-0.555c1.1,0,2.107,0.186,3.017,0.555
	c0.91,0.372,1.697,0.886,2.357,1.548c0.66,0.659,1.177,1.439,1.546,2.342C37.573,13.055,37.759,14.036,37.759,15.096 M35.598,15.096
	c0-0.78-0.124-1.511-0.376-2.191c-0.249-0.679-0.604-1.271-1.065-1.771c-0.46-0.5-1.017-0.895-1.667-1.187
	c-0.648-0.289-1.386-0.435-2.206-0.435c-0.822,0-1.556,0.146-2.206,0.435c-0.649,0.292-1.201,0.687-1.652,1.187
	c-0.45,0.5-0.799,1.092-1.051,1.771C25.125,13.585,25,14.315,25,15.096c0,0.781,0.124,1.513,0.375,2.191
	c0.252,0.681,0.601,1.272,1.051,1.771c0.451,0.501,1.002,0.897,1.652,1.187c0.65,0.289,1.384,0.437,2.206,0.437
	c0.82,0,1.558-0.148,2.206-0.437c0.649-0.29,1.207-0.685,1.667-1.187c0.462-0.499,0.816-1.09,1.065-1.771
	C35.474,16.608,35.598,15.876,35.598,15.096"/>
<path fill="#FFFFFF" stroke="#FFFFFF" stroke-width="1.35" stroke-miterlimit="10" d="M37.759,15.096
	c0,1.06-0.186,2.041-0.555,2.942c-0.369,0.9-0.886,1.681-1.546,2.342c-0.66,0.661-1.447,1.176-2.357,1.548
	c-0.91,0.367-1.917,0.555-3.017,0.555c-1.081,0-2.075-0.188-2.987-0.555c-0.911-0.372-1.697-0.888-2.357-1.548
	c-0.661-0.661-1.177-1.441-1.546-2.342c-0.37-0.901-0.555-1.882-0.555-2.942s0.185-2.041,0.555-2.94
	c0.369-0.902,0.885-1.683,1.546-2.342c0.66-0.663,1.446-1.176,2.357-1.548c0.912-0.369,1.906-0.555,2.987-0.555
	c1.1,0,2.107,0.186,3.017,0.555c0.91,0.372,1.697,0.886,2.357,1.548c0.66,0.659,1.177,1.439,1.546,2.342
	C37.573,13.055,37.759,14.036,37.759,15.096z M35.598,15.096c0-0.78-0.124-1.511-0.376-2.191c-0.249-0.679-0.604-1.271-1.065-1.771
	c-0.46-0.5-1.017-0.895-1.667-1.187c-0.648-0.289-1.386-0.435-2.206-0.435c-0.822,0-1.556,0.146-2.206,0.435
	c-0.649,0.292-1.201,0.687-1.652,1.187c-0.45,0.5-0.799,1.092-1.051,1.771C25.125,13.585,25,14.315,25,15.096
	c0,0.781,0.124,1.513,0.375,2.191c0.252,0.681,0.601,1.272,1.051,1.771c0.451,0.501,1.002,0.897,1.652,1.187
	c0.65,0.289,1.384,0.437,2.206,0.437c0.82,0,1.558-0.148,2.206-0.437c0.649-0.29,1.207-0.685,1.667-1.187
	c0.462-0.499,0.816-1.09,1.065-1.771C35.474,16.608,35.598,15.876,35.598,15.096z"/>
<path fill="#FFFFFF" stroke="#FFFFFF" stroke-miterlimit="10" d="M53.43,9.872h-4.053v8.286c0,0.519,0.051,0.945,0.15,1.278
	c0.1,0.328,0.24,0.584,0.42,0.763c0.18,0.182,0.394,0.306,0.645,0.375c0.25,0.072,0.526,0.107,0.826,0.107
	c0.34,0,0.691-0.053,1.051-0.15c0.361-0.102,0.691-0.23,0.991-0.39l0.09,1.829c-0.741,0.342-1.633,0.513-2.671,0.513
	c-0.379,0-0.775-0.053-1.187-0.15c-0.409-0.102-0.786-0.293-1.125-0.573c-0.34-0.279-0.621-0.66-0.841-1.139
	c-0.22-0.48-0.33-1.11-0.33-1.891V9.872h-2.972v-1.8h2.972V4.108h1.98v3.964h4.053V9.872z"/>
<path fill="#FFFFFF" stroke="#FFFFFF" stroke-width="1.35" stroke-miterlimit="10" d="M53.43,9.872h-4.053v8.286
	c0,0.519,0.051,0.945,0.15,1.278c0.1,0.328,0.24,0.584,0.42,0.763c0.18,0.182,0.394,0.306,0.645,0.375
	c0.25,0.072,0.526,0.107,0.826,0.107c0.34,0,0.691-0.053,1.051-0.15c0.361-0.102,0.691-0.23,0.991-0.39l0.09,1.829
	c-0.741,0.342-1.633,0.513-2.671,0.513c-0.379,0-0.775-0.053-1.187-0.15c-0.409-0.102-0.786-0.293-1.125-0.573
	c-0.34-0.279-0.621-0.66-0.841-1.139c-0.22-0.48-0.33-1.11-0.33-1.891V9.872h-2.972v-1.8h2.972V4.108h1.98v3.964h4.053V9.872z"/>
<path fill="#FFFFFF" stroke="#FFFFFF" stroke-miterlimit="10" d="M61.146,12.454c0-0.62-0.016-1.25-0.045-1.891
	c-0.03-0.641-0.057-1.471-0.075-2.49h1.951v2.612h0.06c0.141-0.381,0.34-0.747,0.601-1.096c0.258-0.351,0.574-0.668,0.945-0.947
	c0.37-0.281,0.799-0.505,1.291-0.676c0.489-0.168,1.045-0.255,1.666-0.255c0.562,0,1.051,0.06,1.472,0.18L68.62,9.842
	c-0.261-0.099-0.639-0.15-1.141-0.15c-0.762,0-1.411,0.145-1.951,0.438c-0.541,0.289-0.99,0.658-1.352,1.11
	c-0.36,0.451-0.626,0.936-0.795,1.454c-0.17,0.521-0.255,1.021-0.255,1.504v7.923h-1.981V12.454z"/>
<path fill="#FFFFFF" stroke="#FFFFFF" stroke-width="1.35" stroke-miterlimit="10" d="M61.146,12.454c0-0.62-0.016-1.25-0.045-1.891
	c-0.03-0.641-0.057-1.471-0.075-2.49h1.951v2.612h0.06c0.141-0.381,0.34-0.747,0.601-1.096c0.258-0.351,0.574-0.668,0.945-0.947
	c0.37-0.281,0.799-0.505,1.291-0.676c0.489-0.168,1.045-0.255,1.666-0.255c0.562,0,1.051,0.06,1.472,0.18L68.62,9.842
	c-0.261-0.099-0.639-0.15-1.141-0.15c-0.762,0-1.411,0.145-1.951,0.438c-0.541,0.289-0.99,0.658-1.352,1.11
	c-0.36,0.451-0.626,0.936-0.795,1.454c-0.17,0.521-0.255,1.021-0.255,1.504v7.923h-1.981V12.454z"/>
<path fill="#FFFFFF" stroke="#FFFFFF" stroke-miterlimit="10" d="M76.546,15.635c0.06,0.702,0.231,1.362,0.51,1.982
	c0.28,0.621,0.649,1.156,1.111,1.606c0.459,0.453,0.991,0.807,1.591,1.067c0.6,0.259,1.251,0.39,1.951,0.39
	c1.06,0,1.975-0.246,2.747-0.736c0.771-0.49,1.357-1.055,1.756-1.697l1.531,1.263c-0.84,1.06-1.768,1.819-2.777,2.281
	c-1.012,0.46-2.098,0.691-3.257,0.691c-1.042,0-2.008-0.188-2.897-0.556c-0.891-0.369-1.657-0.887-2.297-1.546
	C75.875,19.719,75.37,18.938,75,18.04c-0.369-0.903-0.555-1.882-0.555-2.944c0-1.061,0.181-2.042,0.541-2.941
	c0.36-0.902,0.861-1.683,1.5-2.342c0.641-0.662,1.391-1.176,2.252-1.545c0.861-0.372,1.792-0.557,2.792-0.557
	c1.06,0,2.012,0.191,2.852,0.57c0.841,0.381,1.547,0.886,2.117,1.517c0.571,0.63,1.006,1.371,1.306,2.223
	c0.3,0.85,0.45,1.754,0.45,2.716v0.899H76.546z M86.093,14.015c0-1.339-0.4-2.426-1.201-3.255c-0.801-0.832-1.921-1.246-3.362-1.246
	c-0.64,0-1.261,0.124-1.861,0.375c-0.601,0.25-1.126,0.583-1.577,1.004c-0.45,0.422-0.81,0.9-1.08,1.441
	c-0.271,0.542-0.406,1.101-0.406,1.681H86.093z"/>
<path fill="#FFFFFF" stroke="#FFFFFF" stroke-width="1.35" stroke-miterlimit="10" d="M76.546,15.635
	c0.06,0.702,0.231,1.362,0.51,1.982c0.28,0.621,0.649,1.156,1.111,1.606c0.459,0.453,0.991,0.807,1.591,1.067
	c0.6,0.259,1.251,0.39,1.951,0.39c1.06,0,1.975-0.246,2.747-0.736c0.771-0.49,1.357-1.055,1.756-1.697l1.531,1.263
	c-0.84,1.06-1.768,1.819-2.777,2.281c-1.012,0.46-2.098,0.691-3.257,0.691c-1.042,0-2.008-0.188-2.897-0.556
	c-0.891-0.369-1.657-0.887-2.297-1.546C75.875,19.719,75.37,18.938,75,18.04c-0.369-0.903-0.555-1.882-0.555-2.944
	c0-1.061,0.181-2.042,0.541-2.941c0.36-0.902,0.861-1.683,1.5-2.342c0.641-0.662,1.391-1.176,2.252-1.545
	c0.861-0.372,1.792-0.557,2.792-0.557c1.06,0,2.012,0.191,2.852,0.57c0.841,0.381,1.547,0.886,2.117,1.517
	c0.571,0.63,1.006,1.371,1.306,2.223c0.3,0.85,0.45,1.754,0.45,2.716v0.899H76.546z M86.093,14.015c0-1.339-0.4-2.426-1.201-3.255
	c-0.801-0.832-1.921-1.246-3.362-1.246c-0.64,0-1.261,0.124-1.861,0.375c-0.601,0.25-1.126,0.583-1.577,1.004
	c-0.45,0.422-0.81,0.9-1.08,1.441c-0.271,0.542-0.406,1.101-0.406,1.681H86.093z"/>
<path fill="#FFFFFF" stroke="#FFFFFF" stroke-miterlimit="10" d="M99.541,2.666c0,0.422-0.15,0.768-0.448,1.038
	c-0.3,0.271-0.633,0.403-0.993,0.403c-0.36,0-0.689-0.133-0.988-0.403c-0.302-0.271-0.453-0.616-0.453-1.038
	c0-0.417,0.15-0.763,0.453-1.033C97.41,1.362,97.74,1.225,98.1,1.225c0.36,0,0.693,0.137,0.993,0.408
	C99.391,1.903,99.541,2.249,99.541,2.666 M99.093,22.122h-1.981V8.071h1.981V22.122z"/>
<path fill="#FFFFFF" stroke="#FFFFFF" stroke-width="1.35" stroke-miterlimit="10" d="M99.541,2.666c0,0.422-0.15,0.768-0.448,1.038
	c-0.3,0.271-0.633,0.403-0.993,0.403c-0.36,0-0.689-0.133-0.988-0.403c-0.302-0.271-0.453-0.616-0.453-1.038
	c0-0.417,0.15-0.763,0.453-1.033C97.41,1.362,97.74,1.225,98.1,1.225c0.36,0,0.693,0.137,0.993,0.408
	C99.391,1.903,99.541,2.249,99.541,2.666z M99.093,22.122h-1.981V8.071h1.981V22.122z"/>
<path fill="#FFFFFF" stroke="#FFFFFF" stroke-miterlimit="10" d="M108.668,11.193c0-0.52-0.015-1.042-0.045-1.561
	s-0.066-1.04-0.105-1.562h2.132v2.134h0.06c0.481-0.821,1.147-1.443,1.996-1.863c0.851-0.42,1.697-0.63,2.537-0.63
	c0.381,0,0.786,0.042,1.216,0.12c0.43,0.081,0.847,0.225,1.246,0.435s0.775,0.507,1.126,0.886c0.351,0.38,0.645,0.871,0.886,1.471
	c0.401-0.9,1.035-1.609,1.906-2.131c0.871-0.52,1.777-0.781,2.717-0.781c1.801,0,3.131,0.477,3.993,1.426
	c0.859,0.952,1.291,2.308,1.291,4.068v8.916h-1.982v-8.195c0-1.421-0.249-2.51-0.75-3.272c-0.501-0.76-1.431-1.141-2.792-1.141
	c-0.739,0-1.36,0.146-1.861,0.435c-0.501,0.292-0.904,0.675-1.216,1.156c-0.312,0.48-0.535,1.026-0.675,1.635
	c-0.141,0.61-0.211,1.246-0.211,1.907v7.475h-1.98v-8.195c0-1.421-0.25-2.51-0.75-3.272c-0.501-0.76-1.43-1.141-2.792-1.141
	c-0.12,0-0.394,0.041-0.825,0.12c-0.43,0.081-0.876,0.3-1.336,0.662c-0.46,0.358-0.877,0.899-1.246,1.619
	c-0.369,0.723-0.555,1.722-0.555,3.002v7.205h-1.981V11.193z"/>
<path fill="#FFFFFF" stroke="#FFFFFF" stroke-width="1.35" stroke-miterlimit="10" d="M108.668,11.193
	c0-0.52-0.015-1.042-0.045-1.561s-0.066-1.04-0.105-1.562h2.132v2.134h0.06c0.481-0.821,1.147-1.443,1.996-1.863
	c0.851-0.42,1.697-0.63,2.537-0.63c0.381,0,0.786,0.042,1.216,0.12c0.43,0.081,0.847,0.225,1.246,0.435s0.775,0.507,1.126,0.886
	c0.351,0.38,0.645,0.871,0.886,1.471c0.401-0.9,1.035-1.609,1.906-2.131c0.871-0.52,1.777-0.781,2.717-0.781
	c1.801,0,3.131,0.477,3.993,1.426c0.859,0.952,1.291,2.308,1.291,4.068v8.916h-1.982v-8.195c0-1.421-0.249-2.51-0.75-3.272
	c-0.501-0.76-1.431-1.141-2.792-1.141c-0.739,0-1.36,0.146-1.861,0.435c-0.501,0.292-0.904,0.675-1.216,1.156
	c-0.312,0.48-0.535,1.026-0.675,1.635c-0.141,0.61-0.211,1.246-0.211,1.907v7.475h-1.98v-8.195c0-1.421-0.25-2.51-0.75-3.272
	c-0.501-0.76-1.43-1.141-2.792-1.141c-0.12,0-0.394,0.041-0.825,0.12c-0.43,0.081-0.876,0.3-1.336,0.662
	c-0.46,0.358-0.877,0.899-1.246,1.619c-0.369,0.723-0.555,1.722-0.555,3.002v7.205h-1.981V11.193z"/>
<path fill="#FFFFFF" stroke="#FFFFFF" stroke-miterlimit="10" d="M139.049,11.193c0-0.52-0.015-1.042-0.045-1.561
	s-0.066-1.04-0.105-1.562h2.132v2.134h0.06c0.481-0.821,1.146-1.443,1.997-1.863s1.697-0.63,2.538-0.63
	c0.379,0,0.784,0.042,1.217,0.12c0.429,0.081,0.843,0.225,1.244,0.435s0.775,0.507,1.129,0.886c0.346,0.38,0.643,0.871,0.883,1.471
	c0.401-0.9,1.036-1.609,1.908-2.131c0.87-0.52,1.775-0.781,2.715-0.781c1.801,0,3.132,0.477,3.993,1.426
	c0.861,0.952,1.292,2.308,1.292,4.068v8.916h-1.983v-8.195c0-1.421-0.249-2.51-0.749-3.272c-0.5-0.76-1.431-1.141-2.792-1.141
	c-0.74,0-1.362,0.146-1.862,0.435c-0.5,0.292-0.903,0.675-1.215,1.156c-0.312,0.48-0.535,1.026-0.676,1.635
	c-0.141,0.61-0.21,1.246-0.21,1.907v7.475h-1.981v-8.195c0-1.421-0.251-2.51-0.75-3.272c-0.502-0.76-1.433-1.141-2.792-1.141
	c-0.121,0-0.396,0.041-0.826,0.12c-0.431,0.081-0.876,0.3-1.336,0.662c-0.46,0.358-0.876,0.899-1.246,1.619
	c-0.371,0.723-0.556,1.722-0.556,3.002v7.205h-1.981V11.193z"/>
<path fill="#FFFFFF" stroke="#FFFFFF" stroke-width="1.35" stroke-miterlimit="10" d="M139.049,11.193
	c0-0.52-0.015-1.042-0.045-1.561s-0.066-1.04-0.105-1.562h2.132v2.134h0.06c0.481-0.821,1.146-1.443,1.997-1.863
	s1.697-0.63,2.538-0.63c0.379,0,0.784,0.042,1.217,0.12c0.429,0.081,0.843,0.225,1.244,0.435s0.775,0.507,1.129,0.886
	c0.346,0.38,0.643,0.871,0.883,1.471c0.401-0.9,1.036-1.609,1.908-2.131c0.87-0.52,1.775-0.781,2.715-0.781
	c1.801,0,3.132,0.477,3.993,1.426c0.861,0.952,1.292,2.308,1.292,4.068v8.916h-1.983v-8.195c0-1.421-0.249-2.51-0.749-3.272
	c-0.5-0.76-1.431-1.141-2.792-1.141c-0.74,0-1.362,0.146-1.862,0.435c-0.5,0.292-0.903,0.675-1.215,1.156
	c-0.312,0.48-0.535,1.026-0.676,1.635c-0.141,0.61-0.21,1.246-0.21,1.907v7.475h-1.981v-8.195c0-1.421-0.251-2.51-0.75-3.272
	c-0.502-0.76-1.433-1.141-2.792-1.141c-0.121,0-0.396,0.041-0.826,0.12c-0.431,0.081-0.876,0.3-1.336,0.662
	c-0.46,0.358-0.876,0.899-1.246,1.619c-0.371,0.723-0.556,1.722-0.556,3.002v7.205h-1.981V11.193z"/>
<path fill="#FFFFFF" stroke="#FFFFFF" stroke-miterlimit="10" d="M183.629,15.096c0,1.06-0.186,2.041-0.556,2.942
	c-0.37,0.9-0.885,1.681-1.546,2.342c-0.66,0.661-1.446,1.176-2.356,1.548c-0.911,0.367-1.917,0.555-3.017,0.555
	c-1.081,0-2.078-0.188-2.988-0.555c-0.911-0.372-1.695-0.888-2.356-1.548c-0.659-0.661-1.175-1.441-1.545-2.342
	c-0.372-0.901-0.557-1.882-0.557-2.942s0.185-2.041,0.557-2.94c0.37-0.902,0.886-1.683,1.545-2.342
	c0.661-0.663,1.445-1.176,2.356-1.548c0.91-0.369,1.907-0.555,2.988-0.555c1.1,0,2.105,0.186,3.017,0.555
	c0.91,0.372,1.696,0.886,2.356,1.548c0.661,0.659,1.176,1.439,1.546,2.342C183.443,13.055,183.629,14.036,183.629,15.096
	 M181.469,15.096c0-0.78-0.127-1.511-0.376-2.191c-0.251-0.679-0.606-1.271-1.066-1.771c-0.46-0.5-1.016-0.895-1.666-1.187
	c-0.65-0.289-1.389-0.435-2.206-0.435c-0.82,0-1.558,0.146-2.208,0.435c-0.65,0.292-1.2,0.687-1.65,1.187
	c-0.449,0.5-0.801,1.092-1.05,1.771c-0.252,0.681-0.376,1.411-0.376,2.191c0,0.781,0.124,1.513,0.376,2.191
	c0.249,0.681,0.601,1.272,1.05,1.771c0.45,0.501,1,0.897,1.65,1.187c0.65,0.289,1.388,0.437,2.208,0.437
	c0.817,0,1.556-0.148,2.206-0.437c0.65-0.29,1.206-0.685,1.666-1.187c0.46-0.499,0.815-1.09,1.066-1.771
	C181.342,16.608,181.469,15.876,181.469,15.096"/>
<path fill="#FFFFFF" stroke="#FFFFFF" stroke-width="1.35" stroke-miterlimit="10" d="M183.629,15.096
	c0,1.06-0.186,2.041-0.556,2.942c-0.37,0.9-0.885,1.681-1.546,2.342c-0.66,0.661-1.446,1.176-2.356,1.548
	c-0.911,0.367-1.917,0.555-3.017,0.555c-1.081,0-2.078-0.188-2.988-0.555c-0.911-0.372-1.695-0.888-2.356-1.548
	c-0.659-0.661-1.175-1.441-1.545-2.342c-0.372-0.901-0.557-1.882-0.557-2.942s0.185-2.041,0.557-2.94
	c0.37-0.902,0.886-1.683,1.545-2.342c0.661-0.663,1.445-1.176,2.356-1.548c0.91-0.369,1.907-0.555,2.988-0.555
	c1.1,0,2.105,0.186,3.017,0.555c0.91,0.372,1.696,0.886,2.356,1.548c0.661,0.659,1.176,1.439,1.546,2.342
	C183.443,13.055,183.629,14.036,183.629,15.096z M181.469,15.096c0-0.78-0.127-1.511-0.376-2.191
	c-0.251-0.679-0.606-1.271-1.066-1.771c-0.46-0.5-1.016-0.895-1.666-1.187c-0.65-0.289-1.389-0.435-2.206-0.435
	c-0.82,0-1.558,0.146-2.208,0.435c-0.65,0.292-1.2,0.687-1.65,1.187c-0.449,0.5-0.801,1.092-1.05,1.771
	c-0.252,0.681-0.376,1.411-0.376,2.191c0,0.781,0.124,1.513,0.376,2.191c0.249,0.681,0.601,1.272,1.05,1.771
	c0.45,0.501,1,0.897,1.65,1.187c0.65,0.289,1.388,0.437,2.208,0.437c0.817,0,1.556-0.148,2.206-0.437
	c0.65-0.29,1.206-0.685,1.666-1.187c0.46-0.499,0.815-1.09,1.066-1.771C181.342,16.608,181.469,15.876,181.469,15.096z"/>
<path fill="#FFFFFF" stroke="#FFFFFF" stroke-miterlimit="10" d="M192.035,8.07h1.98v2.342h0.061c0.319-0.48,0.7-0.891,1.14-1.23
	c0.44-0.34,0.902-0.619,1.382-0.841c0.48-0.219,0.975-0.379,1.486-0.48c0.511-0.1,0.995-0.15,1.457-0.15
	c1.099,0,2.104,0.186,3.016,0.555c0.91,0.372,1.696,0.886,2.356,1.548c0.661,0.659,1.176,1.439,1.546,2.342
	c0.371,0.899,0.556,1.88,0.556,2.94s-0.185,2.041-0.556,2.942c-0.37,0.9-0.885,1.681-1.546,2.342
	c-0.66,0.661-1.446,1.176-2.356,1.548c-0.911,0.367-1.917,0.555-3.016,0.555c-0.462,0-0.946-0.052-1.457-0.152
	c-0.512-0.099-1.006-0.259-1.486-0.478c-0.479-0.224-0.941-0.501-1.382-0.843c-0.439-0.339-0.82-0.75-1.14-1.23h-0.061v10.989h-1.98
	V8.07z M204.854,15.096c0-0.78-0.127-1.511-0.376-2.191c-0.251-0.679-0.604-1.271-1.066-1.771c-0.46-0.5-1.015-0.895-1.665-1.187
	c-0.651-0.289-1.388-0.435-2.206-0.435c-0.821,0-1.572,0.146-2.252,0.435c-0.682,0.292-1.272,0.687-1.772,1.187
	c-0.5,0.5-0.891,1.092-1.171,1.771c-0.28,0.681-0.42,1.411-0.42,2.191c0,0.781,0.14,1.513,0.42,2.191
	c0.28,0.681,0.671,1.272,1.171,1.771c0.5,0.501,1.091,0.897,1.772,1.187c0.68,0.289,1.431,0.437,2.252,0.437
	c0.818,0,1.555-0.148,2.206-0.437c0.65-0.29,1.205-0.685,1.665-1.187c0.462-0.499,0.815-1.09,1.066-1.771
	C204.728,16.608,204.854,15.876,204.854,15.096"/>
<path fill="#FFFFFF" stroke="#FFFFFF" stroke-width="1.35" stroke-miterlimit="10" d="M192.035,8.07h1.98v2.342h0.061
	c0.319-0.48,0.7-0.891,1.14-1.23c0.44-0.34,0.902-0.619,1.382-0.841c0.48-0.219,0.975-0.379,1.486-0.48
	c0.511-0.1,0.995-0.15,1.457-0.15c1.099,0,2.104,0.186,3.016,0.555c0.91,0.372,1.696,0.886,2.356,1.548
	c0.661,0.659,1.176,1.439,1.546,2.342c0.371,0.899,0.556,1.88,0.556,2.94s-0.185,2.041-0.556,2.942
	c-0.37,0.9-0.885,1.681-1.546,2.342c-0.66,0.661-1.446,1.176-2.356,1.548c-0.911,0.367-1.917,0.555-3.016,0.555
	c-0.462,0-0.946-0.052-1.457-0.152c-0.512-0.099-1.006-0.259-1.486-0.478c-0.479-0.224-0.941-0.501-1.382-0.843
	c-0.439-0.339-0.82-0.75-1.14-1.23h-0.061v10.989h-1.98V8.07z M204.854,15.096c0-0.78-0.127-1.511-0.376-2.191
	c-0.251-0.679-0.604-1.271-1.066-1.771c-0.46-0.5-1.015-0.895-1.665-1.187c-0.651-0.289-1.388-0.435-2.206-0.435
	c-0.821,0-1.572,0.146-2.252,0.435c-0.682,0.292-1.272,0.687-1.772,1.187c-0.5,0.5-0.891,1.092-1.171,1.771
	c-0.28,0.681-0.42,1.411-0.42,2.191c0,0.781,0.14,1.513,0.42,2.191c0.28,0.681,0.671,1.272,1.171,1.771
	c0.5,0.501,1.091,0.897,1.772,1.187c0.68,0.289,1.431,0.437,2.252,0.437c0.818,0,1.555-0.148,2.206-0.437
	c0.65-0.29,1.205-0.685,1.665-1.187c0.462-0.499,0.815-1.09,1.066-1.771C204.728,16.608,204.854,15.876,204.854,15.096z"/>
<path fill="#FFFFFF" stroke="#FFFFFF" stroke-miterlimit="10" d="M215.391,12.454c0-0.62-0.015-1.25-0.044-1.891
	c-0.031-0.641-0.056-1.471-0.075-2.49h1.951v2.612h0.061c0.139-0.381,0.339-0.747,0.599-1.096c0.261-0.351,0.576-0.668,0.946-0.947
	c0.37-0.281,0.801-0.505,1.291-0.676c0.489-0.168,1.045-0.255,1.666-0.255c0.561,0,1.052,0.06,1.472,0.18l-0.391,1.952
	c-0.261-0.099-0.642-0.15-1.142-0.15c-0.761,0-1.411,0.145-1.951,0.438c-0.541,0.289-0.989,0.658-1.351,1.11
	c-0.359,0.451-0.625,0.936-0.795,1.454c-0.171,0.521-0.255,1.021-0.255,1.504v7.923h-1.982V12.454z"/>
<path fill="#FFFFFF" stroke="#FFFFFF" stroke-width="1.35" stroke-miterlimit="10" d="M215.391,12.454
	c0-0.62-0.015-1.25-0.044-1.891c-0.031-0.641-0.056-1.471-0.075-2.49h1.951v2.612h0.061c0.139-0.381,0.339-0.747,0.599-1.096
	c0.261-0.351,0.576-0.668,0.946-0.947c0.37-0.281,0.801-0.505,1.291-0.676c0.489-0.168,1.045-0.255,1.666-0.255
	c0.561,0,1.052,0.06,1.472,0.18l-0.391,1.952c-0.261-0.099-0.642-0.15-1.142-0.15c-0.761,0-1.411,0.145-1.951,0.438
	c-0.541,0.289-0.989,0.658-1.351,1.11c-0.359,0.451-0.625,0.936-0.795,1.454c-0.171,0.521-0.255,1.021-0.255,1.504v7.923h-1.982
	V12.454z"/>
<path fill="#FFFFFF" stroke="#FFFFFF" stroke-miterlimit="10" d="M243.61,15.096c0,1.06-0.186,2.041-0.556,2.942
	c-0.37,0.9-0.885,1.681-1.546,2.342c-0.66,0.661-1.446,1.176-2.356,1.548c-0.911,0.367-1.917,0.555-3.017,0.555
	c-1.081,0-2.078-0.188-2.988-0.555c-0.911-0.372-1.695-0.888-2.356-1.548c-0.66-0.661-1.175-1.441-1.545-2.342
	c-0.372-0.901-0.557-1.882-0.557-2.942s0.185-2.041,0.557-2.94c0.37-0.902,0.885-1.683,1.545-2.342
	c0.661-0.663,1.445-1.176,2.356-1.548c0.91-0.369,1.907-0.555,2.988-0.555c1.1,0,2.105,0.186,3.017,0.555
	c0.91,0.372,1.696,0.886,2.356,1.548c0.661,0.659,1.176,1.439,1.546,2.342C243.425,13.055,243.61,14.036,243.61,15.096
	 M241.449,15.096c0-0.78-0.126-1.511-0.375-2.191c-0.251-0.679-0.606-1.271-1.066-1.771c-0.46-0.5-1.016-0.895-1.666-1.187
	c-0.65-0.289-1.387-0.435-2.206-0.435c-0.82,0-1.558,0.146-2.208,0.435c-0.648,0.292-1.2,0.687-1.65,1.187
	c-0.449,0.5-0.801,1.092-1.05,1.771c-0.251,0.681-0.376,1.411-0.376,2.191c0,0.781,0.125,1.513,0.376,2.191
	c0.249,0.681,0.601,1.272,1.05,1.771c0.45,0.501,1.002,0.897,1.65,1.187c0.65,0.289,1.388,0.437,2.208,0.437
	c0.819,0,1.556-0.148,2.206-0.437c0.65-0.29,1.206-0.685,1.666-1.187c0.46-0.499,0.815-1.09,1.066-1.771
	C241.323,16.608,241.449,15.876,241.449,15.096"/>
<path fill="#FFFFFF" stroke="#FFFFFF" stroke-width="1.35" stroke-miterlimit="10" d="M243.61,15.096
	c0,1.06-0.186,2.041-0.556,2.942c-0.37,0.9-0.885,1.681-1.546,2.342c-0.66,0.661-1.446,1.176-2.356,1.548
	c-0.911,0.367-1.917,0.555-3.017,0.555c-1.081,0-2.078-0.188-2.988-0.555c-0.911-0.372-1.695-0.888-2.356-1.548
	c-0.66-0.661-1.175-1.441-1.545-2.342c-0.372-0.901-0.557-1.882-0.557-2.942s0.185-2.041,0.557-2.94
	c0.37-0.902,0.885-1.683,1.545-2.342c0.661-0.663,1.445-1.176,2.356-1.548c0.91-0.369,1.907-0.555,2.988-0.555
	c1.1,0,2.105,0.186,3.017,0.555c0.91,0.372,1.696,0.886,2.356,1.548c0.661,0.659,1.176,1.439,1.546,2.342
	C243.425,13.055,243.61,14.036,243.61,15.096z M241.449,15.096c0-0.78-0.126-1.511-0.375-2.191
	c-0.251-0.679-0.606-1.271-1.066-1.771c-0.46-0.5-1.016-0.895-1.666-1.187c-0.65-0.289-1.387-0.435-2.206-0.435
	c-0.82,0-1.558,0.146-2.208,0.435c-0.648,0.292-1.2,0.687-1.65,1.187c-0.449,0.5-0.801,1.092-1.05,1.771
	c-0.251,0.681-0.376,1.411-0.376,2.191c0,0.781,0.125,1.513,0.376,2.191c0.249,0.681,0.601,1.272,1.05,1.771
	c0.45,0.501,1.002,0.897,1.65,1.187c0.65,0.289,1.388,0.437,2.208,0.437c0.819,0,1.556-0.148,2.206-0.437
	c0.65-0.29,1.206-0.685,1.666-1.187c0.46-0.499,0.815-1.09,1.066-1.771C241.323,16.608,241.449,15.876,241.449,15.096z"/>
<path fill="#FFFFFF" stroke="#FFFFFF" stroke-miterlimit="10" d="M255.648,20.681c0,0.42-0.15,0.795-0.451,1.126
	c-0.298,0.328-0.688,0.493-1.17,0.493c-0.48,0-0.871-0.165-1.172-0.493c-0.298-0.331-0.45-0.706-0.45-1.126
	c0-0.422,0.152-0.797,0.45-1.128c0.301-0.328,0.691-0.493,1.172-0.493c0.481,0,0.872,0.165,1.17,0.493
	C255.498,19.884,255.648,20.258,255.648,20.681"/>
<path fill="#FFFFFF" stroke="#FFFFFF" stroke-width="1.35" stroke-miterlimit="10" d="M255.648,20.681
	c0,0.42-0.15,0.795-0.451,1.126c-0.298,0.328-0.688,0.493-1.17,0.493c-0.48,0-0.871-0.165-1.172-0.493
	c-0.298-0.331-0.45-0.706-0.45-1.126c0-0.422,0.152-0.797,0.45-1.128c0.301-0.328,0.691-0.493,1.172-0.493
	c0.481,0,0.872,0.165,1.17,0.493C255.498,19.884,255.648,20.258,255.648,20.681z"/>
<path fill="#FFFFFF" stroke="#FFFFFF" stroke-miterlimit="10" d="M275.402,11.374c-0.34-0.519-0.816-0.963-1.427-1.321
	c-0.61-0.36-1.305-0.541-2.085-0.541c-0.821-0.021-1.558,0.109-2.208,0.39c-0.65,0.28-1.206,0.67-1.666,1.171
	c-0.46,0.5-0.81,1.096-1.05,1.787c-0.24,0.689-0.361,1.436-0.361,2.234c0,0.802,0.121,1.548,0.361,2.238
	c0.24,0.691,0.59,1.285,1.05,1.787c0.46,0.501,1.016,0.891,1.666,1.171c0.65,0.279,1.387,0.411,2.208,0.39
	c0.78,0,1.475-0.182,2.085-0.541c0.61-0.362,1.087-0.801,1.427-1.321l1.62,1.231c-0.7,0.822-1.489,1.426-2.371,1.816
	c-0.881,0.39-1.801,0.596-2.761,0.616c-1.14,0.019-2.174-0.156-3.094-0.525c-0.92-0.372-1.705-0.886-2.355-1.548
	c-0.651-0.659-1.146-1.445-1.486-2.354c-0.341-0.913-0.512-1.897-0.512-2.959c0-1.06,0.171-2.045,0.512-2.957
	c0.341-0.91,0.835-1.694,1.486-2.356c0.65-0.659,1.436-1.175,2.355-1.544c0.92-0.372,1.954-0.546,3.094-0.528
	c0.96,0.021,1.88,0.226,2.761,0.616c0.882,0.391,1.671,0.996,2.371,1.819L275.402,11.374z"/>
<path fill="#FFFFFF" stroke="#FFFFFF" stroke-width="1.35" stroke-miterlimit="10" d="M275.402,11.374
	c-0.34-0.519-0.816-0.963-1.427-1.321c-0.61-0.36-1.305-0.541-2.085-0.541c-0.821-0.021-1.558,0.109-2.208,0.39
	c-0.65,0.28-1.206,0.67-1.666,1.171c-0.46,0.5-0.81,1.096-1.05,1.787c-0.24,0.689-0.361,1.436-0.361,2.234
	c0,0.802,0.121,1.548,0.361,2.238c0.24,0.691,0.59,1.285,1.05,1.787c0.46,0.501,1.016,0.891,1.666,1.171
	c0.65,0.279,1.387,0.411,2.208,0.39c0.78,0,1.475-0.182,2.085-0.541c0.61-0.362,1.087-0.801,1.427-1.321l1.62,1.231
	c-0.7,0.822-1.489,1.426-2.371,1.816c-0.881,0.39-1.801,0.596-2.761,0.616c-1.14,0.019-2.174-0.156-3.094-0.525
	c-0.92-0.372-1.705-0.886-2.355-1.548c-0.651-0.659-1.146-1.445-1.486-2.354c-0.341-0.913-0.512-1.897-0.512-2.959
	c0-1.06,0.171-2.045,0.512-2.957c0.341-0.91,0.835-1.694,1.486-2.356c0.65-0.659,1.436-1.175,2.355-1.544
	c0.92-0.372,1.954-0.546,3.094-0.528c0.96,0.021,1.88,0.226,2.761,0.616c0.882,0.391,1.671,0.996,2.371,1.819L275.402,11.374z"/>
<path fill="#FFFFFF" stroke="#FFFFFF" stroke-miterlimit="10" d="M298.639,15.096c0,1.06-0.186,2.041-0.555,2.942
	c-0.371,0.9-0.886,1.681-1.547,2.342c-0.66,0.661-1.446,1.176-2.356,1.548c-0.911,0.367-1.917,0.555-3.016,0.555
	c-1.081,0-2.078-0.188-2.989-0.555c-0.91-0.372-1.694-0.888-2.356-1.548c-0.659-0.661-1.174-1.441-1.544-2.342
	c-0.372-0.901-0.558-1.882-0.558-2.942s0.186-2.041,0.558-2.94c0.37-0.902,0.885-1.683,1.544-2.342
	c0.662-0.663,1.446-1.176,2.356-1.548c0.911-0.369,1.908-0.555,2.989-0.555c1.099,0,2.104,0.186,3.016,0.555
	c0.91,0.372,1.696,0.886,2.356,1.548c0.661,0.659,1.176,1.439,1.547,2.342C298.453,13.055,298.639,14.036,298.639,15.096
	 M296.479,15.096c0-0.78-0.127-1.511-0.376-2.191c-0.251-0.679-0.606-1.271-1.066-1.771c-0.46-0.5-1.015-0.895-1.665-1.187
	c-0.65-0.289-1.388-0.435-2.206-0.435c-0.821,0-1.558,0.146-2.208,0.435c-0.649,0.292-1.2,0.687-1.651,1.187
	c-0.449,0.5-0.801,1.092-1.05,1.771c-0.251,0.681-0.376,1.411-0.376,2.191c0,0.781,0.125,1.513,0.376,2.191
	c0.249,0.681,0.601,1.272,1.05,1.771c0.451,0.501,1.002,0.897,1.651,1.187c0.65,0.289,1.387,0.437,2.208,0.437
	c0.818,0,1.556-0.148,2.206-0.437c0.65-0.29,1.205-0.685,1.665-1.187c0.46-0.499,0.815-1.09,1.066-1.771
	C296.352,16.608,296.479,15.876,296.479,15.096"/>
<path fill="#FFFFFF" stroke="#FFFFFF" stroke-width="1.35" stroke-miterlimit="10" d="M298.639,15.096
	c0,1.06-0.186,2.041-0.555,2.942c-0.371,0.9-0.886,1.681-1.547,2.342c-0.66,0.661-1.446,1.176-2.356,1.548
	c-0.911,0.367-1.917,0.555-3.016,0.555c-1.081,0-2.078-0.188-2.989-0.555c-0.91-0.372-1.694-0.888-2.356-1.548
	c-0.659-0.661-1.174-1.441-1.544-2.342c-0.372-0.901-0.558-1.882-0.558-2.942s0.186-2.041,0.558-2.94
	c0.37-0.902,0.885-1.683,1.544-2.342c0.662-0.663,1.446-1.176,2.356-1.548c0.911-0.369,1.908-0.555,2.989-0.555
	c1.099,0,2.104,0.186,3.016,0.555c0.91,0.372,1.696,0.886,2.356,1.548c0.661,0.659,1.176,1.439,1.547,2.342
	C298.453,13.055,298.639,14.036,298.639,15.096z M296.479,15.096c0-0.78-0.127-1.511-0.376-2.191
	c-0.251-0.679-0.606-1.271-1.066-1.771c-0.46-0.5-1.015-0.895-1.665-1.187c-0.65-0.289-1.388-0.435-2.206-0.435
	c-0.821,0-1.558,0.146-2.208,0.435c-0.649,0.292-1.2,0.687-1.651,1.187c-0.449,0.5-0.801,1.092-1.05,1.771
	c-0.251,0.681-0.376,1.411-0.376,2.191c0,0.781,0.125,1.513,0.376,2.191c0.249,0.681,0.601,1.272,1.05,1.771
	c0.451,0.501,1.002,0.897,1.651,1.187c0.65,0.289,1.387,0.437,2.208,0.437c0.818,0,1.556-0.148,2.206-0.437
	c0.65-0.29,1.205-0.685,1.665-1.187c0.46-0.499,0.815-1.09,1.066-1.771C296.352,16.608,296.479,15.876,296.479,15.096z"/>
<path fill="#FFFFFF" stroke="#FFFFFF" stroke-miterlimit="10" d="M307.045,11.193c0-0.52-0.016-1.042-0.045-1.561
	s-0.068-1.04-0.104-1.562h2.131v2.134h0.061c0.479-0.821,1.145-1.443,1.995-1.863c0.849-0.42,1.697-0.63,2.538-0.63
	c0.379,0,0.784,0.042,1.215,0.12c0.431,0.081,0.847,0.225,1.244,0.435c0.403,0.21,0.776,0.507,1.128,0.886
	c0.351,0.38,0.646,0.871,0.886,1.471c0.399-0.9,1.035-1.609,1.905-2.131c0.87-0.52,1.777-0.781,2.718-0.781
	c1.801,0,3.131,0.477,3.99,1.426c0.861,0.952,1.294,2.308,1.294,4.068v8.916h-1.982v-8.195c0-1.421-0.249-2.51-0.75-3.272
	c-0.5-0.76-1.431-1.141-2.792-1.141c-0.74,0-1.361,0.146-1.863,0.435c-0.499,0.292-0.903,0.675-1.213,1.156
	c-0.312,0.48-0.537,1.026-0.677,1.635c-0.141,0.61-0.211,1.246-0.211,1.907v7.475h-1.98v-8.195c0-1.421-0.251-2.51-0.751-3.272
	c-0.5-0.76-1.431-1.141-2.791-1.141c-0.121,0-0.396,0.041-0.826,0.12c-0.431,0.081-0.876,0.3-1.336,0.662
	c-0.46,0.358-0.876,0.899-1.246,1.619c-0.37,0.723-0.555,1.722-0.555,3.002v7.205h-1.981V11.193z"/>
<path fill="#FFFFFF" stroke="#FFFFFF" stroke-width="1.35" stroke-miterlimit="10" d="M307.045,11.193
	c0-0.52-0.016-1.042-0.045-1.561s-0.068-1.04-0.104-1.562h2.131v2.134h0.061c0.479-0.821,1.145-1.443,1.995-1.863
	c0.849-0.42,1.697-0.63,2.538-0.63c0.379,0,0.784,0.042,1.215,0.12c0.431,0.081,0.847,0.225,1.244,0.435
	c0.403,0.21,0.776,0.507,1.128,0.886c0.351,0.38,0.646,0.871,0.886,1.471c0.399-0.9,1.035-1.609,1.905-2.131
	c0.87-0.52,1.777-0.781,2.718-0.781c1.801,0,3.131,0.477,3.99,1.426c0.861,0.952,1.294,2.308,1.294,4.068v8.916h-1.982v-8.195
	c0-1.421-0.249-2.51-0.75-3.272c-0.5-0.76-1.431-1.141-2.792-1.141c-0.74,0-1.361,0.146-1.863,0.435
	c-0.499,0.292-0.903,0.675-1.213,1.156c-0.312,0.48-0.537,1.026-0.677,1.635c-0.141,0.61-0.211,1.246-0.211,1.907v7.475h-1.98
	v-8.195c0-1.421-0.251-2.51-0.751-3.272c-0.5-0.76-1.431-1.141-2.791-1.141c-0.121,0-0.396,0.041-0.826,0.12
	c-0.431,0.081-0.876,0.3-1.336,0.662c-0.46,0.358-0.876,0.899-1.246,1.619c-0.37,0.723-0.555,1.722-0.555,3.002v7.205h-1.981V11.193
	z"/>
<rect x="111.812" y="37.446" fill="#FFFFFF" stroke="#FFFFFF" stroke-miterlimit="10" width="1.216" height="11.956"/>
<rect x="111.812" y="37.446" fill="#FFFFFF" stroke="#FFFFFF" stroke-width="0.25" stroke-miterlimit="10" width="1.216" height="11.956"/>
<path fill="#FFFFFF" stroke="#FFFFFF" stroke-miterlimit="10" d="M115.864,43.254c0-0.291-0.007-0.585-0.026-0.877
	c-0.015-0.293-0.036-0.583-0.058-0.878h1.199v1.199h0.034c0.271-0.462,0.646-0.811,1.123-1.045c0.478-0.236,0.955-0.356,1.428-0.356
	c0.213,0,0.442,0.024,0.682,0.068c0.242,0.047,0.477,0.127,0.702,0.246c0.225,0.118,0.435,0.283,0.632,0.499
	c0.197,0.212,0.364,0.488,0.5,0.826c0.226-0.505,0.583-0.904,1.073-1.199c0.49-0.292,0.999-0.439,1.527-0.439
	c1.013,0,1.763,0.269,2.247,0.802c0.483,0.535,0.726,1.298,0.726,2.29v5.013h-1.114v-4.61c0-0.797-0.141-1.413-0.422-1.84
	c-0.281-0.428-0.804-0.642-1.57-0.642c-0.417,0-0.766,0.083-1.047,0.246s-0.511,0.379-0.683,0.651
	c-0.177,0.269-0.303,0.576-0.381,0.919c-0.079,0.342-0.118,0.7-0.118,1.072v4.205H121.2v-4.61c0-0.797-0.14-1.413-0.421-1.84
	c-0.282-0.428-0.806-0.642-1.571-0.642c-0.067,0-0.221,0.024-0.463,0.068c-0.245,0.047-0.494,0.168-0.753,0.371
	c-0.258,0.203-0.491,0.506-0.7,0.914c-0.209,0.406-0.313,0.966-0.313,1.688v4.052h-1.114V43.254z"/>
<path fill="#FFFFFF" stroke="#FFFFFF" stroke-width="0.25" stroke-miterlimit="10" d="M115.864,43.254
	c0-0.291-0.007-0.585-0.026-0.877c-0.015-0.293-0.036-0.583-0.058-0.878h1.199v1.199h0.034c0.271-0.462,0.646-0.811,1.123-1.045
	c0.478-0.236,0.955-0.356,1.428-0.356c0.213,0,0.442,0.024,0.682,0.068c0.242,0.047,0.477,0.127,0.702,0.246
	c0.225,0.118,0.435,0.283,0.632,0.499c0.197,0.212,0.364,0.488,0.5,0.826c0.226-0.505,0.583-0.904,1.073-1.199
	c0.49-0.292,0.999-0.439,1.527-0.439c1.013,0,1.763,0.269,2.247,0.802c0.483,0.535,0.726,1.298,0.726,2.29v5.013h-1.114v-4.61
	c0-0.797-0.141-1.413-0.422-1.84c-0.281-0.428-0.804-0.642-1.57-0.642c-0.417,0-0.766,0.083-1.047,0.246s-0.511,0.379-0.683,0.651
	c-0.177,0.269-0.303,0.576-0.381,0.919c-0.079,0.342-0.118,0.7-0.118,1.072v4.205H121.2v-4.61c0-0.797-0.14-1.413-0.421-1.84
	c-0.282-0.428-0.806-0.642-1.571-0.642c-0.067,0-0.221,0.024-0.463,0.068c-0.245,0.047-0.494,0.168-0.753,0.371
	c-0.258,0.203-0.491,0.506-0.7,0.914c-0.209,0.406-0.313,0.966-0.313,1.688v4.052h-1.114V43.254z"/>
<path fill="#FFFFFF" stroke="#FFFFFF" stroke-miterlimit="10" d="M130.252,43.254c0-0.291-0.007-0.585-0.027-0.877
	c-0.015-0.293-0.036-0.583-0.058-0.878h1.199v1.199h0.033c0.27-0.462,0.646-0.811,1.122-1.045c0.478-0.236,0.956-0.356,1.428-0.356
	c0.214,0,0.442,0.024,0.683,0.068c0.242,0.047,0.477,0.127,0.702,0.246c0.226,0.118,0.436,0.283,0.632,0.499
	c0.197,0.212,0.364,0.488,0.5,0.826c0.225-0.505,0.583-0.904,1.073-1.199c0.49-0.292,0.999-0.439,1.527-0.439
	c1.013,0,1.763,0.269,2.246,0.802c0.484,0.535,0.726,1.298,0.726,2.29v5.013h-1.114v-4.61c0-0.797-0.141-1.413-0.422-1.84
	c-0.281-0.428-0.805-0.642-1.57-0.642c-0.417,0-0.766,0.083-1.047,0.246s-0.51,0.379-0.683,0.651
	c-0.177,0.269-0.302,0.576-0.381,0.919c-0.079,0.342-0.118,0.7-0.118,1.072v4.205h-1.114v-4.61c0-0.797-0.141-1.413-0.422-1.84
	c-0.281-0.428-0.805-0.642-1.571-0.642c-0.067,0-0.221,0.024-0.462,0.068c-0.245,0.047-0.494,0.168-0.753,0.371
	c-0.258,0.203-0.491,0.506-0.699,0.914c-0.211,0.406-0.313,0.966-0.313,1.688v4.052h-1.115V43.254z"/>
<path fill="#FFFFFF" stroke="#FFFFFF" stroke-width="0.25" stroke-miterlimit="10" d="M130.252,43.254
	c0-0.291-0.007-0.585-0.027-0.877c-0.015-0.293-0.036-0.583-0.058-0.878h1.199v1.199h0.033c0.27-0.462,0.646-0.811,1.122-1.045
	c0.478-0.236,0.956-0.356,1.428-0.356c0.214,0,0.442,0.024,0.683,0.068c0.242,0.047,0.477,0.127,0.702,0.246
	c0.226,0.118,0.436,0.283,0.632,0.499c0.197,0.212,0.364,0.488,0.5,0.826c0.225-0.505,0.583-0.904,1.073-1.199
	c0.49-0.292,0.999-0.439,1.527-0.439c1.013,0,1.763,0.269,2.246,0.802c0.484,0.535,0.726,1.298,0.726,2.29v5.013h-1.114v-4.61
	c0-0.797-0.141-1.413-0.422-1.84c-0.281-0.428-0.805-0.642-1.57-0.642c-0.417,0-0.766,0.083-1.047,0.246s-0.51,0.379-0.683,0.651
	c-0.177,0.269-0.302,0.576-0.381,0.919c-0.079,0.342-0.118,0.7-0.118,1.072v4.205h-1.114v-4.61c0-0.797-0.141-1.413-0.422-1.84
	c-0.281-0.428-0.805-0.642-1.571-0.642c-0.067,0-0.221,0.024-0.462,0.068c-0.245,0.047-0.494,0.168-0.753,0.371
	c-0.258,0.203-0.491,0.506-0.699,0.914c-0.211,0.406-0.313,0.966-0.313,1.688v4.052h-1.115V43.254z"/>
<path fill="#FFFFFF" stroke="#FFFFFF" stroke-miterlimit="10" d="M152.627,45.449c0,0.597-0.104,1.149-0.313,1.656
	c-0.207,0.505-0.497,0.947-0.871,1.316c-0.37,0.372-0.813,0.663-1.323,0.871c-0.513,0.208-1.079,0.313-1.699,0.313
	c-0.608,0-1.167-0.104-1.68-0.313c-0.513-0.208-0.955-0.499-1.327-0.871c-0.37-0.369-0.659-0.811-0.868-1.316
	c-0.209-0.507-0.312-1.06-0.312-1.656c0-0.595,0.103-1.146,0.312-1.654c0.209-0.505,0.498-0.946,0.868-1.317
	c0.372-0.37,0.814-0.661,1.327-0.869c0.513-0.209,1.072-0.313,1.68-0.313c0.62,0,1.186,0.104,1.699,0.313
	c0.509,0.208,0.953,0.499,1.323,0.869c0.374,0.372,0.664,0.812,0.871,1.317C152.523,44.303,152.627,44.854,152.627,45.449
	 M151.411,45.449c0-0.437-0.07-0.848-0.21-1.23c-0.14-0.383-0.341-0.715-0.6-0.997c-0.26-0.283-0.571-0.505-0.938-0.668
	s-0.779-0.246-1.241-0.246c-0.461,0-0.875,0.083-1.24,0.246c-0.367,0.163-0.676,0.385-0.931,0.668
	c-0.253,0.281-0.449,0.614-0.59,0.997c-0.141,0.382-0.21,0.793-0.21,1.23c0,0.439,0.069,0.85,0.21,1.233
	c0.141,0.382,0.337,0.714,0.59,0.996c0.254,0.283,0.564,0.505,0.931,0.668c0.365,0.163,0.779,0.246,1.24,0.246
	c0.462,0,0.874-0.083,1.241-0.246s0.678-0.385,0.938-0.668c0.259-0.281,0.46-0.614,0.6-0.996
	C151.341,46.299,151.411,45.888,151.411,45.449"/>
<path fill="#FFFFFF" stroke="#FFFFFF" stroke-width="0.25" stroke-miterlimit="10" d="M152.627,45.449
	c0,0.597-0.104,1.149-0.313,1.656c-0.207,0.505-0.497,0.947-0.871,1.316c-0.37,0.372-0.813,0.663-1.323,0.871
	c-0.513,0.208-1.079,0.313-1.699,0.313c-0.608,0-1.167-0.104-1.68-0.313c-0.513-0.208-0.955-0.499-1.327-0.871
	c-0.37-0.369-0.659-0.811-0.868-1.316c-0.209-0.507-0.312-1.06-0.312-1.656c0-0.595,0.103-1.146,0.312-1.654
	c0.209-0.505,0.498-0.946,0.868-1.317c0.372-0.37,0.814-0.661,1.327-0.869c0.513-0.209,1.072-0.313,1.68-0.313
	c0.62,0,1.186,0.104,1.699,0.313c0.509,0.208,0.953,0.499,1.323,0.869c0.374,0.372,0.664,0.812,0.871,1.317
	C152.523,44.303,152.627,44.854,152.627,45.449z M151.411,45.449c0-0.437-0.07-0.848-0.21-1.23c-0.14-0.383-0.341-0.715-0.6-0.997
	c-0.26-0.283-0.571-0.505-0.938-0.668s-0.779-0.246-1.241-0.246c-0.461,0-0.875,0.083-1.24,0.246
	c-0.367,0.163-0.676,0.385-0.931,0.668c-0.253,0.281-0.449,0.614-0.59,0.997c-0.141,0.382-0.21,0.793-0.21,1.23
	c0,0.439,0.069,0.85,0.21,1.233c0.141,0.382,0.337,0.714,0.59,0.996c0.254,0.283,0.564,0.505,0.931,0.668
	c0.365,0.163,0.779,0.246,1.24,0.246c0.462,0,0.874-0.083,1.241-0.246s0.678-0.385,0.938-0.668c0.259-0.281,0.46-0.614,0.6-0.996
	C151.341,46.299,151.411,45.888,151.411,45.449z"/>
<path fill="#FFFFFF" stroke="#FFFFFF" stroke-miterlimit="10" d="M154.654,36.637h1.114v6.181h0.033
	c0.18-0.272,0.394-0.503,0.642-0.693c0.249-0.191,0.507-0.349,0.777-0.473c0.271-0.125,0.55-0.216,0.835-0.272
	c0.288-0.054,0.561-0.084,0.821-0.084c0.62,0,1.184,0.104,1.697,0.313c0.513,0.208,0.953,0.499,1.325,0.869
	c0.372,0.372,0.662,0.812,0.871,1.317c0.209,0.508,0.31,1.06,0.31,1.654c0,0.597-0.101,1.149-0.31,1.656
	c-0.209,0.505-0.499,0.947-0.871,1.316c-0.372,0.372-0.812,0.663-1.325,0.871c-0.513,0.208-1.077,0.313-1.697,0.313
	c-0.26,0-0.533-0.029-0.821-0.084c-0.286-0.056-0.564-0.146-0.835-0.272c-0.27-0.122-0.528-0.279-0.777-0.473
	c-0.248-0.189-0.462-0.42-0.642-0.692h-0.033v1.317h-1.114V36.637z M161.864,45.449c0-0.437-0.072-0.848-0.211-1.23
	c-0.143-0.383-0.341-0.715-0.601-0.997c-0.258-0.283-0.572-0.505-0.936-0.668c-0.367-0.163-0.779-0.246-1.241-0.246
	c-0.461,0-0.885,0.083-1.268,0.246c-0.381,0.163-0.714,0.385-0.997,0.668c-0.28,0.281-0.5,0.614-0.658,0.997
	c-0.158,0.382-0.236,0.793-0.236,1.23c0,0.439,0.079,0.85,0.236,1.233c0.157,0.382,0.377,0.714,0.658,0.996
	c0.282,0.283,0.616,0.505,0.997,0.668c0.383,0.163,0.807,0.246,1.268,0.246c0.462,0,0.874-0.083,1.241-0.246
	c0.364-0.163,0.678-0.385,0.936-0.668c0.26-0.281,0.458-0.614,0.601-0.996C161.792,46.299,161.864,45.888,161.864,45.449"/>
<path fill="#FFFFFF" stroke="#FFFFFF" stroke-width="0.25" stroke-miterlimit="10" d="M154.654,36.637h1.114v6.181h0.033
	c0.18-0.272,0.394-0.503,0.642-0.693c0.249-0.191,0.507-0.349,0.777-0.473c0.271-0.125,0.55-0.216,0.835-0.272
	c0.288-0.054,0.561-0.084,0.821-0.084c0.62,0,1.184,0.104,1.697,0.313c0.513,0.208,0.953,0.499,1.325,0.869
	c0.372,0.372,0.662,0.812,0.871,1.317c0.209,0.508,0.31,1.06,0.31,1.654c0,0.597-0.101,1.149-0.31,1.656
	c-0.209,0.505-0.499,0.947-0.871,1.316c-0.372,0.372-0.812,0.663-1.325,0.871c-0.513,0.208-1.077,0.313-1.697,0.313
	c-0.26,0-0.533-0.029-0.821-0.084c-0.286-0.056-0.564-0.146-0.835-0.272c-0.27-0.122-0.528-0.279-0.777-0.473
	c-0.248-0.189-0.462-0.42-0.642-0.692h-0.033v1.317h-1.114V36.637z M161.864,45.449c0-0.437-0.072-0.848-0.211-1.23
	c-0.143-0.383-0.341-0.715-0.601-0.997c-0.258-0.283-0.572-0.505-0.936-0.668c-0.367-0.163-0.779-0.246-1.241-0.246
	c-0.461,0-0.885,0.083-1.268,0.246c-0.381,0.163-0.714,0.385-0.997,0.668c-0.28,0.281-0.5,0.614-0.658,0.997
	c-0.158,0.382-0.236,0.793-0.236,1.23c0,0.439,0.079,0.85,0.236,1.233c0.157,0.382,0.377,0.714,0.658,0.996
	c0.282,0.283,0.616,0.505,0.997,0.668c0.383,0.163,0.807,0.246,1.268,0.246c0.462,0,0.874-0.083,1.241-0.246
	c0.364-0.163,0.678-0.385,0.936-0.668c0.26-0.281,0.458-0.614,0.601-0.996C161.792,46.299,161.864,45.888,161.864,45.449z"/>
<path fill="#FFFFFF" stroke="#FFFFFF" stroke-miterlimit="10" d="M166.592,38.459c0,0.236-0.086,0.432-0.255,0.583
	s-0.354,0.227-0.558,0.227c-0.201,0-0.388-0.075-0.557-0.227c-0.168-0.152-0.253-0.347-0.253-0.583s0.085-0.43,0.253-0.582
	c0.169-0.154,0.355-0.229,0.557-0.229c0.204,0,0.389,0.075,0.558,0.229C166.506,38.029,166.592,38.223,166.592,38.459
	 M166.337,49.401h-1.114v-7.902h1.114V49.401z"/>
<path fill="#FFFFFF" stroke="#FFFFFF" stroke-width="0.25" stroke-miterlimit="10" d="M166.592,38.459
	c0,0.236-0.086,0.432-0.255,0.583s-0.354,0.227-0.558,0.227c-0.201,0-0.388-0.075-0.557-0.227c-0.168-0.152-0.253-0.347-0.253-0.583
	s0.085-0.43,0.253-0.582c0.169-0.154,0.355-0.229,0.557-0.229c0.204,0,0.389,0.075,0.558,0.229
	C166.506,38.029,166.592,38.223,166.592,38.459z M166.337,49.401h-1.114v-7.902h1.114V49.401z"/>
<rect x="169.275" y="36.635" fill="#FFFFFF" stroke="#FFFFFF" stroke-miterlimit="10" width="1.114" height="12.767"/>
<rect x="169.275" y="36.635" fill="#FFFFFF" stroke="#FFFFFF" stroke-width="0.25" stroke-miterlimit="10" width="1.114" height="12.767"/>
<path fill="#FFFFFF" stroke="#FFFFFF" stroke-miterlimit="10" d="M174.696,38.459c0,0.236-0.085,0.432-0.253,0.583
	c-0.169,0.152-0.355,0.227-0.558,0.227c-0.201,0-0.388-0.075-0.557-0.227s-0.253-0.347-0.253-0.583s0.084-0.43,0.253-0.582
	c0.169-0.154,0.355-0.229,0.557-0.229c0.202,0,0.389,0.075,0.558,0.229C174.611,38.029,174.696,38.223,174.696,38.459
	 M174.443,49.401h-1.114v-7.902h1.114V49.401z"/>
<path fill="#FFFFFF" stroke="#FFFFFF" stroke-width="0.25" stroke-miterlimit="10" d="M174.696,38.459
	c0,0.236-0.085,0.432-0.253,0.583c-0.169,0.152-0.355,0.227-0.558,0.227c-0.201,0-0.388-0.075-0.557-0.227s-0.253-0.347-0.253-0.583
	s0.084-0.43,0.253-0.582c0.169-0.154,0.355-0.229,0.557-0.229c0.202,0,0.389,0.075,0.558,0.229
	C174.611,38.029,174.696,38.223,174.696,38.459z M174.443,49.401h-1.114v-7.902h1.114V49.401z"/>
<path fill="#FFFFFF" stroke="#FFFFFF" stroke-miterlimit="10" d="M177.906,45.752c0.033,0.394,0.128,0.768,0.286,1.117
	c0.157,0.349,0.366,0.649,0.624,0.904c0.259,0.251,0.56,0.452,0.896,0.599c0.337,0.146,0.703,0.22,1.096,0.22
	c0.598,0,1.114-0.139,1.547-0.415c0.432-0.276,0.762-0.593,0.987-0.953l0.861,0.708c-0.473,0.598-0.993,1.024-1.563,1.286
	c-0.567,0.258-1.178,0.388-1.832,0.388c-0.584,0-1.129-0.105-1.627-0.313c-0.502-0.209-0.933-0.5-1.294-0.871
	c-0.359-0.37-0.645-0.809-0.852-1.316c-0.209-0.506-0.313-1.058-0.313-1.656c0-0.596,0.103-1.147,0.304-1.655
	c0.204-0.505,0.484-0.944,0.845-1.317c0.361-0.37,0.783-0.658,1.267-0.869c0.483-0.208,1.008-0.313,1.572-0.313
	c0.595,0,1.13,0.109,1.603,0.321c0.474,0.216,0.871,0.499,1.189,0.854c0.322,0.355,0.568,0.771,0.736,1.25
	c0.169,0.478,0.253,0.988,0.253,1.529v0.505H177.906z M183.275,44.843c0-0.754-0.226-1.366-0.675-1.833
	c-0.45-0.468-1.081-0.702-1.891-0.702c-0.363,0-0.711,0.073-1.049,0.213c-0.337,0.14-0.634,0.33-0.887,0.564
	c-0.253,0.236-0.454,0.508-0.608,0.812c-0.15,0.302-0.227,0.619-0.227,0.945H183.275z"/>
<path fill="#FFFFFF" stroke="#FFFFFF" stroke-width="0.25" stroke-miterlimit="10" d="M177.906,45.752
	c0.033,0.394,0.128,0.768,0.286,1.117c0.157,0.349,0.366,0.649,0.624,0.904c0.259,0.251,0.56,0.452,0.896,0.599
	c0.337,0.146,0.703,0.22,1.096,0.22c0.598,0,1.114-0.139,1.547-0.415c0.432-0.276,0.762-0.593,0.987-0.953l0.861,0.708
	c-0.473,0.598-0.993,1.024-1.563,1.286c-0.567,0.258-1.178,0.388-1.832,0.388c-0.584,0-1.129-0.105-1.627-0.313
	c-0.502-0.209-0.933-0.5-1.294-0.871c-0.359-0.37-0.645-0.809-0.852-1.316c-0.209-0.506-0.313-1.058-0.313-1.656
	c0-0.596,0.103-1.147,0.304-1.655c0.204-0.505,0.484-0.944,0.845-1.317c0.361-0.37,0.783-0.658,1.267-0.869
	c0.483-0.208,1.008-0.313,1.572-0.313c0.595,0,1.13,0.109,1.603,0.321c0.474,0.216,0.871,0.499,1.189,0.854
	c0.322,0.355,0.568,0.771,0.736,1.25c0.169,0.478,0.253,0.988,0.253,1.529v0.505H177.906z M183.275,44.843
	c0-0.754-0.226-1.366-0.675-1.833c-0.45-0.468-1.081-0.702-1.891-0.702c-0.363,0-0.711,0.073-1.049,0.213
	c-0.337,0.14-0.634,0.33-0.887,0.564c-0.253,0.236-0.454,0.508-0.608,0.812c-0.15,0.302-0.227,0.619-0.227,0.945H183.275z"/>
<path fill="#FFFFFF" stroke="#FFFFFF" stroke-miterlimit="10" d="M186.636,43.963c0-0.349-0.008-0.702-0.026-1.062
	c-0.016-0.362-0.031-0.829-0.042-1.401h1.098v1.469h0.033c0.081-0.216,0.192-0.42,0.339-0.618c0.146-0.197,0.324-0.375,0.533-0.533
	c0.207-0.157,0.451-0.283,0.726-0.378c0.274-0.097,0.587-0.145,0.937-0.145c0.315,0,0.592,0.036,0.826,0.103l-0.218,1.099
	c-0.146-0.057-0.361-0.085-0.644-0.085c-0.427,0-0.791,0.081-1.096,0.245c-0.304,0.163-0.557,0.371-0.76,0.625
	c-0.204,0.253-0.353,0.525-0.449,0.818c-0.096,0.294-0.143,0.576-0.143,0.844v4.458h-1.114V43.963z"/>
<path fill="#FFFFFF" stroke="#FFFFFF" stroke-width="0.25" stroke-miterlimit="10" d="M186.636,43.963
	c0-0.349-0.008-0.702-0.026-1.062c-0.016-0.362-0.031-0.829-0.042-1.401h1.098v1.469h0.033c0.081-0.216,0.192-0.42,0.339-0.618
	c0.146-0.197,0.324-0.375,0.533-0.533c0.207-0.157,0.451-0.283,0.726-0.378c0.274-0.097,0.587-0.145,0.937-0.145
	c0.315,0,0.592,0.036,0.826,0.103l-0.218,1.099c-0.146-0.057-0.361-0.085-0.644-0.085c-0.427,0-0.791,0.081-1.096,0.245
	c-0.304,0.163-0.557,0.371-0.76,0.625c-0.204,0.253-0.353,0.525-0.449,0.818c-0.096,0.294-0.143,0.576-0.143,0.844v4.458h-1.114
	V43.963z"/>
<path fill="#FFFFFF" stroke="#FFFFFF" stroke-miterlimit="10" d="M204.704,49.401h-1.116v-1.317h-0.033
	c-0.179,0.271-0.392,0.502-0.641,0.692c-0.248,0.193-0.506,0.351-0.777,0.473c-0.271,0.125-0.55,0.216-0.835,0.272
	c-0.288,0.055-0.562,0.084-0.819,0.084c-0.619,0-1.186-0.104-1.7-0.313c-0.51-0.208-0.951-0.499-1.321-0.871
	c-0.374-0.369-0.663-0.811-0.872-1.316c-0.207-0.507-0.312-1.06-0.312-1.656c0-0.595,0.104-1.146,0.312-1.654
	c0.209-0.505,0.498-0.946,0.872-1.317c0.37-0.37,0.812-0.661,1.321-0.869c0.515-0.209,1.081-0.313,1.7-0.313
	c0.258,0,0.531,0.03,0.819,0.084c0.285,0.056,0.564,0.146,0.835,0.272c0.271,0.124,0.529,0.281,0.777,0.473
	c0.249,0.19,0.462,0.42,0.641,0.693h0.033v-6.181h1.116V49.401z M197.494,45.449c0,0.439,0.069,0.85,0.21,1.233
	c0.14,0.382,0.34,0.714,0.6,0.996c0.26,0.283,0.571,0.505,0.938,0.668c0.364,0.163,0.778,0.246,1.24,0.246
	c0.449,0,0.87-0.083,1.259-0.246s0.722-0.385,1.004-0.668c0.282-0.281,0.5-0.614,0.66-0.996c0.157-0.383,0.234-0.794,0.234-1.233
	c0-0.437-0.077-0.848-0.234-1.23c-0.16-0.383-0.378-0.715-0.66-0.997c-0.282-0.283-0.615-0.505-1.004-0.668s-0.81-0.246-1.259-0.246
	c-0.462,0-0.876,0.083-1.24,0.246c-0.367,0.163-0.679,0.385-0.938,0.668c-0.26,0.281-0.46,0.614-0.6,0.997
	C197.563,44.601,197.494,45.012,197.494,45.449"/>
<path fill="#FFFFFF" stroke="#FFFFFF" stroke-width="0.25" stroke-miterlimit="10" d="M204.704,49.401h-1.116v-1.317h-0.033
	c-0.179,0.271-0.392,0.502-0.641,0.692c-0.248,0.193-0.506,0.351-0.777,0.473c-0.271,0.125-0.55,0.216-0.835,0.272
	c-0.288,0.055-0.562,0.084-0.819,0.084c-0.619,0-1.186-0.104-1.7-0.313c-0.51-0.208-0.951-0.499-1.321-0.871
	c-0.374-0.369-0.663-0.811-0.872-1.316c-0.207-0.507-0.312-1.06-0.312-1.656c0-0.595,0.104-1.146,0.312-1.654
	c0.209-0.505,0.498-0.946,0.872-1.317c0.37-0.37,0.812-0.661,1.321-0.869c0.515-0.209,1.081-0.313,1.7-0.313
	c0.258,0,0.531,0.03,0.819,0.084c0.285,0.056,0.564,0.146,0.835,0.272c0.271,0.124,0.529,0.281,0.777,0.473
	c0.249,0.19,0.462,0.42,0.641,0.693h0.033v-6.181h1.116V49.401z M197.494,45.449c0,0.439,0.069,0.85,0.21,1.233
	c0.14,0.382,0.34,0.714,0.6,0.996c0.26,0.283,0.571,0.505,0.938,0.668c0.364,0.163,0.778,0.246,1.24,0.246
	c0.449,0,0.87-0.083,1.259-0.246s0.722-0.385,1.004-0.668c0.282-0.281,0.5-0.614,0.66-0.996c0.157-0.383,0.234-0.794,0.234-1.233
	c0-0.437-0.077-0.848-0.234-1.23c-0.16-0.383-0.378-0.715-0.66-0.997c-0.282-0.283-0.615-0.505-1.004-0.668s-0.81-0.246-1.259-0.246
	c-0.462,0-0.876,0.083-1.24,0.246c-0.367,0.163-0.679,0.385-0.938,0.668c-0.26,0.281-0.46,0.614-0.6,0.997
	C197.563,44.601,197.494,45.012,197.494,45.449z"/>
<polygon fill="#FFFFFF" stroke="#FFFFFF" stroke-miterlimit="10" points="207.98,41.415 206.864,41.415 207.997,37.446 
	209.363,37.446 "/>
<polygon fill="#FFFFFF" stroke="#FFFFFF" stroke-width="0.25" stroke-miterlimit="10" points="207.98,41.415 206.864,41.415 
	207.997,37.446 209.363,37.446 "/>
<path fill="#FFFFFF" stroke="#FFFFFF" stroke-miterlimit="10" d="M212.303,45.752c0.033,0.394,0.128,0.768,0.286,1.117
	c0.157,0.349,0.366,0.649,0.626,0.904c0.259,0.251,0.558,0.452,0.895,0.599c0.337,0.146,0.704,0.22,1.098,0.22
	c0.596,0,1.112-0.139,1.545-0.415c0.434-0.276,0.762-0.593,0.989-0.953l0.861,0.708c-0.473,0.598-0.993,1.024-1.563,1.286
	c-0.567,0.258-1.178,0.388-1.832,0.388c-0.585,0-1.129-0.105-1.629-0.313c-0.502-0.209-0.931-0.5-1.292-0.871
	c-0.362-0.37-0.645-0.809-0.852-1.316c-0.209-0.506-0.313-1.058-0.313-1.656c0-0.596,0.099-1.147,0.304-1.655
	c0.204-0.505,0.484-0.944,0.845-1.317c0.357-0.37,0.781-0.658,1.267-0.869c0.483-0.208,1.006-0.313,1.57-0.313
	c0.597,0,1.132,0.109,1.604,0.321c0.473,0.216,0.869,0.499,1.189,0.854c0.32,0.355,0.566,0.771,0.735,1.25
	c0.168,0.478,0.253,0.988,0.253,1.529v0.505H212.303z M217.672,44.843c0-0.754-0.224-1.366-0.675-1.833
	c-0.45-0.468-1.081-0.702-1.891-0.702c-0.361,0-0.709,0.073-1.048,0.213c-0.338,0.14-0.633,0.33-0.888,0.564
	c-0.253,0.236-0.454,0.508-0.606,0.812c-0.151,0.302-0.229,0.619-0.229,0.945H217.672z"/>
<path fill="#FFFFFF" stroke="#FFFFFF" stroke-width="0.25" stroke-miterlimit="10" d="M212.303,45.752
	c0.033,0.394,0.128,0.768,0.286,1.117c0.157,0.349,0.366,0.649,0.626,0.904c0.259,0.251,0.558,0.452,0.895,0.599
	c0.337,0.146,0.704,0.22,1.098,0.22c0.596,0,1.112-0.139,1.545-0.415c0.434-0.276,0.762-0.593,0.989-0.953l0.861,0.708
	c-0.473,0.598-0.993,1.024-1.563,1.286c-0.567,0.258-1.178,0.388-1.832,0.388c-0.585,0-1.129-0.105-1.629-0.313
	c-0.502-0.209-0.931-0.5-1.292-0.871c-0.362-0.37-0.645-0.809-0.852-1.316c-0.209-0.506-0.313-1.058-0.313-1.656
	c0-0.596,0.099-1.147,0.304-1.655c0.204-0.505,0.484-0.944,0.845-1.317c0.357-0.37,0.781-0.658,1.267-0.869
	c0.483-0.208,1.006-0.313,1.57-0.313c0.597,0,1.132,0.109,1.604,0.321c0.473,0.216,0.869,0.499,1.189,0.854
	c0.32,0.355,0.566,0.771,0.735,1.25c0.168,0.478,0.253,0.988,0.253,1.529v0.505H212.303z M217.672,44.843
	c0-0.754-0.224-1.366-0.675-1.833c-0.45-0.468-1.081-0.702-1.891-0.702c-0.361,0-0.709,0.073-1.048,0.213
	c-0.338,0.14-0.633,0.33-0.888,0.564c-0.253,0.236-0.454,0.508-0.606,0.812c-0.151,0.302-0.229,0.619-0.229,0.945H217.672z"/>
<path fill="#FFFFFF" stroke="#FFFFFF" stroke-miterlimit="10" d="M221.979,41.499c0.023,0.214,0.036,0.426,0.042,0.634
	c0.006,0.207,0.009,0.419,0.009,0.632h0.033c0.125-0.213,0.28-0.41,0.475-0.591c0.19-0.18,0.403-0.333,0.642-0.465
	c0.234-0.127,0.485-0.23,0.751-0.303c0.264-0.073,0.524-0.109,0.784-0.109c1.014,0,1.763,0.267,2.246,0.801
	c0.484,0.535,0.727,1.299,0.727,2.29v5.015h-1.114v-4.374c0-0.877-0.152-1.549-0.456-2.017c-0.305-0.467-0.867-0.702-1.688-0.702
	c-0.059,0-0.216,0.022-0.473,0.067c-0.26,0.046-0.533,0.169-0.82,0.372c-0.286,0.201-0.543,0.506-0.768,0.912
	c-0.226,0.406-0.338,0.968-0.338,1.688v4.053h-1.115v-6.164c0-0.213-0.008-0.484-0.026-0.81c-0.015-0.327-0.036-0.636-0.059-0.929
	H221.979z"/>
<path fill="#FFFFFF" stroke="#FFFFFF" stroke-width="0.25" stroke-miterlimit="10" d="M221.979,41.499
	c0.023,0.214,0.036,0.426,0.042,0.634c0.006,0.207,0.009,0.419,0.009,0.632h0.033c0.125-0.213,0.28-0.41,0.475-0.591
	c0.19-0.18,0.403-0.333,0.642-0.465c0.234-0.127,0.485-0.23,0.751-0.303c0.264-0.073,0.524-0.109,0.784-0.109
	c1.014,0,1.763,0.267,2.246,0.801c0.484,0.535,0.727,1.299,0.727,2.29v5.015h-1.114v-4.374c0-0.877-0.152-1.549-0.456-2.017
	c-0.305-0.467-0.867-0.702-1.688-0.702c-0.059,0-0.216,0.022-0.473,0.067c-0.26,0.046-0.533,0.169-0.82,0.372
	c-0.286,0.201-0.543,0.506-0.768,0.912c-0.226,0.406-0.338,0.968-0.338,1.688v4.053h-1.115v-6.164c0-0.213-0.008-0.484-0.026-0.81
	c-0.015-0.327-0.036-0.636-0.059-0.929H221.979z"/>
<path fill="#FFFFFF" stroke="#FFFFFF" stroke-miterlimit="10" d="M234.392,42.512h-2.281v4.659c0,0.295,0.029,0.535,0.084,0.719
	c0.059,0.187,0.136,0.33,0.238,0.431c0.101,0.099,0.222,0.172,0.363,0.21c0.139,0.04,0.295,0.061,0.463,0.061
	c0.192,0,0.389-0.028,0.592-0.085c0.202-0.056,0.389-0.129,0.558-0.219l0.051,1.03c-0.419,0.191-0.918,0.287-1.502,0.287
	c-0.217,0-0.437-0.027-0.667-0.084c-0.231-0.056-0.443-0.163-0.634-0.322c-0.191-0.157-0.349-0.369-0.473-0.64
	c-0.125-0.27-0.188-0.625-0.188-1.064v-4.981h-1.671v-1.013h1.671v-2.231h1.114v2.231h2.281V42.512z"/>
<path fill="#FFFFFF" stroke="#FFFFFF" stroke-width="0.25" stroke-miterlimit="10" d="M234.392,42.512h-2.281v4.659
	c0,0.295,0.029,0.535,0.084,0.719c0.059,0.187,0.136,0.33,0.238,0.431c0.101,0.099,0.222,0.172,0.363,0.21
	c0.139,0.04,0.295,0.061,0.463,0.061c0.192,0,0.389-0.028,0.592-0.085c0.202-0.056,0.389-0.129,0.558-0.219l0.051,1.03
	c-0.419,0.191-0.918,0.287-1.502,0.287c-0.217,0-0.437-0.027-0.667-0.084c-0.231-0.056-0.443-0.163-0.634-0.322
	c-0.191-0.157-0.349-0.369-0.473-0.64c-0.125-0.27-0.188-0.625-0.188-1.064v-4.981h-1.671v-1.013h1.671v-2.231h1.114v2.231h2.281
	V42.512z"/>
<path fill="#FFFFFF" stroke="#FFFFFF" stroke-miterlimit="10" d="M236.027,43.963c0-0.349-0.007-0.702-0.025-1.062
	c-0.015-0.362-0.029-0.829-0.04-1.401h1.096v1.469h0.035c0.078-0.216,0.192-0.42,0.339-0.618c0.146-0.197,0.322-0.375,0.531-0.533
	c0.209-0.157,0.45-0.283,0.726-0.378c0.274-0.097,0.588-0.145,0.938-0.145c0.314,0,0.59,0.036,0.826,0.103l-0.219,1.099
	c-0.146-0.057-0.362-0.085-0.643-0.085c-0.427,0-0.793,0.081-1.098,0.245c-0.304,0.163-0.557,0.371-0.759,0.625
	c-0.203,0.253-0.352,0.525-0.448,0.818c-0.096,0.294-0.144,0.576-0.144,0.844v4.458h-1.116V43.963z"/>
<path fill="#FFFFFF" stroke="#FFFFFF" stroke-width="0.25" stroke-miterlimit="10" d="M236.027,43.963
	c0-0.349-0.007-0.702-0.025-1.062c-0.015-0.362-0.029-0.829-0.04-1.401h1.096v1.469h0.035c0.078-0.216,0.192-0.42,0.339-0.618
	c0.146-0.197,0.322-0.375,0.531-0.533c0.209-0.157,0.45-0.283,0.726-0.378c0.274-0.097,0.588-0.145,0.938-0.145
	c0.314,0,0.59,0.036,0.826,0.103l-0.219,1.099c-0.146-0.057-0.362-0.085-0.643-0.085c-0.427,0-0.793,0.081-1.098,0.245
	c-0.304,0.163-0.557,0.371-0.759,0.625c-0.203,0.253-0.352,0.525-0.448,0.818c-0.096,0.294-0.144,0.576-0.144,0.844v4.458h-1.116
	V43.963z"/>
<path fill="#FFFFFF" stroke="#FFFFFF" stroke-miterlimit="10" d="M241.99,45.752c0.033,0.394,0.128,0.768,0.286,1.117
	c0.157,0.349,0.366,0.649,0.624,0.904c0.259,0.251,0.56,0.452,0.896,0.599c0.337,0.146,0.704,0.22,1.096,0.22
	c0.598,0,1.114-0.139,1.547-0.415c0.432-0.276,0.762-0.593,0.987-0.953l0.861,0.708c-0.473,0.598-0.993,1.024-1.563,1.286
	c-0.567,0.258-1.178,0.388-1.832,0.388c-0.584,0-1.129-0.105-1.627-0.313c-0.502-0.209-0.933-0.5-1.294-0.871
	c-0.358-0.37-0.645-0.809-0.852-1.316c-0.209-0.506-0.313-1.058-0.313-1.656c0-0.596,0.103-1.147,0.304-1.655
	c0.204-0.505,0.484-0.944,0.845-1.317c0.361-0.37,0.783-0.658,1.267-0.869c0.483-0.208,1.008-0.313,1.572-0.313
	c0.596,0,1.13,0.109,1.603,0.321c0.474,0.216,0.871,0.499,1.189,0.854c0.322,0.355,0.568,0.771,0.737,1.25
	c0.168,0.478,0.252,0.988,0.252,1.529v0.505H241.99z M247.359,44.843c0-0.754-0.226-1.366-0.675-1.833
	c-0.45-0.468-1.081-0.702-1.891-0.702c-0.363,0-0.711,0.073-1.048,0.213c-0.338,0.14-0.635,0.33-0.888,0.564
	c-0.253,0.236-0.454,0.508-0.608,0.812c-0.149,0.302-0.227,0.619-0.227,0.945H247.359z"/>
<path fill="#FFFFFF" stroke="#FFFFFF" stroke-width="0.25" stroke-miterlimit="10" d="M241.99,45.752
	c0.033,0.394,0.128,0.768,0.286,1.117c0.157,0.349,0.366,0.649,0.624,0.904c0.259,0.251,0.56,0.452,0.896,0.599
	c0.337,0.146,0.704,0.22,1.096,0.22c0.598,0,1.114-0.139,1.547-0.415c0.432-0.276,0.762-0.593,0.987-0.953l0.861,0.708
	c-0.473,0.598-0.993,1.024-1.563,1.286c-0.567,0.258-1.178,0.388-1.832,0.388c-0.584,0-1.129-0.105-1.627-0.313
	c-0.502-0.209-0.933-0.5-1.294-0.871c-0.358-0.37-0.645-0.809-0.852-1.316c-0.209-0.506-0.313-1.058-0.313-1.656
	c0-0.596,0.103-1.147,0.304-1.655c0.204-0.505,0.484-0.944,0.845-1.317c0.361-0.37,0.783-0.658,1.267-0.869
	c0.483-0.208,1.008-0.313,1.572-0.313c0.596,0,1.13,0.109,1.603,0.321c0.474,0.216,0.871,0.499,1.189,0.854
	c0.322,0.355,0.568,0.771,0.737,1.25c0.168,0.478,0.252,0.988,0.252,1.529v0.505H241.99z M247.359,44.843
	c0-0.754-0.226-1.366-0.675-1.833c-0.45-0.468-1.081-0.702-1.891-0.702c-0.363,0-0.711,0.073-1.048,0.213
	c-0.338,0.14-0.635,0.33-0.888,0.564c-0.253,0.236-0.454,0.508-0.608,0.812c-0.149,0.302-0.227,0.619-0.227,0.945H247.359z"/>
<path fill="#FFFFFF" stroke="#FFFFFF" stroke-miterlimit="10" d="M250.603,41.5h1.113v1.317h0.033
	c0.182-0.272,0.396-0.503,0.644-0.693c0.247-0.191,0.508-0.349,0.776-0.473c0.27-0.125,0.548-0.216,0.836-0.272
	c0.288-0.054,0.559-0.084,0.819-0.084c0.619,0,1.184,0.104,1.696,0.313c0.513,0.208,0.953,0.499,1.327,0.869
	c0.37,0.372,0.659,0.812,0.866,1.317c0.211,0.508,0.312,1.06,0.312,1.654c0,0.597-0.101,1.149-0.312,1.656
	c-0.207,0.505-0.496,0.947-0.866,1.316c-0.374,0.372-0.814,0.663-1.327,0.871c-0.513,0.208-1.077,0.313-1.696,0.313
	c-0.261,0-0.531-0.029-0.819-0.084c-0.288-0.056-0.566-0.146-0.836-0.272c-0.269-0.122-0.529-0.279-0.776-0.473
	c-0.248-0.189-0.462-0.42-0.644-0.692h-0.033v6.181h-1.113V41.5z M257.814,45.449c0-0.437-0.073-0.848-0.213-1.23
	c-0.139-0.383-0.341-0.715-0.601-0.997c-0.257-0.283-0.57-0.505-0.935-0.668c-0.366-0.163-0.781-0.246-1.242-0.246
	c-0.462,0-0.884,0.083-1.269,0.246c-0.381,0.163-0.714,0.385-0.995,0.668c-0.28,0.281-0.5,0.614-0.657,0.997
	c-0.157,0.382-0.238,0.793-0.238,1.23c0,0.439,0.081,0.85,0.238,1.233c0.157,0.382,0.377,0.714,0.657,0.996
	c0.281,0.283,0.614,0.505,0.995,0.668c0.385,0.163,0.807,0.246,1.269,0.246c0.461,0,0.876-0.083,1.242-0.246
	c0.364-0.163,0.678-0.385,0.935-0.668c0.26-0.281,0.462-0.614,0.601-0.996C257.741,46.299,257.814,45.888,257.814,45.449"/>
<path fill="#FFFFFF" stroke="#FFFFFF" stroke-width="0.25" stroke-miterlimit="10" d="M250.603,41.5h1.113v1.317h0.033
	c0.182-0.272,0.396-0.503,0.644-0.693c0.247-0.191,0.508-0.349,0.776-0.473c0.27-0.125,0.548-0.216,0.836-0.272
	c0.288-0.054,0.559-0.084,0.819-0.084c0.619,0,1.184,0.104,1.696,0.313c0.513,0.208,0.953,0.499,1.327,0.869
	c0.37,0.372,0.659,0.812,0.866,1.317c0.211,0.508,0.312,1.06,0.312,1.654c0,0.597-0.101,1.149-0.312,1.656
	c-0.207,0.505-0.496,0.947-0.866,1.316c-0.374,0.372-0.814,0.663-1.327,0.871c-0.513,0.208-1.077,0.313-1.696,0.313
	c-0.261,0-0.531-0.029-0.819-0.084c-0.288-0.056-0.566-0.146-0.836-0.272c-0.269-0.122-0.529-0.279-0.776-0.473
	c-0.248-0.189-0.462-0.42-0.644-0.692h-0.033v6.181h-1.113V41.5z M257.814,45.449c0-0.437-0.073-0.848-0.213-1.23
	c-0.139-0.383-0.341-0.715-0.601-0.997c-0.257-0.283-0.57-0.505-0.935-0.668c-0.366-0.163-0.781-0.246-1.242-0.246
	c-0.462,0-0.884,0.083-1.269,0.246c-0.381,0.163-0.714,0.385-0.995,0.668c-0.28,0.281-0.5,0.614-0.657,0.997
	c-0.157,0.382-0.238,0.793-0.238,1.23c0,0.439,0.081,0.85,0.238,1.233c0.157,0.382,0.377,0.714,0.657,0.996
	c0.281,0.283,0.614,0.505,0.995,0.668c0.385,0.163,0.807,0.246,1.269,0.246c0.461,0,0.876-0.083,1.242-0.246
	c0.364-0.163,0.678-0.385,0.935-0.668c0.26-0.281,0.462-0.614,0.601-0.996C257.741,46.299,257.814,45.888,257.814,45.449z"/>
<path fill="#FFFFFF" stroke="#FFFFFF" stroke-miterlimit="10" d="M261.037,43.963c0-0.349-0.009-0.702-0.025-1.062
	c-0.017-0.362-0.031-0.829-0.042-1.401h1.098v1.469h0.034c0.079-0.216,0.191-0.42,0.338-0.618c0.146-0.197,0.324-0.375,0.531-0.533
	c0.209-0.157,0.45-0.283,0.728-0.378c0.274-0.097,0.588-0.145,0.936-0.145c0.315,0,0.593,0.036,0.829,0.103l-0.221,1.099
	c-0.146-0.057-0.36-0.085-0.641-0.085c-0.429,0-0.796,0.081-1.098,0.245c-0.305,0.163-0.559,0.371-0.761,0.625
	c-0.203,0.253-0.352,0.525-0.447,0.818c-0.097,0.294-0.145,0.576-0.145,0.844v4.458h-1.114V43.963z"/>
<path fill="#FFFFFF" stroke="#FFFFFF" stroke-width="0.25" stroke-miterlimit="10" d="M261.037,43.963
	c0-0.349-0.009-0.702-0.025-1.062c-0.017-0.362-0.031-0.829-0.042-1.401h1.098v1.469h0.034c0.079-0.216,0.191-0.42,0.338-0.618
	c0.146-0.197,0.324-0.375,0.531-0.533c0.209-0.157,0.45-0.283,0.728-0.378c0.274-0.097,0.588-0.145,0.936-0.145
	c0.315,0,0.593,0.036,0.829,0.103l-0.221,1.099c-0.146-0.057-0.36-0.085-0.641-0.085c-0.429,0-0.796,0.081-1.098,0.245
	c-0.305,0.163-0.559,0.371-0.761,0.625c-0.203,0.253-0.352,0.525-0.447,0.818c-0.097,0.294-0.145,0.576-0.145,0.844v4.458h-1.114
	V43.963z"/>
<path fill="#FFFFFF" stroke="#FFFFFF" stroke-miterlimit="10" d="M268.146,38.459c0,0.236-0.084,0.432-0.251,0.583
	c-0.17,0.152-0.355,0.227-0.559,0.227s-0.389-0.075-0.557-0.227c-0.169-0.152-0.253-0.347-0.253-0.583s0.084-0.43,0.253-0.582
	c0.168-0.154,0.354-0.229,0.557-0.229s0.389,0.075,0.559,0.229C268.062,38.029,268.146,38.223,268.146,38.459 M267.896,49.401
	h-1.115v-7.902h1.115V49.401z"/>
<path fill="#FFFFFF" stroke="#FFFFFF" stroke-width="0.25" stroke-miterlimit="10" d="M268.146,38.459
	c0,0.236-0.084,0.432-0.251,0.583c-0.17,0.152-0.355,0.227-0.559,0.227s-0.389-0.075-0.557-0.227
	c-0.169-0.152-0.253-0.347-0.253-0.583s0.084-0.43,0.253-0.582c0.168-0.154,0.354-0.229,0.557-0.229s0.389,0.075,0.559,0.229
	C268.062,38.029,268.146,38.223,268.146,38.459z M267.896,49.401h-1.115v-7.902h1.115V49.401z"/>
<path fill="#FFFFFF" stroke="#FFFFFF" stroke-miterlimit="10" d="M274.767,43.373c-0.168-0.326-0.394-0.585-0.676-0.777
	c-0.28-0.191-0.625-0.287-1.029-0.287c-0.191,0-0.385,0.022-0.583,0.067c-0.196,0.046-0.374,0.115-0.531,0.21
	c-0.158,0.098-0.284,0.217-0.38,0.362c-0.097,0.148-0.145,0.329-0.145,0.541c0,0.373,0.13,0.643,0.389,0.812
	c0.259,0.168,0.65,0.315,1.165,0.439l1.133,0.27c0.552,0.124,1.008,0.373,1.376,0.75c0.364,0.379,0.548,0.849,0.548,1.409
	c0,0.43-0.086,0.798-0.262,1.106c-0.175,0.31-0.405,0.563-0.691,0.763c-0.287,0.195-0.617,0.34-0.989,0.43
	c-0.37,0.089-0.747,0.134-1.131,0.134c-0.608,0-1.174-0.114-1.696-0.344c-0.524-0.231-0.971-0.629-1.343-1.192l0.962-0.659
	c0.225,0.36,0.509,0.647,0.854,0.861c0.343,0.214,0.751,0.321,1.224,0.321c0.226,0,0.451-0.024,0.675-0.076
	c0.226-0.049,0.425-0.128,0.601-0.237c0.175-0.104,0.315-0.244,0.422-0.412c0.108-0.168,0.161-0.366,0.161-0.591
	c0-0.394-0.146-0.678-0.439-0.854c-0.294-0.175-0.647-0.312-1.063-0.413l-1.081-0.253c-0.135-0.034-0.318-0.09-0.549-0.168
	c-0.231-0.079-0.457-0.197-0.675-0.354c-0.22-0.159-0.408-0.363-0.566-0.618c-0.157-0.254-0.236-0.565-0.236-0.937
	c0-0.406,0.081-0.76,0.244-1.064c0.163-0.303,0.383-0.551,0.659-0.742c0.275-0.191,0.588-0.334,0.937-0.43
	c0.35-0.096,0.709-0.144,1.081-0.144c0.552,0,1.064,0.107,1.537,0.319c0.473,0.215,0.838,0.582,1.098,1.098L274.767,43.373z"/>
<path fill="#FFFFFF" stroke="#FFFFFF" stroke-width="0.25" stroke-miterlimit="10" d="M274.767,43.373
	c-0.168-0.326-0.394-0.585-0.676-0.777c-0.28-0.191-0.625-0.287-1.029-0.287c-0.191,0-0.385,0.022-0.583,0.067
	c-0.196,0.046-0.374,0.115-0.531,0.21c-0.158,0.098-0.284,0.217-0.38,0.362c-0.097,0.148-0.145,0.329-0.145,0.541
	c0,0.373,0.13,0.643,0.389,0.812c0.259,0.168,0.65,0.315,1.165,0.439l1.133,0.27c0.552,0.124,1.008,0.373,1.376,0.75
	c0.364,0.379,0.548,0.849,0.548,1.409c0,0.43-0.086,0.798-0.262,1.106c-0.175,0.31-0.405,0.563-0.691,0.763
	c-0.287,0.195-0.617,0.34-0.989,0.43c-0.37,0.089-0.747,0.134-1.131,0.134c-0.608,0-1.174-0.114-1.696-0.344
	c-0.524-0.231-0.971-0.629-1.343-1.192l0.962-0.659c0.225,0.36,0.509,0.647,0.854,0.861c0.343,0.214,0.751,0.321,1.224,0.321
	c0.226,0,0.451-0.024,0.675-0.076c0.226-0.049,0.425-0.128,0.601-0.237c0.175-0.104,0.315-0.244,0.422-0.412
	c0.108-0.168,0.161-0.366,0.161-0.591c0-0.394-0.146-0.678-0.439-0.854c-0.294-0.175-0.647-0.312-1.063-0.413l-1.081-0.253
	c-0.135-0.034-0.318-0.09-0.549-0.168c-0.231-0.079-0.457-0.197-0.675-0.354c-0.22-0.159-0.408-0.363-0.566-0.618
	c-0.157-0.254-0.236-0.565-0.236-0.937c0-0.406,0.081-0.76,0.244-1.064c0.163-0.303,0.383-0.551,0.659-0.742
	c0.275-0.191,0.588-0.334,0.937-0.43c0.35-0.096,0.709-0.144,1.081-0.144c0.552,0,1.064,0.107,1.537,0.319
	c0.473,0.215,0.838,0.582,1.098,1.098L274.767,43.373z"/>
<path fill="#FFFFFF" stroke="#FFFFFF" stroke-miterlimit="10" d="M278.549,45.752c0.035,0.394,0.13,0.768,0.288,1.117
	c0.157,0.349,0.366,0.649,0.625,0.904c0.258,0.251,0.557,0.452,0.896,0.599c0.337,0.146,0.704,0.22,1.098,0.22
	c0.596,0,1.11-0.139,1.545-0.415c0.432-0.276,0.762-0.593,0.987-0.953l0.861,0.708c-0.473,0.598-0.993,1.024-1.562,1.286
	c-0.569,0.258-1.18,0.388-1.832,0.388c-0.586,0-1.129-0.105-1.631-0.313c-0.5-0.209-0.931-0.5-1.292-0.871
	c-0.36-0.37-0.645-0.809-0.852-1.316c-0.211-0.506-0.313-1.058-0.313-1.656c0-0.596,0.101-1.147,0.304-1.655
	c0.204-0.505,0.484-0.944,0.845-1.317c0.359-0.37,0.783-0.658,1.267-0.869c0.483-0.208,1.008-0.313,1.57-0.313
	c0.598,0,1.132,0.109,1.605,0.321c0.473,0.216,0.868,0.499,1.19,0.854c0.32,0.355,0.564,0.771,0.733,1.25
	c0.17,0.478,0.253,0.988,0.253,1.529v0.505H278.549z M283.92,44.843c0-0.754-0.226-1.366-0.675-1.833
	c-0.45-0.468-1.083-0.702-1.893-0.702c-0.359,0-0.709,0.073-1.046,0.213c-0.338,0.14-0.635,0.33-0.888,0.564
	c-0.253,0.236-0.456,0.508-0.608,0.812c-0.151,0.302-0.227,0.619-0.227,0.945H283.92z"/>
<path fill="#FFFFFF" stroke="#FFFFFF" stroke-width="0.25" stroke-miterlimit="10" d="M278.549,45.752
	c0.035,0.394,0.13,0.768,0.288,1.117c0.157,0.349,0.366,0.649,0.625,0.904c0.258,0.251,0.557,0.452,0.896,0.599
	c0.337,0.146,0.704,0.22,1.098,0.22c0.596,0,1.11-0.139,1.545-0.415c0.432-0.276,0.762-0.593,0.987-0.953l0.861,0.708
	c-0.473,0.598-0.993,1.024-1.562,1.286c-0.569,0.258-1.18,0.388-1.832,0.388c-0.586,0-1.129-0.105-1.631-0.313
	c-0.5-0.209-0.931-0.5-1.292-0.871c-0.36-0.37-0.645-0.809-0.852-1.316c-0.211-0.506-0.313-1.058-0.313-1.656
	c0-0.596,0.101-1.147,0.304-1.655c0.204-0.505,0.484-0.944,0.845-1.317c0.359-0.37,0.783-0.658,1.267-0.869
	c0.483-0.208,1.008-0.313,1.57-0.313c0.598,0,1.132,0.109,1.605,0.321c0.473,0.216,0.868,0.499,1.19,0.854
	c0.32,0.355,0.564,0.771,0.733,1.25c0.17,0.478,0.253,0.988,0.253,1.529v0.505H278.549z M283.92,44.843
	c0-0.754-0.226-1.366-0.675-1.833c-0.45-0.468-1.083-0.702-1.893-0.702c-0.359,0-0.709,0.073-1.046,0.213
	c-0.338,0.14-0.635,0.33-0.888,0.564c-0.253,0.236-0.456,0.508-0.608,0.812c-0.151,0.302-0.227,0.619-0.227,0.945H283.92z"/>
</svg>
