<?xml version="1.0" encoding="utf-8"?>
<!-- Generator: Adobe Illustrator 25.4.1, SVG Export Plug-In . SVG Version: 6.00 Build 0)  -->
<svg version="1.1" xmlns="http://www.w3.org/2000/svg" xmlns:xlink="http://www.w3.org/1999/xlink" x="0px" y="0px"
	 viewBox="0 0 330 58.5" style="enable-background:new 0 0 330 58.5;" xml:space="preserve">
<style type="text/css">
	.st0{display:none;}
	.st1{display:inline;fill:#BC2B2B;stroke:#FFFFFF;stroke-width:1.35;stroke-miterlimit:10;}
	.st2{fill:#FFFFFF;stroke:#FFFFFF;stroke-miterlimit:10;}
	.st3{fill:#FFFFFF;stroke:#FFFFFF;stroke-width:1.35;stroke-miterlimit:10;}
	.st4{fill:#FFFFFF;}
	.st5{display:inline;fill:#FFFFFF;stroke:#FFFFFF;stroke-miterlimit:10;}
	.st6{display:inline;fill:#FFFFFF;stroke:#FFFFFF;stroke-width:1.35;stroke-miterlimit:10;}
	.st7{display:inline;}
</style>
<g id="Calque_2" class="st0">
	<path class="st1" d="M0,0.5v60.6h331.9V0.5H0z"/>
</g>
<g id="Calque_1_-_copie">
	<polygon class="st2" points="10.9,23 8.6,23 2.9,8.9 5.3,8.9 9.8,20.8 9.8,20.8 14.3,8.9 16.6,8.9 	"/>
	<polygon class="st3" points="10.9,23 8.6,23 2.9,8.9 5.3,8.9 9.8,20.8 9.8,20.8 14.3,8.9 16.6,8.9 	"/>
	<path class="st2" d="M38.2,16c0,1.1-0.2,2-0.6,2.9c-0.4,0.9-0.9,1.7-1.5,2.3c-0.7,0.7-1.4,1.2-2.4,1.5c-0.9,0.4-1.9,0.6-3,0.6
		c-1.1,0-2.1-0.2-3-0.6c-0.9-0.4-1.7-0.9-2.4-1.5c-0.7-0.7-1.2-1.4-1.5-2.3C23.4,18,23.2,17,23.2,16s0.2-2,0.6-2.9
		c0.4-0.9,0.9-1.7,1.5-2.3c0.7-0.7,1.4-1.2,2.4-1.5c0.9-0.4,1.9-0.6,3-0.6c1.1,0,2.1,0.2,3,0.6c0.9,0.4,1.7,0.9,2.4,1.5
		c0.7,0.7,1.2,1.4,1.5,2.3C38,13.9,38.2,14.9,38.2,16 M36,16c0-0.8-0.1-1.5-0.4-2.2c-0.2-0.7-0.6-1.3-1.1-1.8
		c-0.5-0.5-1-0.9-1.7-1.2c-0.6-0.3-1.4-0.4-2.2-0.4c-0.8,0-1.6,0.1-2.2,0.4c-0.6,0.3-1.2,0.7-1.7,1.2c-0.5,0.5-0.8,1.1-1.1,1.8
		c-0.2,0.7-0.4,1.4-0.4,2.2c0,0.8,0.1,1.5,0.4,2.2c0.3,0.7,0.6,1.3,1.1,1.8c0.5,0.5,1,0.9,1.7,1.2c0.7,0.3,1.4,0.4,2.2,0.4
		c0.8,0,1.6-0.1,2.2-0.4c0.6-0.3,1.2-0.7,1.7-1.2c0.5-0.5,0.8-1.1,1.1-1.8C35.9,17.5,36,16.8,36,16"/>
	<path class="st3" d="M38.2,16c0,1.1-0.2,2-0.6,2.9c-0.4,0.9-0.9,1.7-1.5,2.3c-0.7,0.7-1.4,1.2-2.4,1.5c-0.9,0.4-1.9,0.6-3,0.6
		c-1.1,0-2.1-0.2-3-0.6c-0.9-0.4-1.7-0.9-2.4-1.5c-0.7-0.7-1.2-1.4-1.5-2.3C23.4,18,23.2,17,23.2,16s0.2-2,0.6-2.9
		c0.4-0.9,0.9-1.7,1.5-2.3c0.7-0.7,1.4-1.2,2.4-1.5c0.9-0.4,1.9-0.6,3-0.6c1.1,0,2.1,0.2,3,0.6c0.9,0.4,1.7,0.9,2.4,1.5
		c0.7,0.7,1.2,1.4,1.5,2.3C38,13.9,38.2,14.9,38.2,16z M36,16c0-0.8-0.1-1.5-0.4-2.2c-0.2-0.7-0.6-1.3-1.1-1.8
		c-0.5-0.5-1-0.9-1.7-1.2c-0.6-0.3-1.4-0.4-2.2-0.4c-0.8,0-1.6,0.1-2.2,0.4c-0.6,0.3-1.2,0.7-1.7,1.2c-0.5,0.5-0.8,1.1-1.1,1.8
		c-0.2,0.7-0.4,1.4-0.4,2.2c0,0.8,0.1,1.5,0.4,2.2c0.3,0.7,0.6,1.3,1.1,1.8c0.5,0.5,1,0.9,1.7,1.2c0.7,0.3,1.4,0.4,2.2,0.4
		c0.8,0,1.6-0.1,2.2-0.4c0.6-0.3,1.2-0.7,1.7-1.2c0.5-0.5,0.8-1.1,1.1-1.8C35.9,17.5,36,16.8,36,16z"/>
	<path class="st2" d="M53.8,10.7h-4.1V19c0,0.5,0.1,0.9,0.2,1.3c0.1,0.3,0.2,0.6,0.4,0.8c0.2,0.2,0.4,0.3,0.6,0.4
		c0.2,0.1,0.5,0.1,0.8,0.1c0.3,0,0.7-0.1,1.1-0.1c0.4-0.1,0.7-0.2,1-0.4l0.1,1.8c-0.7,0.3-1.6,0.5-2.7,0.5c-0.4,0-0.8-0.1-1.2-0.1
		c-0.4-0.1-0.8-0.3-1.1-0.6c-0.3-0.3-0.6-0.7-0.8-1.1c-0.2-0.5-0.3-1.1-0.3-1.9v-8.9h-3V8.9h3V5h2v4h4.1L53.8,10.7L53.8,10.7z"/>
	<path class="st3" d="M53.8,10.7h-4.1V19c0,0.5,0.1,0.9,0.2,1.3c0.1,0.3,0.2,0.6,0.4,0.8c0.2,0.2,0.4,0.3,0.6,0.4
		c0.2,0.1,0.5,0.1,0.8,0.1c0.3,0,0.7-0.1,1.1-0.1c0.4-0.1,0.7-0.2,1-0.4l0.1,1.8c-0.7,0.3-1.6,0.5-2.7,0.5c-0.4,0-0.8-0.1-1.2-0.1
		c-0.4-0.1-0.8-0.3-1.1-0.6c-0.3-0.3-0.6-0.7-0.8-1.1c-0.2-0.5-0.3-1.1-0.3-1.9v-8.9h-3V8.9h3V5h2v4h4.1L53.8,10.7L53.8,10.7z"/>
	<path class="st2" d="M61.5,13.3c0-0.6,0-1.2,0-1.9c0-0.6-0.1-1.5-0.1-2.5h2v2.6h0.1c0.1-0.4,0.3-0.7,0.6-1.1
		c0.3-0.4,0.6-0.7,0.9-0.9c0.4-0.3,0.8-0.5,1.3-0.7c0.5-0.2,1-0.3,1.7-0.3c0.6,0,1.1,0.1,1.5,0.2l-0.4,2c-0.3-0.1-0.6-0.1-1.1-0.1
		c-0.8,0-1.4,0.1-2,0.4c-0.5,0.3-1,0.7-1.4,1.1c-0.4,0.5-0.6,0.9-0.8,1.5c-0.2,0.5-0.3,1-0.3,1.5V23h-2L61.5,13.3L61.5,13.3z"/>
	<path class="st3" d="M61.5,13.3c0-0.6,0-1.2,0-1.9c0-0.6-0.1-1.5-0.1-2.5h2v2.6h0.1c0.1-0.4,0.3-0.7,0.6-1.1
		c0.3-0.4,0.6-0.7,0.9-0.9c0.4-0.3,0.8-0.5,1.3-0.7c0.5-0.2,1-0.3,1.7-0.3c0.6,0,1.1,0.1,1.5,0.2l-0.4,2c-0.3-0.1-0.6-0.1-1.1-0.1
		c-0.8,0-1.4,0.1-2,0.4c-0.5,0.3-1,0.7-1.4,1.1c-0.4,0.5-0.6,0.9-0.8,1.5c-0.2,0.5-0.3,1-0.3,1.5V23h-2L61.5,13.3L61.5,13.3z"/>
	<path class="st2" d="M76.9,16.5c0.1,0.7,0.2,1.4,0.5,2c0.3,0.6,0.6,1.2,1.1,1.6c0.5,0.5,1,0.8,1.6,1.1c0.6,0.3,1.3,0.4,2,0.4
		c1.1,0,2-0.2,2.7-0.7c0.8-0.5,1.4-1.1,1.8-1.7l1.5,1.3c-0.8,1.1-1.8,1.8-2.8,2.3c-1,0.5-2.1,0.7-3.3,0.7c-1,0-2-0.2-2.9-0.6
		c-0.9-0.4-1.7-0.9-2.3-1.5c-0.6-0.7-1.1-1.4-1.5-2.3C75,18,74.8,17,74.8,16c0-1.1,0.2-2,0.5-2.9c0.4-0.9,0.9-1.7,1.5-2.3
		c0.6-0.7,1.4-1.2,2.3-1.5c0.9-0.4,1.8-0.6,2.8-0.6c1.1,0,2,0.2,2.9,0.6c0.8,0.4,1.5,0.9,2.1,1.5c0.6,0.6,1,1.4,1.3,2.2
		c0.3,0.9,0.4,1.8,0.4,2.7v0.9L76.9,16.5L76.9,16.5z M86.5,14.9c0-1.3-0.4-2.4-1.2-3.3c-0.8-0.8-1.9-1.2-3.4-1.2
		c-0.6,0-1.3,0.1-1.9,0.4c-0.6,0.2-1.1,0.6-1.6,1c-0.4,0.4-0.8,0.9-1.1,1.4c-0.3,0.5-0.4,1.1-0.4,1.7C77,14.9,86.5,14.9,86.5,14.9z"
		/>
	<path class="st3" d="M76.9,16.5c0.1,0.7,0.2,1.4,0.5,2c0.3,0.6,0.6,1.2,1.1,1.6c0.5,0.5,1,0.8,1.6,1.1c0.6,0.3,1.3,0.4,2,0.4
		c1.1,0,2-0.2,2.7-0.7c0.8-0.5,1.4-1.1,1.8-1.7l1.5,1.3c-0.8,1.1-1.8,1.8-2.8,2.3c-1,0.5-2.1,0.7-3.3,0.7c-1,0-2-0.2-2.9-0.6
		c-0.9-0.4-1.7-0.9-2.3-1.5c-0.6-0.7-1.1-1.4-1.5-2.3C75,18,74.8,17,74.8,16c0-1.1,0.2-2,0.5-2.9c0.4-0.9,0.9-1.7,1.5-2.3
		c0.6-0.7,1.4-1.2,2.3-1.5c0.9-0.4,1.8-0.6,2.8-0.6c1.1,0,2,0.2,2.9,0.6c0.8,0.4,1.5,0.9,2.1,1.5c0.6,0.6,1,1.4,1.3,2.2
		c0.3,0.9,0.4,1.8,0.4,2.7v0.9L76.9,16.5L76.9,16.5z M86.5,14.9c0-1.3-0.4-2.4-1.2-3.3c-0.8-0.8-1.9-1.2-3.4-1.2
		c-0.6,0-1.3,0.1-1.9,0.4c-0.6,0.2-1.1,0.6-1.6,1c-0.4,0.4-0.8,0.9-1.1,1.4c-0.3,0.5-0.4,1.1-0.4,1.7C77,14.9,86.5,14.9,86.5,14.9z"
		/>
	<path class="st2" d="M99.9,3.5c0,0.4-0.2,0.8-0.4,1c-0.3,0.3-0.6,0.4-1,0.4c-0.4,0-0.7-0.1-1-0.4c-0.3-0.3-0.5-0.6-0.5-1
		c0-0.4,0.2-0.8,0.5-1c0.3-0.3,0.6-0.4,1-0.4s0.7,0.1,1,0.4C99.8,2.8,99.9,3.1,99.9,3.5 M99.5,23h-2V8.9h2V23z"/>
	<path class="st3" d="M99.9,3.5c0,0.4-0.2,0.8-0.4,1c-0.3,0.3-0.6,0.4-1,0.4c-0.4,0-0.7-0.1-1-0.4c-0.3-0.3-0.5-0.6-0.5-1
		c0-0.4,0.2-0.8,0.5-1c0.3-0.3,0.6-0.4,1-0.4s0.7,0.1,1,0.4C99.8,2.8,99.9,3.1,99.9,3.5z M99.5,23h-2V8.9h2V23z"/>
	<path class="st2" d="M109.1,12.1c0-0.5,0-1,0-1.6s-0.1-1-0.1-1.6h2.1v2.1h0.1c0.5-0.8,1.1-1.4,2-1.9c0.9-0.4,1.7-0.6,2.5-0.6
		c0.4,0,0.8,0,1.2,0.1c0.4,0.1,0.8,0.2,1.2,0.4s0.8,0.5,1.1,0.9c0.4,0.4,0.6,0.9,0.9,1.5c0.4-0.9,1-1.6,1.9-2.1
		c0.9-0.5,1.8-0.8,2.7-0.8c1.8,0,3.1,0.5,4,1.4c0.9,1,1.3,2.3,1.3,4.1V23h-2v-8.2c0-1.4-0.2-2.5-0.8-3.3c-0.5-0.8-1.4-1.1-2.8-1.1
		c-0.7,0-1.4,0.1-1.9,0.4c-0.5,0.3-0.9,0.7-1.2,1.2c-0.3,0.5-0.5,1-0.7,1.6c-0.1,0.6-0.2,1.2-0.2,1.9V23h-2v-8.2
		c0-1.4-0.2-2.5-0.8-3.3c-0.5-0.8-1.4-1.1-2.8-1.1c-0.1,0-0.4,0-0.8,0.1c-0.4,0.1-0.9,0.3-1.3,0.7c-0.5,0.4-0.9,0.9-1.2,1.6
		c-0.4,0.7-0.6,1.7-0.6,3V23h-2L109.1,12.1L109.1,12.1z"/>
	<path class="st3" d="M109.1,12.1c0-0.5,0-1,0-1.6s-0.1-1-0.1-1.6h2.1v2.1h0.1c0.5-0.8,1.1-1.4,2-1.9c0.9-0.4,1.7-0.6,2.5-0.6
		c0.4,0,0.8,0,1.2,0.1c0.4,0.1,0.8,0.2,1.2,0.4s0.8,0.5,1.1,0.9c0.4,0.4,0.6,0.9,0.9,1.5c0.4-0.9,1-1.6,1.9-2.1
		c0.9-0.5,1.8-0.8,2.7-0.8c1.8,0,3.1,0.5,4,1.4c0.9,1,1.3,2.3,1.3,4.1V23h-2v-8.2c0-1.4-0.2-2.5-0.8-3.3c-0.5-0.8-1.4-1.1-2.8-1.1
		c-0.7,0-1.4,0.1-1.9,0.4c-0.5,0.3-0.9,0.7-1.2,1.2c-0.3,0.5-0.5,1-0.7,1.6c-0.1,0.6-0.2,1.2-0.2,1.9V23h-2v-8.2
		c0-1.4-0.2-2.5-0.8-3.3c-0.5-0.8-1.4-1.1-2.8-1.1c-0.1,0-0.4,0-0.8,0.1c-0.4,0.1-0.9,0.3-1.3,0.7c-0.5,0.4-0.9,0.9-1.2,1.6
		c-0.4,0.7-0.6,1.7-0.6,3V23h-2L109.1,12.1L109.1,12.1z"/>
	<path class="st2" d="M139.4,12.1c0-0.5,0-1,0-1.6s-0.1-1-0.1-1.6h2.1v2.1h0.1c0.5-0.8,1.1-1.4,2-1.9s1.7-0.6,2.5-0.6
		c0.4,0,0.8,0,1.2,0.1c0.4,0.1,0.8,0.2,1.2,0.4s0.8,0.5,1.1,0.9c0.3,0.4,0.6,0.9,0.9,1.5c0.4-0.9,1-1.6,1.9-2.1
		c0.9-0.5,1.8-0.8,2.7-0.8c1.8,0,3.1,0.5,4,1.4c0.9,1,1.3,2.3,1.3,4.1V23h-2v-8.2c0-1.4-0.2-2.5-0.7-3.3c-0.5-0.8-1.4-1.1-2.8-1.1
		c-0.7,0-1.4,0.1-1.9,0.4c-0.5,0.3-0.9,0.7-1.2,1.2c-0.3,0.5-0.5,1-0.7,1.6c-0.1,0.6-0.2,1.2-0.2,1.9V23h-2v-8.2
		c0-1.4-0.3-2.5-0.8-3.3c-0.5-0.8-1.4-1.1-2.8-1.1c-0.1,0-0.4,0-0.8,0.1c-0.4,0.1-0.9,0.3-1.3,0.7c-0.5,0.4-0.9,0.9-1.2,1.6
		c-0.4,0.7-0.6,1.7-0.6,3V23h-2L139.4,12.1L139.4,12.1z"/>
	<path class="st3" d="M139.4,12.1c0-0.5,0-1,0-1.6s-0.1-1-0.1-1.6h2.1v2.1h0.1c0.5-0.8,1.1-1.4,2-1.9s1.7-0.6,2.5-0.6
		c0.4,0,0.8,0,1.2,0.1c0.4,0.1,0.8,0.2,1.2,0.4s0.8,0.5,1.1,0.9c0.3,0.4,0.6,0.9,0.9,1.5c0.4-0.9,1-1.6,1.9-2.1
		c0.9-0.5,1.8-0.8,2.7-0.8c1.8,0,3.1,0.5,4,1.4c0.9,1,1.3,2.3,1.3,4.1V23h-2v-8.2c0-1.4-0.2-2.5-0.7-3.3c-0.5-0.8-1.4-1.1-2.8-1.1
		c-0.7,0-1.4,0.1-1.9,0.4c-0.5,0.3-0.9,0.7-1.2,1.2c-0.3,0.5-0.5,1-0.7,1.6c-0.1,0.6-0.2,1.2-0.2,1.9V23h-2v-8.2
		c0-1.4-0.3-2.5-0.8-3.3c-0.5-0.8-1.4-1.1-2.8-1.1c-0.1,0-0.4,0-0.8,0.1c-0.4,0.1-0.9,0.3-1.3,0.7c-0.5,0.4-0.9,0.9-1.2,1.6
		c-0.4,0.7-0.6,1.7-0.6,3V23h-2L139.4,12.1L139.4,12.1z"/>
	<path class="st2" d="M184,16c0,1.1-0.2,2-0.6,2.9c-0.4,0.9-0.9,1.7-1.5,2.3c-0.7,0.7-1.4,1.2-2.4,1.5c-0.9,0.4-1.9,0.6-3,0.6
		c-1.1,0-2.1-0.2-3-0.6c-0.9-0.4-1.7-0.9-2.4-1.5c-0.7-0.7-1.2-1.4-1.5-2.3c-0.4-0.9-0.6-1.9-0.6-2.9s0.2-2,0.6-2.9
		c0.4-0.9,0.9-1.7,1.5-2.3c0.7-0.7,1.4-1.2,2.4-1.5c0.9-0.4,1.9-0.6,3-0.6c1.1,0,2.1,0.2,3,0.6c0.9,0.4,1.7,0.9,2.4,1.5
		c0.7,0.7,1.2,1.4,1.5,2.3C183.8,13.9,184,14.9,184,16 M181.9,16c0-0.8-0.1-1.5-0.4-2.2c-0.3-0.7-0.6-1.3-1.1-1.8
		c-0.5-0.5-1-0.9-1.7-1.2c-0.6-0.3-1.4-0.4-2.2-0.4c-0.8,0-1.6,0.1-2.2,0.4c-0.6,0.3-1.2,0.7-1.6,1.2c-0.4,0.5-0.8,1.1-1.1,1.8
		c-0.3,0.7-0.4,1.4-0.4,2.2c0,0.8,0.1,1.5,0.4,2.2c0.2,0.7,0.6,1.3,1.1,1.8c0.4,0.5,1,0.9,1.6,1.2c0.6,0.3,1.4,0.4,2.2,0.4
		c0.8,0,1.6-0.1,2.2-0.4c0.6-0.3,1.2-0.7,1.7-1.2c0.5-0.5,0.8-1.1,1.1-1.8C181.7,17.5,181.9,16.8,181.9,16"/>
	<path class="st3" d="M184,16c0,1.1-0.2,2-0.6,2.9c-0.4,0.9-0.9,1.7-1.5,2.3c-0.7,0.7-1.4,1.2-2.4,1.5c-0.9,0.4-1.9,0.6-3,0.6
		c-1.1,0-2.1-0.2-3-0.6c-0.9-0.4-1.7-0.9-2.4-1.5c-0.7-0.7-1.2-1.4-1.5-2.3c-0.4-0.9-0.6-1.9-0.6-2.9s0.2-2,0.6-2.9
		c0.4-0.9,0.9-1.7,1.5-2.3c0.7-0.7,1.4-1.2,2.4-1.5c0.9-0.4,1.9-0.6,3-0.6c1.1,0,2.1,0.2,3,0.6c0.9,0.4,1.7,0.9,2.4,1.5
		c0.7,0.7,1.2,1.4,1.5,2.3C183.8,13.9,184,14.9,184,16z M181.9,16c0-0.8-0.1-1.5-0.4-2.2c-0.3-0.7-0.6-1.3-1.1-1.8
		c-0.5-0.5-1-0.9-1.7-1.2c-0.6-0.3-1.4-0.4-2.2-0.4c-0.8,0-1.6,0.1-2.2,0.4c-0.6,0.3-1.2,0.7-1.6,1.2c-0.4,0.5-0.8,1.1-1.1,1.8
		c-0.3,0.7-0.4,1.4-0.4,2.2c0,0.8,0.1,1.5,0.4,2.2c0.2,0.7,0.6,1.3,1.1,1.8c0.4,0.5,1,0.9,1.6,1.2c0.6,0.3,1.4,0.4,2.2,0.4
		c0.8,0,1.6-0.1,2.2-0.4c0.6-0.3,1.2-0.7,1.7-1.2c0.5-0.5,0.8-1.1,1.1-1.8C181.7,17.5,181.9,16.8,181.9,16z"/>
	<path class="st2" d="M192.4,8.9h2v2.3h0.1c0.3-0.5,0.7-0.9,1.1-1.2c0.4-0.3,0.9-0.6,1.4-0.8c0.5-0.2,1-0.4,1.5-0.5
		c0.5-0.1,1-0.1,1.5-0.1c1.1,0,2.1,0.2,3,0.6c0.9,0.4,1.7,0.9,2.4,1.5c0.7,0.7,1.2,1.4,1.5,2.3c0.4,0.9,0.6,1.9,0.6,2.9
		s-0.2,2-0.6,2.9c-0.4,0.9-0.9,1.7-1.5,2.3c-0.7,0.7-1.4,1.2-2.4,1.5c-0.9,0.4-1.9,0.6-3,0.6c-0.5,0-0.9-0.1-1.5-0.2
		c-0.5-0.1-1-0.3-1.5-0.5c-0.5-0.2-0.9-0.5-1.4-0.8c-0.4-0.3-0.8-0.8-1.1-1.2h-0.1v11h-2V8.9z M205.2,16c0-0.8-0.1-1.5-0.4-2.2
		c-0.3-0.7-0.6-1.3-1.1-1.8c-0.5-0.5-1-0.9-1.7-1.2c-0.7-0.3-1.4-0.4-2.2-0.4c-0.8,0-1.6,0.1-2.3,0.4c-0.7,0.3-1.3,0.7-1.8,1.2
		s-0.9,1.1-1.2,1.8c-0.3,0.7-0.4,1.4-0.4,2.2c0,0.8,0.1,1.5,0.4,2.2c0.3,0.7,0.7,1.3,1.2,1.8c0.5,0.5,1.1,0.9,1.8,1.2
		c0.7,0.3,1.4,0.4,2.3,0.4c0.8,0,1.6-0.1,2.2-0.4c0.6-0.3,1.2-0.7,1.7-1.2c0.5-0.5,0.8-1.1,1.1-1.8C205.1,17.5,205.2,16.8,205.2,16"
		/>
	<path class="st3" d="M192.4,8.9h2v2.3h0.1c0.3-0.5,0.7-0.9,1.1-1.2c0.4-0.3,0.9-0.6,1.4-0.8c0.5-0.2,1-0.4,1.5-0.5
		c0.5-0.1,1-0.1,1.5-0.1c1.1,0,2.1,0.2,3,0.6c0.9,0.4,1.7,0.9,2.4,1.5c0.7,0.7,1.2,1.4,1.5,2.3c0.4,0.9,0.6,1.9,0.6,2.9
		s-0.2,2-0.6,2.9c-0.4,0.9-0.9,1.7-1.5,2.3c-0.7,0.7-1.4,1.2-2.4,1.5c-0.9,0.4-1.9,0.6-3,0.6c-0.5,0-0.9-0.1-1.5-0.2
		c-0.5-0.1-1-0.3-1.5-0.5c-0.5-0.2-0.9-0.5-1.4-0.8c-0.4-0.3-0.8-0.8-1.1-1.2h-0.1v11h-2V8.9z M205.2,16c0-0.8-0.1-1.5-0.4-2.2
		c-0.3-0.7-0.6-1.3-1.1-1.8c-0.5-0.5-1-0.9-1.7-1.2c-0.7-0.3-1.4-0.4-2.2-0.4c-0.8,0-1.6,0.1-2.3,0.4c-0.7,0.3-1.3,0.7-1.8,1.2
		s-0.9,1.1-1.2,1.8c-0.3,0.7-0.4,1.4-0.4,2.2c0,0.8,0.1,1.5,0.4,2.2c0.3,0.7,0.7,1.3,1.2,1.8c0.5,0.5,1.1,0.9,1.8,1.2
		c0.7,0.3,1.4,0.4,2.3,0.4c0.8,0,1.6-0.1,2.2-0.4c0.6-0.3,1.2-0.7,1.7-1.2c0.5-0.5,0.8-1.1,1.1-1.8C205.1,17.5,205.2,16.8,205.2,16z
		"/>
	<path class="st2" d="M215.8,13.3c0-0.6,0-1.2,0-1.9c0-0.6-0.1-1.5-0.1-2.5h2v2.6h0.1c0.1-0.4,0.3-0.7,0.6-1.1
		c0.3-0.4,0.6-0.7,0.9-0.9c0.4-0.3,0.8-0.5,1.3-0.7c0.5-0.2,1-0.3,1.7-0.3c0.6,0,1.1,0.1,1.5,0.2l-0.4,2c-0.3-0.1-0.6-0.1-1.1-0.1
		c-0.8,0-1.4,0.1-2,0.4c-0.5,0.3-1,0.7-1.4,1.1c-0.4,0.5-0.6,0.9-0.8,1.5c-0.2,0.5-0.3,1-0.3,1.5V23h-2V13.3z"/>
	<path class="st3" d="M215.8,13.3c0-0.6,0-1.2,0-1.9c0-0.6-0.1-1.5-0.1-2.5h2v2.6h0.1c0.1-0.4,0.3-0.7,0.6-1.1
		c0.3-0.4,0.6-0.7,0.9-0.9c0.4-0.3,0.8-0.5,1.3-0.7c0.5-0.2,1-0.3,1.7-0.3c0.6,0,1.1,0.1,1.5,0.2l-0.4,2c-0.3-0.1-0.6-0.1-1.1-0.1
		c-0.8,0-1.4,0.1-2,0.4c-0.5,0.3-1,0.7-1.4,1.1c-0.4,0.5-0.6,0.9-0.8,1.5c-0.2,0.5-0.3,1-0.3,1.5V23h-2V13.3z"/>
	<path class="st2" d="M244,16c0,1.1-0.2,2-0.6,2.9c-0.4,0.9-0.9,1.7-1.5,2.3c-0.7,0.7-1.4,1.2-2.4,1.5c-0.9,0.4-1.9,0.6-3,0.6
		c-1.1,0-2.1-0.2-3-0.6c-0.9-0.4-1.7-0.9-2.4-1.5c-0.7-0.7-1.2-1.4-1.5-2.3c-0.4-0.9-0.6-1.9-0.6-2.9s0.2-2,0.6-2.9
		c0.4-0.9,0.9-1.7,1.5-2.3c0.7-0.7,1.4-1.2,2.4-1.5c0.9-0.4,1.9-0.6,3-0.6c1.1,0,2.1,0.2,3,0.6c0.9,0.4,1.7,0.9,2.4,1.5
		c0.7,0.7,1.2,1.4,1.5,2.3C243.8,13.9,244,14.9,244,16 M241.8,16c0-0.8-0.1-1.5-0.4-2.2c-0.3-0.7-0.6-1.3-1.1-1.8
		c-0.5-0.5-1-0.9-1.7-1.2c-0.6-0.3-1.4-0.4-2.2-0.4c-0.8,0-1.6,0.1-2.2,0.4c-0.6,0.3-1.2,0.7-1.6,1.2c-0.4,0.5-0.8,1.1-1.1,1.8
		c-0.3,0.7-0.4,1.4-0.4,2.2c0,0.8,0.1,1.5,0.4,2.2c0.2,0.7,0.6,1.3,1.1,1.8c0.4,0.5,1,0.9,1.6,1.2c0.6,0.3,1.4,0.4,2.2,0.4
		c0.8,0,1.6-0.1,2.2-0.4c0.6-0.3,1.2-0.7,1.7-1.2c0.5-0.5,0.8-1.1,1.1-1.8C241.7,17.5,241.8,16.8,241.8,16"/>
	<path class="st3" d="M244,16c0,1.1-0.2,2-0.6,2.9c-0.4,0.9-0.9,1.7-1.5,2.3c-0.7,0.7-1.4,1.2-2.4,1.5c-0.9,0.4-1.9,0.6-3,0.6
		c-1.1,0-2.1-0.2-3-0.6c-0.9-0.4-1.7-0.9-2.4-1.5c-0.7-0.7-1.2-1.4-1.5-2.3c-0.4-0.9-0.6-1.9-0.6-2.9s0.2-2,0.6-2.9
		c0.4-0.9,0.9-1.7,1.5-2.3c0.7-0.7,1.4-1.2,2.4-1.5c0.9-0.4,1.9-0.6,3-0.6c1.1,0,2.1,0.2,3,0.6c0.9,0.4,1.7,0.9,2.4,1.5
		c0.7,0.7,1.2,1.4,1.5,2.3C243.8,13.9,244,14.9,244,16z M241.8,16c0-0.8-0.1-1.5-0.4-2.2c-0.3-0.7-0.6-1.3-1.1-1.8
		c-0.5-0.5-1-0.9-1.7-1.2c-0.6-0.3-1.4-0.4-2.2-0.4c-0.8,0-1.6,0.1-2.2,0.4c-0.6,0.3-1.2,0.7-1.6,1.2c-0.4,0.5-0.8,1.1-1.1,1.8
		c-0.3,0.7-0.4,1.4-0.4,2.2c0,0.8,0.1,1.5,0.4,2.2c0.2,0.7,0.6,1.3,1.1,1.8c0.4,0.5,1,0.9,1.6,1.2c0.6,0.3,1.4,0.4,2.2,0.4
		c0.8,0,1.6-0.1,2.2-0.4c0.6-0.3,1.2-0.7,1.7-1.2c0.5-0.5,0.8-1.1,1.1-1.8C241.7,17.5,241.8,16.8,241.8,16z"/>
	<path class="st2" d="M256,21.6c0,0.4-0.2,0.8-0.5,1.1c-0.3,0.3-0.7,0.5-1.2,0.5c-0.5,0-0.9-0.2-1.2-0.5c-0.3-0.3-0.4-0.7-0.4-1.1
		c0-0.4,0.2-0.8,0.4-1.1c0.3-0.3,0.7-0.5,1.2-0.5s0.9,0.2,1.2,0.5C255.9,20.8,256,21.1,256,21.6"/>
	<path class="st3" d="M256,21.6c0,0.4-0.2,0.8-0.5,1.1c-0.3,0.3-0.7,0.5-1.2,0.5c-0.5,0-0.9-0.2-1.2-0.5c-0.3-0.3-0.4-0.7-0.4-1.1
		c0-0.4,0.2-0.8,0.4-1.1c0.3-0.3,0.7-0.5,1.2-0.5s0.9,0.2,1.2,0.5C255.9,20.8,256,21.1,256,21.6z"/>
	<path class="st2" d="M275.8,12.2c-0.3-0.5-0.8-1-1.4-1.3c-0.6-0.4-1.3-0.5-2.1-0.5c-0.8,0-1.6,0.1-2.2,0.4
		c-0.6,0.3-1.2,0.7-1.7,1.2c-0.5,0.5-0.8,1.1-1,1.8c-0.2,0.7-0.4,1.4-0.4,2.2c0,0.8,0.1,1.5,0.4,2.2c0.2,0.7,0.6,1.3,1,1.8
		c0.5,0.5,1,0.9,1.7,1.2c0.6,0.3,1.4,0.4,2.2,0.4c0.8,0,1.5-0.2,2.1-0.5c0.6-0.4,1.1-0.8,1.4-1.3l1.6,1.2c-0.7,0.8-1.5,1.4-2.4,1.8
		c-0.9,0.4-1.8,0.6-2.8,0.6c-1.1,0-2.2-0.2-3.1-0.5c-0.9-0.4-1.7-0.9-2.4-1.5c-0.7-0.7-1.1-1.4-1.5-2.4c-0.3-0.9-0.5-1.9-0.5-3
		c0-1.1,0.2-2,0.5-3c0.3-0.9,0.8-1.7,1.5-2.4c0.6-0.7,1.4-1.2,2.4-1.5c0.9-0.4,2-0.5,3.1-0.5c1,0,1.9,0.2,2.8,0.6
		c0.9,0.4,1.7,1,2.4,1.8L275.8,12.2z"/>
	<path class="st3" d="M275.8,12.2c-0.3-0.5-0.8-1-1.4-1.3c-0.6-0.4-1.3-0.5-2.1-0.5c-0.8,0-1.6,0.1-2.2,0.4
		c-0.6,0.3-1.2,0.7-1.7,1.2c-0.5,0.5-0.8,1.1-1,1.8c-0.2,0.7-0.4,1.4-0.4,2.2c0,0.8,0.1,1.5,0.4,2.2c0.2,0.7,0.6,1.3,1,1.8
		c0.5,0.5,1,0.9,1.7,1.2c0.6,0.3,1.4,0.4,2.2,0.4c0.8,0,1.5-0.2,2.1-0.5c0.6-0.4,1.1-0.8,1.4-1.3l1.6,1.2c-0.7,0.8-1.5,1.4-2.4,1.8
		c-0.9,0.4-1.8,0.6-2.8,0.6c-1.1,0-2.2-0.2-3.1-0.5c-0.9-0.4-1.7-0.9-2.4-1.5c-0.7-0.7-1.1-1.4-1.5-2.4c-0.3-0.9-0.5-1.9-0.5-3
		c0-1.1,0.2-2,0.5-3c0.3-0.9,0.8-1.7,1.5-2.4c0.6-0.7,1.4-1.2,2.4-1.5c0.9-0.4,2-0.5,3.1-0.5c1,0,1.9,0.2,2.8,0.6
		c0.9,0.4,1.7,1,2.4,1.8L275.8,12.2z"/>
	<path class="st2" d="M299,16c0,1.1-0.2,2-0.6,2.9c-0.4,0.9-0.9,1.7-1.5,2.3c-0.7,0.7-1.4,1.2-2.4,1.5c-0.9,0.4-1.9,0.6-3,0.6
		c-1.1,0-2.1-0.2-3-0.6c-0.9-0.4-1.7-0.9-2.4-1.5c-0.7-0.7-1.2-1.4-1.5-2.3c-0.4-0.9-0.6-1.9-0.6-2.9s0.2-2,0.6-2.9
		c0.4-0.9,0.9-1.7,1.5-2.3c0.7-0.7,1.4-1.2,2.4-1.5c0.9-0.4,1.9-0.6,3-0.6c1.1,0,2.1,0.2,3,0.6c0.9,0.4,1.7,0.9,2.4,1.5
		c0.7,0.7,1.2,1.4,1.5,2.3C298.8,13.9,299,14.9,299,16 M296.9,16c0-0.8-0.1-1.5-0.4-2.2c-0.3-0.7-0.6-1.3-1.1-1.8
		c-0.5-0.5-1-0.9-1.7-1.2c-0.6-0.3-1.4-0.4-2.2-0.4c-0.8,0-1.6,0.1-2.2,0.4c-0.6,0.3-1.2,0.7-1.7,1.2c-0.4,0.5-0.8,1.1-1,1.8
		c-0.3,0.7-0.4,1.4-0.4,2.2c0,0.8,0.1,1.5,0.4,2.2c0.2,0.7,0.6,1.3,1,1.8c0.5,0.5,1,0.9,1.7,1.2c0.6,0.3,1.4,0.4,2.2,0.4
		c0.8,0,1.6-0.1,2.2-0.4c0.6-0.3,1.2-0.7,1.7-1.2c0.5-0.5,0.8-1.1,1.1-1.8C296.7,17.5,296.9,16.8,296.9,16"/>
	<path class="st3" d="M299,16c0,1.1-0.2,2-0.6,2.9c-0.4,0.9-0.9,1.7-1.5,2.3c-0.7,0.7-1.4,1.2-2.4,1.5c-0.9,0.4-1.9,0.6-3,0.6
		c-1.1,0-2.1-0.2-3-0.6c-0.9-0.4-1.7-0.9-2.4-1.5c-0.7-0.7-1.2-1.4-1.5-2.3c-0.4-0.9-0.6-1.9-0.6-2.9s0.2-2,0.6-2.9
		c0.4-0.9,0.9-1.7,1.5-2.3c0.7-0.7,1.4-1.2,2.4-1.5c0.9-0.4,1.9-0.6,3-0.6c1.1,0,2.1,0.2,3,0.6c0.9,0.4,1.7,0.9,2.4,1.5
		c0.7,0.7,1.2,1.4,1.5,2.3C298.8,13.9,299,14.9,299,16z M296.9,16c0-0.8-0.1-1.5-0.4-2.2c-0.3-0.7-0.6-1.3-1.1-1.8
		c-0.5-0.5-1-0.9-1.7-1.2c-0.6-0.3-1.4-0.4-2.2-0.4c-0.8,0-1.6,0.1-2.2,0.4c-0.6,0.3-1.2,0.7-1.7,1.2c-0.4,0.5-0.8,1.1-1,1.8
		c-0.3,0.7-0.4,1.4-0.4,2.2c0,0.8,0.1,1.5,0.4,2.2c0.2,0.7,0.6,1.3,1,1.8c0.5,0.5,1,0.9,1.7,1.2c0.6,0.3,1.4,0.4,2.2,0.4
		c0.8,0,1.6-0.1,2.2-0.4c0.6-0.3,1.2-0.7,1.7-1.2c0.5-0.5,0.8-1.1,1.1-1.8C296.7,17.5,296.9,16.8,296.9,16z"/>
	<path class="st2" d="M307.4,12.1c0-0.5,0-1,0-1.6s-0.1-1-0.1-1.6h2.1v2.1h0.1c0.5-0.8,1.1-1.4,2-1.9c0.8-0.4,1.7-0.6,2.5-0.6
		c0.4,0,0.8,0,1.2,0.1c0.4,0.1,0.8,0.2,1.2,0.4c0.4,0.2,0.8,0.5,1.1,0.9c0.4,0.4,0.6,0.9,0.9,1.5c0.4-0.9,1-1.6,1.9-2.1
		c0.9-0.5,1.8-0.8,2.7-0.8c1.8,0,3.1,0.5,4,1.4c0.9,1,1.3,2.3,1.3,4.1V23h-2v-8.2c0-1.4-0.2-2.5-0.8-3.3c-0.5-0.8-1.4-1.1-2.8-1.1
		c-0.7,0-1.4,0.1-1.9,0.4c-0.5,0.3-0.9,0.7-1.2,1.2c-0.3,0.5-0.5,1-0.7,1.6c-0.1,0.6-0.2,1.2-0.2,1.9V23h-2v-8.2
		c0-1.4-0.3-2.5-0.8-3.3c-0.5-0.8-1.4-1.1-2.8-1.1c-0.1,0-0.4,0-0.8,0.1c-0.4,0.1-0.9,0.3-1.3,0.7c-0.5,0.4-0.9,0.9-1.2,1.6
		c-0.4,0.7-0.6,1.7-0.6,3V23h-2L307.4,12.1L307.4,12.1z"/>
	<path class="st3" d="M307.4,12.1c0-0.5,0-1,0-1.6s-0.1-1-0.1-1.6h2.1v2.1h0.1c0.5-0.8,1.1-1.4,2-1.9c0.8-0.4,1.7-0.6,2.5-0.6
		c0.4,0,0.8,0,1.2,0.1c0.4,0.1,0.8,0.2,1.2,0.4c0.4,0.2,0.8,0.5,1.1,0.9c0.4,0.4,0.6,0.9,0.9,1.5c0.4-0.9,1-1.6,1.9-2.1
		c0.9-0.5,1.8-0.8,2.7-0.8c1.8,0,3.1,0.5,4,1.4c0.9,1,1.3,2.3,1.3,4.1V23h-2v-8.2c0-1.4-0.2-2.5-0.8-3.3c-0.5-0.8-1.4-1.1-2.8-1.1
		c-0.7,0-1.4,0.1-1.9,0.4c-0.5,0.3-0.9,0.7-1.2,1.2c-0.3,0.5-0.5,1-0.7,1.6c-0.1,0.6-0.2,1.2-0.2,1.9V23h-2v-8.2
		c0-1.4-0.3-2.5-0.8-3.3c-0.5-0.8-1.4-1.1-2.8-1.1c-0.1,0-0.4,0-0.8,0.1c-0.4,0.1-0.9,0.3-1.3,0.7c-0.5,0.4-0.9,0.9-1.2,1.6
		c-0.4,0.7-0.6,1.7-0.6,3V23h-2L307.4,12.1L307.4,12.1z"/>
	<g>
		<path class="st4" d="M8.9,38.1v12.1H7.1V38.1H8.9z"/>
		<path class="st4" d="M11.5,42.5h1.8v0.7c0.3-0.4,0.6-0.6,0.9-0.7c0.3-0.1,0.6-0.2,1-0.2c0.9,0,1.5,0.4,2,1.1
			c0.6-0.8,1.3-1.1,2.2-1.1c1.7,0,2.6,1,2.6,3.1v4.7h-1.8v-4.2c0-0.7-0.1-1.2-0.3-1.5c-0.2-0.3-0.5-0.5-0.9-0.5
			c-0.5,0-0.8,0.2-1.1,0.5c-0.2,0.4-0.3,1-0.3,1.8v3.9h-1.8v-4.2c0-1.4-0.4-2-1.2-2c-0.5,0-0.9,0.2-1.1,0.6s-0.3,1-0.3,1.8v3.9h-1.8
			V42.5z"/>
		<path class="st4" d="M24.1,42.5h1.8v0.7c0.3-0.4,0.6-0.6,0.9-0.7c0.3-0.1,0.6-0.2,1-0.2c0.9,0,1.5,0.4,2,1.1
			c0.6-0.8,1.3-1.1,2.2-1.1c1.7,0,2.6,1,2.6,3.1v4.7h-1.8v-4.2c0-0.7-0.1-1.2-0.3-1.5c-0.2-0.3-0.5-0.5-0.9-0.5
			c-0.5,0-0.8,0.2-1.1,0.5c-0.2,0.4-0.3,1-0.3,1.8v3.9h-1.8v-4.2c0-1.4-0.4-2-1.2-2c-0.5,0-0.9,0.2-1.1,0.6s-0.3,1-0.3,1.8v3.9h-1.8
			V42.5z"/>
		<path class="st4" d="M36.4,46.3c0-1.1,0.4-2,1.2-2.8c0.8-0.8,1.7-1.2,2.9-1.2c1.1,0,2.1,0.4,2.9,1.2c0.8,0.8,1.2,1.7,1.2,2.9
			c0,1.1-0.4,2.1-1.2,2.9c-0.8,0.8-1.8,1.1-2.9,1.1c-1.1,0-2.1-0.4-2.9-1.2C36.8,48.4,36.4,47.4,36.4,46.3z M38.2,46.3
			c0,0.8,0.2,1.4,0.6,1.8c0.4,0.4,1,0.7,1.6,0.7c0.7,0,1.2-0.2,1.6-0.7c0.4-0.4,0.6-1,0.6-1.8s-0.2-1.3-0.6-1.8
			c-0.4-0.4-1-0.7-1.6-0.7c-0.7,0-1.2,0.2-1.6,0.7C38.4,45,38.2,45.6,38.2,46.3z"/>
		<path class="st4" d="M48.2,36.9v6.5c0.7-0.7,1.5-1.1,2.4-1.1c1,0,1.9,0.4,2.6,1.1c0.7,0.8,1,1.7,1,2.8c0,1.2-0.3,2.1-1,2.9
			c-0.7,0.8-1.5,1.1-2.6,1.1c-0.9,0-1.7-0.3-2.4-1v0.8h-1.8V36.9H48.2z M52.3,46.4c0-0.7-0.2-1.3-0.6-1.8c-0.4-0.5-0.9-0.7-1.5-0.7
			c-0.6,0-1.2,0.2-1.6,0.7c-0.4,0.4-0.6,1-0.6,1.8c0,0.7,0.2,1.3,0.6,1.8c0.4,0.5,0.9,0.7,1.6,0.7c0.6,0,1.1-0.2,1.5-0.7
			C52.1,47.6,52.3,47.1,52.3,46.4z"/>
		<path class="st4" d="M55.7,39.4c0-0.3,0.1-0.6,0.3-0.8c0.2-0.2,0.5-0.3,0.8-0.3c0.3,0,0.6,0.1,0.8,0.3c0.2,0.2,0.3,0.5,0.3,0.8
			s-0.1,0.6-0.3,0.8c-0.2,0.2-0.5,0.3-0.8,0.3c-0.3,0-0.6-0.1-0.8-0.3C55.8,39.9,55.7,39.7,55.7,39.4z M57.8,42.5v7.6H56v-7.6H57.8z
			"/>
		<path class="st4" d="M61.7,36.9v13.2H60V36.9H61.7z"/>
		<path class="st4" d="M63.7,39.4c0-0.3,0.1-0.6,0.3-0.8c0.2-0.2,0.5-0.3,0.8-0.3c0.3,0,0.6,0.1,0.8,0.3c0.2,0.2,0.3,0.5,0.3,0.8
			s-0.1,0.6-0.3,0.8c-0.2,0.2-0.5,0.3-0.8,0.3c-0.3,0-0.6-0.1-0.8-0.3C63.8,39.9,63.7,39.7,63.7,39.4z M65.7,42.5v7.6H64v-7.6H65.7z
			"/>
		<path class="st4" d="M74.9,46.7h-5.5c0,0.6,0.2,1.1,0.6,1.5c0.4,0.4,0.8,0.5,1.4,0.5c0.4,0,0.8-0.1,1.1-0.3c0.3-0.2,0.6-0.6,1-1.2
			l1.5,0.8c-0.2,0.4-0.5,0.7-0.7,1c-0.3,0.3-0.5,0.5-0.8,0.7c-0.3,0.2-0.6,0.3-0.9,0.4c-0.3,0.1-0.7,0.1-1.1,0.1
			c-1.1,0-2-0.4-2.7-1.1c-0.7-0.7-1-1.7-1-2.9c0-1.2,0.3-2.2,1-2.9c0.7-0.7,1.6-1.1,2.7-1.1c1.1,0,2,0.4,2.7,1.1
			c0.6,0.7,1,1.7,1,2.9L74.9,46.7z M73.1,45.3c-0.2-0.9-0.8-1.4-1.8-1.4c-0.2,0-0.4,0-0.6,0.1s-0.4,0.2-0.5,0.3
			c-0.2,0.1-0.3,0.3-0.4,0.4s-0.2,0.4-0.2,0.6H73.1z"/>
		<path class="st4" d="M76.8,42.5h1.8v0.7c0.3-0.3,0.6-0.6,0.9-0.7c0.3-0.1,0.6-0.2,0.9-0.2c0.5,0,0.9,0.2,1.5,0.5L81,44.4
			c-0.3-0.2-0.7-0.4-1-0.4c-1,0-1.4,0.7-1.4,2.2v3.9h-1.8V42.5z"/>
		<path class="st4" d="M93.3,36.9h1.8v13.2h-1.8v-0.8c-0.7,0.7-1.5,1-2.4,1c-1,0-1.9-0.4-2.6-1.1c-0.7-0.8-1-1.7-1-2.9
			c0-1.1,0.3-2.1,1-2.8c0.7-0.8,1.5-1.1,2.6-1.1c0.9,0,1.7,0.4,2.4,1.1V36.9z M89.2,46.3c0,0.7,0.2,1.3,0.6,1.8
			c0.4,0.5,0.9,0.7,1.5,0.7c0.7,0,1.2-0.2,1.6-0.7c0.4-0.5,0.6-1.1,0.6-1.8s-0.2-1.3-0.6-1.8c-0.4-0.5-0.9-0.7-1.6-0.7
			c-0.6,0-1.1,0.2-1.5,0.7C89.4,45,89.2,45.6,89.2,46.3z"/>
		<path class="st4" d="M104.2,46.7h-5.5c0,0.6,0.2,1.1,0.6,1.5c0.4,0.4,0.8,0.5,1.4,0.5c0.4,0,0.8-0.1,1.1-0.3
			c0.3-0.2,0.6-0.6,1-1.2l1.5,0.8c-0.2,0.4-0.5,0.7-0.7,1s-0.5,0.5-0.8,0.7s-0.6,0.3-0.9,0.4s-0.7,0.1-1.1,0.1c-1.1,0-2-0.4-2.7-1.1
			c-0.7-0.7-1-1.7-1-2.9c0-1.2,0.3-2.2,1-2.9c0.7-0.7,1.6-1.1,2.7-1.1c1.1,0,2,0.4,2.7,1.1c0.6,0.7,1,1.7,1,2.9L104.2,46.7z
			 M102.4,45.3c-0.2-0.9-0.8-1.4-1.8-1.4c-0.2,0-0.4,0-0.6,0.1s-0.4,0.2-0.5,0.3s-0.3,0.3-0.4,0.4s-0.2,0.4-0.2,0.6H102.4z"/>
		<path class="st4" d="M110.6,43.8l-1.5,0.8c-0.2-0.5-0.5-0.7-0.9-0.7c-0.2,0-0.3,0.1-0.4,0.2s-0.2,0.2-0.2,0.4c0,0.3,0.3,0.6,1,0.9
			c0.9,0.4,1.6,0.8,1.9,1.1s0.5,0.8,0.5,1.4c0,0.7-0.3,1.3-0.8,1.8c-0.5,0.5-1.2,0.7-1.9,0.7c-1.3,0-2.2-0.6-2.7-1.9l1.5-0.7
			c0.2,0.4,0.4,0.6,0.5,0.7c0.2,0.2,0.5,0.3,0.8,0.3c0.6,0,0.9-0.3,0.9-0.8c0-0.3-0.2-0.6-0.7-0.9c-0.2-0.1-0.4-0.2-0.5-0.3
			s-0.4-0.2-0.5-0.3c-0.5-0.2-0.9-0.5-1.1-0.8c-0.3-0.3-0.4-0.7-0.4-1.2c0-0.7,0.2-1.2,0.7-1.6c0.5-0.4,1-0.6,1.7-0.6
			C109.4,42.3,110.1,42.8,110.6,43.8z"/>
		<path class="st4" d="M124.5,46.7h-5.5c0,0.6,0.2,1.1,0.6,1.5c0.4,0.4,0.8,0.5,1.4,0.5c0.4,0,0.8-0.1,1.1-0.3
			c0.3-0.2,0.6-0.6,1-1.2l1.5,0.8c-0.2,0.4-0.5,0.7-0.7,1s-0.5,0.5-0.8,0.7s-0.6,0.3-0.9,0.4s-0.7,0.1-1.1,0.1c-1.1,0-2-0.4-2.7-1.1
			c-0.7-0.7-1-1.7-1-2.9c0-1.2,0.3-2.2,1-2.9c0.7-0.7,1.6-1.1,2.7-1.1c1.1,0,2,0.4,2.7,1.1c0.6,0.7,1,1.7,1,2.9L124.5,46.7z
			 M122.7,45.3c-0.2-0.9-0.8-1.4-1.8-1.4c-0.2,0-0.4,0-0.6,0.1s-0.4,0.2-0.5,0.3s-0.3,0.3-0.4,0.4s-0.2,0.4-0.2,0.6H122.7z"/>
		<path class="st4" d="M126.4,42.5h1.8v0.7c0.6-0.6,1.3-0.9,2.1-0.9c0.9,0,1.6,0.3,2.1,0.8c0.4,0.5,0.6,1.2,0.6,2.3v4.7h-1.8v-4.2
			c0-0.8-0.1-1.3-0.3-1.6c-0.2-0.3-0.6-0.4-1.1-0.4c-0.6,0-1,0.2-1.2,0.6c-0.2,0.4-0.4,1-0.4,2v3.7h-1.8V42.5z"/>
		<path class="st4" d="M137,44.2v6h-1.8v-6h-0.8v-1.6h0.8v-2.8h1.8v2.8h1.4v1.6H137z"/>
		<path class="st4" d="M139.6,42.5h1.8v0.7c0.3-0.3,0.6-0.6,0.9-0.7c0.3-0.1,0.6-0.2,0.9-0.2c0.5,0,0.9,0.2,1.5,0.5l-0.8,1.6
			c-0.3-0.2-0.7-0.4-1-0.4c-1,0-1.4,0.7-1.4,2.2v3.9h-1.8V42.5z"/>
		<path class="st4" d="M152.4,46.7h-5.5c0,0.6,0.2,1.1,0.6,1.5c0.4,0.4,0.8,0.5,1.4,0.5c0.4,0,0.8-0.1,1.1-0.3
			c0.3-0.2,0.6-0.6,1-1.2l1.5,0.8c-0.2,0.4-0.5,0.7-0.7,1s-0.5,0.5-0.8,0.7s-0.6,0.3-0.9,0.4s-0.7,0.1-1.1,0.1c-1.1,0-2-0.4-2.7-1.1
			c-0.7-0.7-1-1.7-1-2.9c0-1.2,0.3-2.2,1-2.9c0.7-0.7,1.6-1.1,2.7-1.1c1.1,0,2,0.4,2.7,1.1c0.6,0.7,1,1.7,1,2.9L152.4,46.7z
			 M150.6,45.3c-0.2-0.9-0.8-1.4-1.8-1.4c-0.2,0-0.4,0-0.6,0.1s-0.4,0.2-0.5,0.3s-0.3,0.3-0.4,0.4s-0.2,0.4-0.2,0.6H150.6z"/>
		<path class="st4" d="M156.1,54.3h-1.8V42.5h1.8v0.8c0.7-0.7,1.5-1,2.4-1c1,0,1.9,0.4,2.6,1.2c0.7,0.8,1,1.7,1,2.9
			c0,1.1-0.3,2.1-1,2.9c-0.7,0.8-1.5,1.1-2.6,1.1c-0.9,0-1.7-0.4-2.4-1.1V54.3z M160.3,46.4c0-0.7-0.2-1.3-0.6-1.8
			c-0.4-0.5-0.9-0.7-1.5-0.7c-0.6,0-1.2,0.2-1.6,0.7s-0.6,1-0.6,1.8c0,0.7,0.2,1.3,0.6,1.8c0.4,0.5,0.9,0.7,1.6,0.7
			c0.6,0,1.1-0.2,1.5-0.7C160.1,47.6,160.3,47.1,160.3,46.4z"/>
		<path class="st4" d="M163.9,42.5h1.8v0.7c0.3-0.3,0.6-0.6,0.9-0.7c0.3-0.1,0.6-0.2,0.9-0.2c0.5,0,0.9,0.2,1.5,0.5l-0.8,1.6
			c-0.3-0.2-0.7-0.4-1-0.4c-1,0-1.4,0.7-1.4,2.2v3.9h-1.8V42.5z"/>
		<path class="st4" d="M169.9,39.4c0-0.3,0.1-0.6,0.3-0.8s0.5-0.3,0.8-0.3c0.3,0,0.6,0.1,0.8,0.3c0.2,0.2,0.3,0.5,0.3,0.8
			s-0.1,0.6-0.3,0.8c-0.2,0.2-0.5,0.3-0.8,0.3s-0.6-0.1-0.8-0.3S169.9,39.7,169.9,39.4z M171.9,42.5v7.6h-1.8v-7.6H171.9z"/>
		<path class="st4" d="M178.6,43.8l-1.5,0.8c-0.2-0.5-0.5-0.7-0.9-0.7c-0.2,0-0.3,0.1-0.4,0.2s-0.2,0.2-0.2,0.4c0,0.3,0.3,0.6,1,0.9
			c0.9,0.4,1.6,0.8,1.9,1.1s0.5,0.8,0.5,1.4c0,0.7-0.3,1.3-0.8,1.8c-0.5,0.5-1.2,0.7-1.9,0.7c-1.3,0-2.2-0.6-2.7-1.9l1.5-0.7
			c0.2,0.4,0.4,0.6,0.5,0.7c0.2,0.2,0.5,0.3,0.8,0.3c0.6,0,0.9-0.3,0.9-0.8c0-0.3-0.2-0.6-0.7-0.9c-0.2-0.1-0.4-0.2-0.5-0.3
			s-0.4-0.2-0.5-0.3c-0.5-0.2-0.9-0.5-1.1-0.8c-0.3-0.3-0.4-0.7-0.4-1.2c0-0.7,0.2-1.2,0.7-1.6c0.5-0.4,1-0.6,1.7-0.6
			C177.4,42.3,178.1,42.8,178.6,43.8z"/>
		<path class="st4" d="M187.6,46.7h-5.5c0,0.6,0.2,1.1,0.6,1.5c0.4,0.4,0.8,0.5,1.4,0.5c0.4,0,0.8-0.1,1.1-0.3
			c0.3-0.2,0.6-0.6,1-1.2l1.5,0.8c-0.2,0.4-0.5,0.7-0.7,1s-0.5,0.5-0.8,0.7s-0.6,0.3-0.9,0.4s-0.7,0.1-1.1,0.1c-1.1,0-2-0.4-2.7-1.1
			c-0.7-0.7-1-1.7-1-2.9c0-1.2,0.3-2.2,1-2.9c0.7-0.7,1.6-1.1,2.7-1.1c1.1,0,2,0.4,2.7,1.1c0.6,0.7,1,1.7,1,2.9L187.6,46.7z
			 M185.7,45.3c-0.2-0.9-0.8-1.4-1.8-1.4c-0.2,0-0.4,0-0.6,0.1s-0.4,0.2-0.5,0.3s-0.3,0.3-0.4,0.4s-0.2,0.4-0.2,0.6H185.7z"/>
		<path class="st4" d="M193.9,43.8l-1.5,0.8c-0.2-0.5-0.5-0.7-0.9-0.7c-0.2,0-0.3,0.1-0.4,0.2s-0.2,0.2-0.2,0.4c0,0.3,0.3,0.6,1,0.9
			c0.9,0.4,1.6,0.8,1.9,1.1s0.5,0.8,0.5,1.4c0,0.7-0.3,1.3-0.8,1.8c-0.5,0.5-1.2,0.7-1.9,0.7c-1.3,0-2.2-0.6-2.7-1.9l1.5-0.7
			c0.2,0.4,0.4,0.6,0.5,0.7c0.2,0.2,0.5,0.3,0.8,0.3c0.6,0,0.9-0.3,0.9-0.8c0-0.3-0.2-0.6-0.7-0.9c-0.2-0.1-0.4-0.2-0.5-0.3
			s-0.4-0.2-0.5-0.3c-0.5-0.2-0.9-0.5-1.1-0.8c-0.3-0.3-0.4-0.7-0.4-1.2c0-0.7,0.2-1.2,0.7-1.6c0.5-0.4,1-0.6,1.7-0.6
			C192.7,42.3,193.4,42.8,193.9,43.8z"/>
		<path class="st4" d="M207.8,46.7h-5.5c0,0.6,0.2,1.1,0.6,1.5c0.4,0.4,0.8,0.5,1.4,0.5c0.4,0,0.8-0.1,1.1-0.3
			c0.3-0.2,0.6-0.6,1-1.2l1.5,0.8c-0.2,0.4-0.5,0.7-0.7,1s-0.5,0.5-0.8,0.7s-0.6,0.3-0.9,0.4s-0.7,0.1-1.1,0.1c-1.1,0-2-0.4-2.7-1.1
			c-0.7-0.7-1-1.7-1-2.9c0-1.2,0.3-2.2,1-2.9c0.7-0.7,1.6-1.1,2.7-1.1c1.1,0,2,0.4,2.7,1.1c0.6,0.7,1,1.7,1,2.9L207.8,46.7z
			 M206,45.3c-0.2-0.9-0.8-1.4-1.8-1.4c-0.2,0-0.4,0-0.6,0.1s-0.4,0.2-0.5,0.3s-0.3,0.3-0.4,0.4s-0.2,0.4-0.2,0.6H206z"/>
		<path class="st4" d="M211.7,44.2v6h-1.8v-6h-0.8v-1.6h0.8v-2.8h1.8v2.8h1.4v1.6H211.7z"/>
		<path class="st4" d="M224.8,36.9h1.8v13.2h-1.8v-0.8c-0.7,0.7-1.5,1-2.4,1c-1,0-1.9-0.4-2.6-1.1c-0.7-0.8-1-1.7-1-2.9
			c0-1.1,0.3-2.1,1-2.8c0.7-0.8,1.5-1.1,2.6-1.1c0.9,0,1.7,0.4,2.4,1.1V36.9z M220.6,46.3c0,0.7,0.2,1.3,0.6,1.8
			c0.4,0.5,0.9,0.7,1.5,0.7c0.7,0,1.2-0.2,1.6-0.7c0.4-0.5,0.6-1.1,0.6-1.8s-0.2-1.3-0.6-1.8c-0.4-0.5-0.9-0.7-1.6-0.7
			c-0.6,0-1.1,0.2-1.5,0.7C220.8,45,220.6,45.6,220.6,46.3z"/>
		<path class="st4" d="M235.7,46.7h-5.5c0,0.6,0.2,1.1,0.6,1.5c0.4,0.4,0.8,0.5,1.4,0.5c0.4,0,0.8-0.1,1.1-0.3
			c0.3-0.2,0.6-0.6,1-1.2l1.5,0.8c-0.2,0.4-0.5,0.7-0.7,1s-0.5,0.5-0.8,0.7s-0.6,0.3-0.9,0.4s-0.7,0.1-1.1,0.1c-1.1,0-2-0.4-2.7-1.1
			c-0.7-0.7-1-1.7-1-2.9c0-1.2,0.3-2.2,1-2.9c0.7-0.7,1.6-1.1,2.7-1.1c1.1,0,2,0.4,2.7,1.1c0.6,0.7,1,1.7,1,2.9L235.7,46.7z
			 M233.9,45.3c-0.2-0.9-0.8-1.4-1.8-1.4c-0.2,0-0.4,0-0.6,0.1s-0.4,0.2-0.5,0.3s-0.3,0.3-0.4,0.4s-0.2,0.4-0.2,0.6H233.9z"/>
		<path class="st4" d="M242.1,43.8l-1.5,0.8c-0.2-0.5-0.5-0.7-0.9-0.7c-0.2,0-0.3,0.1-0.4,0.2s-0.2,0.2-0.2,0.4c0,0.3,0.3,0.6,1,0.9
			c0.9,0.4,1.6,0.8,1.9,1.1s0.5,0.8,0.5,1.4c0,0.7-0.3,1.3-0.8,1.8c-0.5,0.5-1.2,0.7-1.9,0.7c-1.3,0-2.2-0.6-2.7-1.9l1.5-0.7
			c0.2,0.4,0.4,0.6,0.5,0.7c0.2,0.2,0.5,0.3,0.8,0.3c0.6,0,0.9-0.3,0.9-0.8c0-0.3-0.2-0.6-0.7-0.9c-0.2-0.1-0.4-0.2-0.5-0.3
			s-0.4-0.2-0.5-0.3c-0.5-0.2-0.9-0.5-1.1-0.8c-0.3-0.3-0.4-0.7-0.4-1.2c0-0.7,0.2-1.2,0.7-1.6c0.5-0.4,1-0.6,1.7-0.6
			C240.9,42.3,241.6,42.8,242.1,43.8z"/>
		<path class="st4" d="M250.8,54.3h-1.8V42.5h1.8v0.8c0.7-0.7,1.5-1,2.4-1c1,0,1.9,0.4,2.6,1.2c0.7,0.8,1,1.7,1,2.9
			c0,1.1-0.3,2.1-1,2.9c-0.7,0.8-1.5,1.1-2.6,1.1c-0.9,0-1.7-0.4-2.4-1.1V54.3z M255,46.4c0-0.7-0.2-1.3-0.6-1.8
			c-0.4-0.5-0.9-0.7-1.5-0.7c-0.6,0-1.2,0.2-1.6,0.7s-0.6,1-0.6,1.8c0,0.7,0.2,1.3,0.6,1.8c0.4,0.5,0.9,0.7,1.6,0.7
			c0.6,0,1.1-0.2,1.5-0.7C254.8,47.6,255,47.1,255,46.4z"/>
		<path class="st4" d="M264.3,42.5h1.8v7.6h-1.8v-0.8c-0.7,0.7-1.5,1-2.3,1c-1.1,0-1.9-0.4-2.6-1.1c-0.7-0.8-1-1.7-1-2.9
			c0-1.1,0.3-2.1,1-2.9s1.5-1.1,2.6-1.1c0.9,0,1.7,0.4,2.4,1.1V42.5z M260.1,46.3c0,0.7,0.2,1.3,0.6,1.8c0.4,0.5,0.9,0.7,1.5,0.7
			c0.7,0,1.2-0.2,1.6-0.7c0.4-0.5,0.6-1.1,0.6-1.8s-0.2-1.3-0.6-1.8c-0.4-0.5-0.9-0.7-1.6-0.7c-0.6,0-1.1,0.2-1.5,0.7
			C260.3,45,260.1,45.6,260.1,46.3z"/>
		<path class="st4" d="M268.3,42.5h1.8v0.7c0.3-0.3,0.6-0.6,0.9-0.7c0.3-0.1,0.6-0.2,0.9-0.2c0.5,0,0.9,0.2,1.5,0.5l-0.8,1.6
			c-0.3-0.2-0.7-0.4-1-0.4c-1,0-1.4,0.7-1.4,2.2v3.9h-1.8V42.5z"/>
		<path class="st4" d="M276.6,44.2v6h-1.8v-6h-0.8v-1.6h0.8v-2.8h1.8v2.8h1.4v1.6H276.6z"/>
		<path class="st4" d="M278.9,39.4c0-0.3,0.1-0.6,0.3-0.8s0.5-0.3,0.8-0.3c0.3,0,0.6,0.1,0.8,0.3c0.2,0.2,0.3,0.5,0.3,0.8
			s-0.1,0.6-0.3,0.8c-0.2,0.2-0.5,0.3-0.8,0.3s-0.6-0.1-0.8-0.3S278.9,39.7,278.9,39.4z M281,42.5v7.6h-1.8v-7.6H281z"/>
		<path class="st4" d="M289.1,42.8v2.3c-0.4-0.5-0.8-0.8-1.1-1c-0.3-0.2-0.7-0.3-1.1-0.3c-0.7,0-1.2,0.2-1.6,0.7s-0.7,1-0.7,1.7
			c0,0.7,0.2,1.3,0.6,1.8c0.4,0.5,1,0.7,1.6,0.7c0.4,0,0.8-0.1,1.1-0.3c0.3-0.2,0.7-0.5,1.1-1v2.3c-0.7,0.4-1.4,0.6-2.1,0.6
			c-1.2,0-2.2-0.4-3-1.1c-0.8-0.8-1.2-1.7-1.2-2.9s0.4-2.1,1.2-2.9s1.8-1.2,3-1.2C287.7,42.3,288.4,42.5,289.1,42.8z"/>
		<path class="st4" d="M292.6,42.5v4.4c0,1.3,0.5,1.9,1.5,1.9s1.5-0.6,1.5-1.9v-4.4h1.8v4.4c0,0.6-0.1,1.1-0.2,1.6
			c-0.1,0.4-0.4,0.8-0.8,1.1c-0.6,0.5-1.3,0.8-2.3,0.8c-0.9,0-1.7-0.3-2.3-0.8c-0.4-0.3-0.6-0.7-0.8-1.1c-0.1-0.4-0.2-0.9-0.2-1.6
			v-4.4H292.6z"/>
		<path class="st4" d="M301.3,36.9v13.2h-1.8V36.9H301.3z"/>
		<path class="st4" d="M303.3,39.4c0-0.3,0.1-0.6,0.3-0.8s0.5-0.3,0.8-0.3c0.3,0,0.6,0.1,0.8,0.3c0.2,0.2,0.3,0.5,0.3,0.8
			s-0.1,0.6-0.3,0.8c-0.2,0.2-0.5,0.3-0.8,0.3s-0.6-0.1-0.8-0.3S303.3,39.7,303.3,39.4z M305.3,42.5v7.6h-1.8v-7.6H305.3z"/>
		<path class="st4" d="M314.4,46.7H309c0,0.6,0.2,1.1,0.6,1.5c0.4,0.4,0.8,0.5,1.4,0.5c0.4,0,0.8-0.1,1.1-0.3c0.3-0.2,0.6-0.6,1-1.2
			l1.5,0.8c-0.2,0.4-0.5,0.7-0.7,1s-0.5,0.5-0.8,0.7s-0.6,0.3-0.9,0.4s-0.7,0.1-1.1,0.1c-1.1,0-2-0.4-2.7-1.1c-0.7-0.7-1-1.7-1-2.9
			c0-1.2,0.3-2.2,1-2.9c0.7-0.7,1.6-1.1,2.7-1.1c1.1,0,2,0.4,2.7,1.1c0.6,0.7,1,1.7,1,2.9L314.4,46.7z M312.6,45.3
			c-0.2-0.9-0.8-1.4-1.8-1.4c-0.2,0-0.4,0-0.6,0.1s-0.4,0.2-0.5,0.3s-0.3,0.3-0.4,0.4s-0.2,0.4-0.2,0.6H312.6z"/>
		<path class="st4" d="M316.4,42.5h1.8v0.7c0.3-0.3,0.6-0.6,0.9-0.7c0.3-0.1,0.6-0.2,0.9-0.2c0.5,0,0.9,0.2,1.5,0.5l-0.8,1.6
			c-0.3-0.2-0.7-0.4-1-0.4c-1,0-1.4,0.7-1.4,2.2v3.9h-1.8V42.5z"/>
		<path class="st4" d="M326.8,43.8l-1.5,0.8c-0.2-0.5-0.5-0.7-0.9-0.7c-0.2,0-0.3,0.1-0.4,0.2s-0.2,0.2-0.2,0.4c0,0.3,0.3,0.6,1,0.9
			c0.9,0.4,1.6,0.8,1.9,1.1s0.5,0.8,0.5,1.4c0,0.7-0.3,1.3-0.8,1.8c-0.5,0.5-1.2,0.7-1.9,0.7c-1.3,0-2.2-0.6-2.7-1.9l1.5-0.7
			c0.2,0.4,0.4,0.6,0.5,0.7c0.2,0.2,0.5,0.3,0.8,0.3c0.6,0,0.9-0.3,0.9-0.8c0-0.3-0.2-0.6-0.7-0.9c-0.2-0.1-0.4-0.2-0.5-0.3
			s-0.4-0.2-0.5-0.3c-0.5-0.2-0.9-0.5-1.1-0.8c-0.3-0.3-0.4-0.7-0.4-1.2c0-0.7,0.2-1.2,0.7-1.6c0.5-0.4,1-0.6,1.7-0.6
			C325.6,42.3,326.3,42.8,326.8,43.8z"/>
	</g>
</g>
<g id="Calque_1" class="st0">
	<polygon class="st5" points="10.5,22.1 8.2,22.1 2.5,8.1 4.9,8.1 9.4,19.9 9.5,19.9 13.9,8.1 16.2,8.1 	"/>
	<polygon class="st6" points="10.5,22.1 8.2,22.1 2.5,8.1 4.9,8.1 9.4,19.9 9.5,19.9 13.9,8.1 16.2,8.1 	"/>
	<path class="st5" d="M37.8,15.1c0,1.1-0.2,2-0.6,2.9c-0.4,0.9-0.9,1.7-1.5,2.3c-0.7,0.7-1.4,1.2-2.4,1.5c-0.9,0.4-1.9,0.6-3,0.6
		c-1.1,0-2.1-0.2-3-0.6c-0.9-0.4-1.7-0.9-2.4-1.5c-0.7-0.7-1.2-1.4-1.5-2.3c-0.4-0.9-0.6-1.9-0.6-2.9s0.2-2,0.6-2.9
		c0.4-0.9,0.9-1.7,1.5-2.3c0.7-0.7,1.4-1.2,2.4-1.5c0.9-0.4,1.9-0.6,3-0.6c1.1,0,2.1,0.2,3,0.6c0.9,0.4,1.7,0.9,2.4,1.5
		c0.7,0.7,1.2,1.4,1.5,2.3C37.6,13.1,37.8,14,37.8,15.1 M35.6,15.1c0-0.8-0.1-1.5-0.4-2.2c-0.2-0.7-0.6-1.3-1.1-1.8
		c-0.5-0.5-1-0.9-1.7-1.2c-0.6-0.3-1.4-0.4-2.2-0.4c-0.8,0-1.6,0.1-2.2,0.4c-0.6,0.3-1.2,0.7-1.7,1.2c-0.5,0.5-0.8,1.1-1.1,1.8
		c-0.3,0.7-0.4,1.4-0.4,2.2s0.1,1.5,0.4,2.2c0.3,0.7,0.6,1.3,1.1,1.8c0.5,0.5,1,0.9,1.7,1.2c0.6,0.3,1.4,0.4,2.2,0.4
		c0.8,0,1.6-0.1,2.2-0.4c0.6-0.3,1.2-0.7,1.7-1.2c0.5-0.5,0.8-1.1,1.1-1.8C35.5,16.6,35.6,15.9,35.6,15.1"/>
	<path class="st6" d="M37.8,15.1c0,1.1-0.2,2-0.6,2.9c-0.4,0.9-0.9,1.7-1.5,2.3c-0.7,0.7-1.4,1.2-2.4,1.5c-0.9,0.4-1.9,0.6-3,0.6
		c-1.1,0-2.1-0.2-3-0.6c-0.9-0.4-1.7-0.9-2.4-1.5c-0.7-0.7-1.2-1.4-1.5-2.3c-0.4-0.9-0.6-1.9-0.6-2.9s0.2-2,0.6-2.9
		c0.4-0.9,0.9-1.7,1.5-2.3c0.7-0.7,1.4-1.2,2.4-1.5c0.9-0.4,1.9-0.6,3-0.6c1.1,0,2.1,0.2,3,0.6c0.9,0.4,1.7,0.9,2.4,1.5
		c0.7,0.7,1.2,1.4,1.5,2.3C37.6,13.1,37.8,14,37.8,15.1z M35.6,15.1c0-0.8-0.1-1.5-0.4-2.2c-0.2-0.7-0.6-1.3-1.1-1.8
		c-0.5-0.5-1-0.9-1.7-1.2c-0.6-0.3-1.4-0.4-2.2-0.4c-0.8,0-1.6,0.1-2.2,0.4c-0.6,0.3-1.2,0.7-1.7,1.2c-0.5,0.5-0.8,1.1-1.1,1.8
		c-0.3,0.7-0.4,1.4-0.4,2.2s0.1,1.5,0.4,2.2c0.3,0.7,0.6,1.3,1.1,1.8c0.5,0.5,1,0.9,1.7,1.2c0.6,0.3,1.4,0.4,2.2,0.4
		c0.8,0,1.6-0.1,2.2-0.4c0.6-0.3,1.2-0.7,1.7-1.2c0.5-0.5,0.8-1.1,1.1-1.8C35.5,16.6,35.6,15.9,35.6,15.1z"/>
	<path class="st5" d="M53.4,9.9h-4.1v8.3c0,0.5,0.1,0.9,0.2,1.3c0.1,0.3,0.2,0.6,0.4,0.8c0.2,0.2,0.4,0.3,0.6,0.4
		c0.2,0.1,0.5,0.1,0.8,0.1c0.3,0,0.7-0.1,1.1-0.1c0.4-0.1,0.7-0.2,1-0.4l0.1,1.8c-0.7,0.3-1.6,0.5-2.7,0.5c-0.4,0-0.8-0.1-1.2-0.1
		c-0.4-0.1-0.8-0.3-1.1-0.6c-0.3-0.3-0.6-0.7-0.8-1.1c-0.2-0.5-0.3-1.1-0.3-1.9V9.9h-3V8.1h3v-4h2v4h4.1L53.4,9.9L53.4,9.9z"/>
	<path class="st6" d="M53.4,9.9h-4.1v8.3c0,0.5,0.1,0.9,0.2,1.3c0.1,0.3,0.2,0.6,0.4,0.8c0.2,0.2,0.4,0.3,0.6,0.4
		c0.2,0.1,0.5,0.1,0.8,0.1c0.3,0,0.7-0.1,1.1-0.1c0.4-0.1,0.7-0.2,1-0.4l0.1,1.8c-0.7,0.3-1.6,0.5-2.7,0.5c-0.4,0-0.8-0.1-1.2-0.1
		c-0.4-0.1-0.8-0.3-1.1-0.6c-0.3-0.3-0.6-0.7-0.8-1.1c-0.2-0.5-0.3-1.1-0.3-1.9V9.9h-3V8.1h3v-4h2v4h4.1L53.4,9.9L53.4,9.9z"/>
	<path class="st5" d="M61.1,12.5c0-0.6,0-1.2,0-1.9c0-0.6-0.1-1.5-0.1-2.5h2v2.6H63c0.1-0.4,0.3-0.7,0.6-1.1
		c0.3-0.4,0.6-0.7,0.9-0.9C65,8.4,65.4,8.1,65.9,8c0.5-0.2,1-0.3,1.7-0.3c0.6,0,1.1,0.1,1.5,0.2l-0.4,2c-0.3-0.1-0.6-0.1-1.1-0.1
		c-0.8,0-1.4,0.1-2,0.4c-0.5,0.3-1,0.7-1.4,1.1c-0.4,0.5-0.6,0.9-0.8,1.5c-0.2,0.5-0.3,1-0.3,1.5v7.9h-2L61.1,12.5L61.1,12.5z"/>
	<path class="st6" d="M61.1,12.5c0-0.6,0-1.2,0-1.9c0-0.6-0.1-1.5-0.1-2.5h2v2.6H63c0.1-0.4,0.3-0.7,0.6-1.1
		c0.3-0.4,0.6-0.7,0.9-0.9C65,8.4,65.4,8.1,65.9,8c0.5-0.2,1-0.3,1.7-0.3c0.6,0,1.1,0.1,1.5,0.2l-0.4,2c-0.3-0.1-0.6-0.1-1.1-0.1
		c-0.8,0-1.4,0.1-2,0.4c-0.5,0.3-1,0.7-1.4,1.1c-0.4,0.5-0.6,0.9-0.8,1.5c-0.2,0.5-0.3,1-0.3,1.5v7.9h-2L61.1,12.5L61.1,12.5z"/>
	<path class="st5" d="M76.5,15.6c0.1,0.7,0.2,1.4,0.5,2c0.3,0.6,0.6,1.2,1.1,1.6c0.5,0.5,1,0.8,1.6,1.1c0.6,0.3,1.3,0.4,2,0.4
		c1.1,0,2-0.2,2.7-0.7c0.8-0.5,1.4-1.1,1.8-1.7l1.5,1.3c-0.8,1.1-1.8,1.8-2.8,2.3c-1,0.5-2.1,0.7-3.3,0.7c-1,0-2-0.2-2.9-0.6
		c-0.9-0.4-1.7-0.9-2.3-1.5c-0.6-0.7-1.1-1.4-1.5-2.3c-0.4-0.9-0.6-1.9-0.6-2.9c0-1.1,0.2-2,0.5-2.9c0.4-0.9,0.9-1.7,1.5-2.3
		c0.6-0.7,1.4-1.2,2.3-1.5c0.9-0.4,1.8-0.6,2.8-0.6c1.1,0,2,0.2,2.9,0.6c0.8,0.4,1.5,0.9,2.1,1.5c0.6,0.6,1,1.4,1.3,2.2
		c0.3,0.9,0.4,1.8,0.4,2.7v0.9L76.5,15.6L76.5,15.6z M86.1,14c0-1.3-0.4-2.4-1.2-3.3c-0.8-0.8-1.9-1.2-3.4-1.2
		c-0.6,0-1.3,0.1-1.9,0.4c-0.6,0.2-1.1,0.6-1.6,1c-0.4,0.4-0.8,0.9-1.1,1.4c-0.3,0.5-0.4,1.1-0.4,1.7C76.6,14,86.1,14,86.1,14z"/>
	<path class="st6" d="M76.5,15.6c0.1,0.7,0.2,1.4,0.5,2c0.3,0.6,0.6,1.2,1.1,1.6c0.5,0.5,1,0.8,1.6,1.1c0.6,0.3,1.3,0.4,2,0.4
		c1.1,0,2-0.2,2.7-0.7c0.8-0.5,1.4-1.1,1.8-1.7l1.5,1.3c-0.8,1.1-1.8,1.8-2.8,2.3c-1,0.5-2.1,0.7-3.3,0.7c-1,0-2-0.2-2.9-0.6
		c-0.9-0.4-1.7-0.9-2.3-1.5c-0.6-0.7-1.1-1.4-1.5-2.3c-0.4-0.9-0.6-1.9-0.6-2.9c0-1.1,0.2-2,0.5-2.9c0.4-0.9,0.9-1.7,1.5-2.3
		c0.6-0.7,1.4-1.2,2.3-1.5c0.9-0.4,1.8-0.6,2.8-0.6c1.1,0,2,0.2,2.9,0.6c0.8,0.4,1.5,0.9,2.1,1.5c0.6,0.6,1,1.4,1.3,2.2
		c0.3,0.9,0.4,1.8,0.4,2.7v0.9L76.5,15.6L76.5,15.6z M86.1,14c0-1.3-0.4-2.4-1.2-3.3c-0.8-0.8-1.9-1.2-3.4-1.2
		c-0.6,0-1.3,0.1-1.9,0.4c-0.6,0.2-1.1,0.6-1.6,1c-0.4,0.4-0.8,0.9-1.1,1.4c-0.3,0.5-0.4,1.1-0.4,1.7C76.6,14,86.1,14,86.1,14z"/>
	<path class="st5" d="M99.5,2.7c0,0.4-0.2,0.8-0.4,1c-0.3,0.3-0.6,0.4-1,0.4c-0.4,0-0.7-0.1-1-0.4c-0.3-0.3-0.5-0.6-0.5-1
		c0-0.4,0.2-0.8,0.5-1c0.3-0.3,0.6-0.4,1-0.4s0.7,0.1,1,0.4C99.4,1.9,99.5,2.2,99.5,2.7 M99.1,22.1h-2V8.1h2V22.1z"/>
	<path class="st6" d="M99.5,2.7c0,0.4-0.2,0.8-0.4,1c-0.3,0.3-0.6,0.4-1,0.4c-0.4,0-0.7-0.1-1-0.4c-0.3-0.3-0.5-0.6-0.5-1
		c0-0.4,0.2-0.8,0.5-1c0.3-0.3,0.6-0.4,1-0.4s0.7,0.1,1,0.4C99.4,1.9,99.5,2.2,99.5,2.7z M99.1,22.1h-2V8.1h2V22.1z"/>
	<path class="st5" d="M108.7,11.2c0-0.5,0-1,0-1.6s-0.1-1-0.1-1.6h2.1v2.1h0.1c0.5-0.8,1.1-1.4,2-1.9c0.9-0.4,1.7-0.6,2.5-0.6
		c0.4,0,0.8,0,1.2,0.1c0.4,0.1,0.8,0.2,1.2,0.4s0.8,0.5,1.1,0.9c0.4,0.4,0.6,0.9,0.9,1.5c0.4-0.9,1-1.6,1.9-2.1
		c0.9-0.5,1.8-0.8,2.7-0.8c1.8,0,3.1,0.5,4,1.4c0.9,1,1.3,2.3,1.3,4.1v8.9h-2v-8.2c0-1.4-0.2-2.5-0.8-3.3c-0.5-0.8-1.4-1.1-2.8-1.1
		c-0.7,0-1.4,0.1-1.9,0.4c-0.5,0.3-0.9,0.7-1.2,1.2c-0.3,0.5-0.5,1-0.7,1.6c-0.1,0.6-0.2,1.2-0.2,1.9v7.5h-2v-8.2
		c0-1.4-0.2-2.5-0.8-3.3c-0.5-0.8-1.4-1.1-2.8-1.1c-0.1,0-0.4,0-0.8,0.1c-0.4,0.1-0.9,0.3-1.3,0.7c-0.5,0.4-0.9,0.9-1.2,1.6
		c-0.4,0.7-0.6,1.7-0.6,3v7.2h-2L108.7,11.2L108.7,11.2z"/>
	<path class="st6" d="M108.7,11.2c0-0.5,0-1,0-1.6s-0.1-1-0.1-1.6h2.1v2.1h0.1c0.5-0.8,1.1-1.4,2-1.9c0.9-0.4,1.7-0.6,2.5-0.6
		c0.4,0,0.8,0,1.2,0.1c0.4,0.1,0.8,0.2,1.2,0.4s0.8,0.5,1.1,0.9c0.4,0.4,0.6,0.9,0.9,1.5c0.4-0.9,1-1.6,1.9-2.1
		c0.9-0.5,1.8-0.8,2.7-0.8c1.8,0,3.1,0.5,4,1.4c0.9,1,1.3,2.3,1.3,4.1v8.9h-2v-8.2c0-1.4-0.2-2.5-0.8-3.3c-0.5-0.8-1.4-1.1-2.8-1.1
		c-0.7,0-1.4,0.1-1.9,0.4c-0.5,0.3-0.9,0.7-1.2,1.2c-0.3,0.5-0.5,1-0.7,1.6c-0.1,0.6-0.2,1.2-0.2,1.9v7.5h-2v-8.2
		c0-1.4-0.2-2.5-0.8-3.3c-0.5-0.8-1.4-1.1-2.8-1.1c-0.1,0-0.4,0-0.8,0.1c-0.4,0.1-0.9,0.3-1.3,0.7c-0.5,0.4-0.9,0.9-1.2,1.6
		c-0.4,0.7-0.6,1.7-0.6,3v7.2h-2L108.7,11.2L108.7,11.2z"/>
	<path class="st5" d="M139,11.2c0-0.5,0-1,0-1.6s-0.1-1-0.1-1.6h2.1v2.1h0.1c0.5-0.8,1.1-1.4,2-1.9s1.7-0.6,2.5-0.6
		c0.4,0,0.8,0,1.2,0.1c0.4,0.1,0.8,0.2,1.2,0.4s0.8,0.5,1.1,0.9c0.3,0.4,0.6,0.9,0.9,1.5c0.4-0.9,1-1.6,1.9-2.1
		c0.9-0.5,1.8-0.8,2.7-0.8c1.8,0,3.1,0.5,4,1.4c0.9,1,1.3,2.3,1.3,4.1v8.9h-2v-8.2c0-1.4-0.2-2.5-0.7-3.3c-0.5-0.8-1.4-1.1-2.8-1.1
		c-0.7,0-1.4,0.1-1.9,0.4c-0.5,0.3-0.9,0.7-1.2,1.2c-0.3,0.5-0.5,1-0.7,1.6c-0.1,0.6-0.2,1.2-0.2,1.9v7.5h-2v-8.2
		c0-1.4-0.3-2.5-0.8-3.3c-0.5-0.8-1.4-1.1-2.8-1.1c-0.1,0-0.4,0-0.8,0.1c-0.4,0.1-0.9,0.3-1.3,0.7c-0.5,0.4-0.9,0.9-1.2,1.6
		c-0.4,0.7-0.6,1.7-0.6,3v7.2h-2L139,11.2L139,11.2z"/>
	<path class="st6" d="M139,11.2c0-0.5,0-1,0-1.6s-0.1-1-0.1-1.6h2.1v2.1h0.1c0.5-0.8,1.1-1.4,2-1.9s1.7-0.6,2.5-0.6
		c0.4,0,0.8,0,1.2,0.1c0.4,0.1,0.8,0.2,1.2,0.4s0.8,0.5,1.1,0.9c0.3,0.4,0.6,0.9,0.9,1.5c0.4-0.9,1-1.6,1.9-2.1
		c0.9-0.5,1.8-0.8,2.7-0.8c1.8,0,3.1,0.5,4,1.4c0.9,1,1.3,2.3,1.3,4.1v8.9h-2v-8.2c0-1.4-0.2-2.5-0.7-3.3c-0.5-0.8-1.4-1.1-2.8-1.1
		c-0.7,0-1.4,0.1-1.9,0.4c-0.5,0.3-0.9,0.7-1.2,1.2c-0.3,0.5-0.5,1-0.7,1.6c-0.1,0.6-0.2,1.2-0.2,1.9v7.5h-2v-8.2
		c0-1.4-0.3-2.5-0.8-3.3c-0.5-0.8-1.4-1.1-2.8-1.1c-0.1,0-0.4,0-0.8,0.1c-0.4,0.1-0.9,0.3-1.3,0.7c-0.5,0.4-0.9,0.9-1.2,1.6
		c-0.4,0.7-0.6,1.7-0.6,3v7.2h-2L139,11.2L139,11.2z"/>
	<path class="st5" d="M183.6,15.1c0,1.1-0.2,2-0.6,2.9c-0.4,0.9-0.9,1.7-1.5,2.3c-0.7,0.7-1.4,1.2-2.4,1.5c-0.9,0.4-1.9,0.6-3,0.6
		c-1.1,0-2.1-0.2-3-0.6c-0.9-0.4-1.7-0.9-2.4-1.5c-0.7-0.7-1.2-1.4-1.5-2.3c-0.4-0.9-0.6-1.9-0.6-2.9s0.2-2,0.6-2.9
		c0.4-0.9,0.9-1.7,1.5-2.3c0.7-0.7,1.4-1.2,2.4-1.5c0.9-0.4,1.9-0.6,3-0.6c1.1,0,2.1,0.2,3,0.6c0.9,0.4,1.7,0.9,2.4,1.5
		c0.7,0.7,1.2,1.4,1.5,2.3C183.4,13.1,183.6,14,183.6,15.1 M181.5,15.1c0-0.8-0.1-1.5-0.4-2.2c-0.3-0.7-0.6-1.3-1.1-1.8
		c-0.5-0.5-1-0.9-1.7-1.2c-0.6-0.3-1.4-0.4-2.2-0.4c-0.8,0-1.6,0.1-2.2,0.4c-0.6,0.3-1.2,0.7-1.6,1.2c-0.4,0.5-0.8,1.1-1.1,1.8
		c-0.3,0.7-0.4,1.4-0.4,2.2c0,0.8,0.1,1.5,0.4,2.2c0.2,0.7,0.6,1.3,1.1,1.8c0.4,0.5,1,0.9,1.6,1.2c0.6,0.3,1.4,0.4,2.2,0.4
		c0.8,0,1.6-0.1,2.2-0.4c0.6-0.3,1.2-0.7,1.7-1.2c0.5-0.5,0.8-1.1,1.1-1.8C181.3,16.6,181.5,15.9,181.5,15.1"/>
	<path class="st6" d="M183.6,15.1c0,1.1-0.2,2-0.6,2.9c-0.4,0.9-0.9,1.7-1.5,2.3c-0.7,0.7-1.4,1.2-2.4,1.5c-0.9,0.4-1.9,0.6-3,0.6
		c-1.1,0-2.1-0.2-3-0.6c-0.9-0.4-1.7-0.9-2.4-1.5c-0.7-0.7-1.2-1.4-1.5-2.3c-0.4-0.9-0.6-1.9-0.6-2.9s0.2-2,0.6-2.9
		c0.4-0.9,0.9-1.7,1.5-2.3c0.7-0.7,1.4-1.2,2.4-1.5c0.9-0.4,1.9-0.6,3-0.6c1.1,0,2.1,0.2,3,0.6c0.9,0.4,1.7,0.9,2.4,1.5
		c0.7,0.7,1.2,1.4,1.5,2.3C183.4,13.1,183.6,14,183.6,15.1z M181.5,15.1c0-0.8-0.1-1.5-0.4-2.2c-0.3-0.7-0.6-1.3-1.1-1.8
		c-0.5-0.5-1-0.9-1.7-1.2c-0.6-0.3-1.4-0.4-2.2-0.4c-0.8,0-1.6,0.1-2.2,0.4c-0.6,0.3-1.2,0.7-1.6,1.2c-0.4,0.5-0.8,1.1-1.1,1.8
		c-0.3,0.7-0.4,1.4-0.4,2.2c0,0.8,0.1,1.5,0.4,2.2c0.2,0.7,0.6,1.3,1.1,1.8c0.4,0.5,1,0.9,1.6,1.2c0.6,0.3,1.4,0.4,2.2,0.4
		c0.8,0,1.6-0.1,2.2-0.4c0.6-0.3,1.2-0.7,1.7-1.2c0.5-0.5,0.8-1.1,1.1-1.8C181.3,16.6,181.5,15.9,181.5,15.1z"/>
	<path class="st5" d="M192,8.1h2v2.3h0.1c0.3-0.5,0.7-0.9,1.1-1.2c0.4-0.3,0.9-0.6,1.4-0.8c0.5-0.2,1-0.4,1.5-0.5
		c0.5-0.1,1-0.2,1.5-0.2c1.1,0,2.1,0.2,3,0.6c0.9,0.4,1.7,0.9,2.4,1.5c0.7,0.7,1.2,1.4,1.5,2.3c0.4,0.9,0.6,1.9,0.6,2.9
		s-0.2,2-0.6,2.9c-0.4,0.9-0.9,1.7-1.5,2.3c-0.7,0.7-1.4,1.2-2.4,1.5c-0.9,0.4-1.9,0.6-3,0.6c-0.5,0-0.9-0.1-1.5-0.2
		c-0.5-0.1-1-0.3-1.5-0.5c-0.5-0.2-0.9-0.5-1.4-0.8c-0.4-0.3-0.8-0.8-1.1-1.2H194v11h-2V8.1z M204.9,15.1c0-0.8-0.1-1.5-0.4-2.2
		c-0.3-0.7-0.6-1.3-1.1-1.8c-0.5-0.5-1-0.9-1.7-1.2c-0.7-0.3-1.4-0.4-2.2-0.4c-0.8,0-1.6,0.1-2.3,0.4c-0.7,0.3-1.3,0.7-1.8,1.2
		s-0.9,1.1-1.2,1.8c-0.3,0.7-0.4,1.4-0.4,2.2c0,0.8,0.1,1.5,0.4,2.2c0.3,0.7,0.7,1.3,1.2,1.8c0.5,0.5,1.1,0.9,1.8,1.2
		c0.7,0.3,1.4,0.4,2.3,0.4c0.8,0,1.6-0.1,2.2-0.4c0.6-0.3,1.2-0.7,1.7-1.2c0.5-0.5,0.8-1.1,1.1-1.8
		C204.7,16.6,204.9,15.9,204.9,15.1"/>
	<path class="st6" d="M192,8.1h2v2.3h0.1c0.3-0.5,0.7-0.9,1.1-1.2c0.4-0.3,0.9-0.6,1.4-0.8c0.5-0.2,1-0.4,1.5-0.5
		c0.5-0.1,1-0.2,1.5-0.2c1.1,0,2.1,0.2,3,0.6c0.9,0.4,1.7,0.9,2.4,1.5c0.7,0.7,1.2,1.4,1.5,2.3c0.4,0.9,0.6,1.9,0.6,2.9
		s-0.2,2-0.6,2.9c-0.4,0.9-0.9,1.7-1.5,2.3c-0.7,0.7-1.4,1.2-2.4,1.5c-0.9,0.4-1.9,0.6-3,0.6c-0.5,0-0.9-0.1-1.5-0.2
		c-0.5-0.1-1-0.3-1.5-0.5c-0.5-0.2-0.9-0.5-1.4-0.8c-0.4-0.3-0.8-0.8-1.1-1.2H194v11h-2V8.1z M204.9,15.1c0-0.8-0.1-1.5-0.4-2.2
		c-0.3-0.7-0.6-1.3-1.1-1.8c-0.5-0.5-1-0.9-1.7-1.2c-0.7-0.3-1.4-0.4-2.2-0.4c-0.8,0-1.6,0.1-2.3,0.4c-0.7,0.3-1.3,0.7-1.8,1.2
		s-0.9,1.1-1.2,1.8c-0.3,0.7-0.4,1.4-0.4,2.2c0,0.8,0.1,1.5,0.4,2.2c0.3,0.7,0.7,1.3,1.2,1.8c0.5,0.5,1.1,0.9,1.8,1.2
		c0.7,0.3,1.4,0.4,2.3,0.4c0.8,0,1.6-0.1,2.2-0.4c0.6-0.3,1.2-0.7,1.7-1.2c0.5-0.5,0.8-1.1,1.1-1.8
		C204.7,16.6,204.9,15.9,204.9,15.1z"/>
	<path class="st5" d="M215.4,12.5c0-0.6,0-1.2,0-1.9c0-0.6-0.1-1.5-0.1-2.5h2v2.6h0.1c0.1-0.4,0.3-0.7,0.6-1.1
		c0.3-0.4,0.6-0.7,0.9-0.9c0.4-0.3,0.8-0.5,1.3-0.7c0.5-0.2,1-0.3,1.7-0.3c0.6,0,1.1,0.1,1.5,0.2l-0.4,2c-0.3-0.1-0.6-0.1-1.1-0.1
		c-0.8,0-1.4,0.1-2,0.4c-0.5,0.3-1,0.7-1.4,1.1c-0.4,0.5-0.6,0.9-0.8,1.5c-0.2,0.5-0.3,1-0.3,1.5v7.9h-2V12.5z"/>
	<path class="st6" d="M215.4,12.5c0-0.6,0-1.2,0-1.9c0-0.6-0.1-1.5-0.1-2.5h2v2.6h0.1c0.1-0.4,0.3-0.7,0.6-1.1
		c0.3-0.4,0.6-0.7,0.9-0.9c0.4-0.3,0.8-0.5,1.3-0.7c0.5-0.2,1-0.3,1.7-0.3c0.6,0,1.1,0.1,1.5,0.2l-0.4,2c-0.3-0.1-0.6-0.1-1.1-0.1
		c-0.8,0-1.4,0.1-2,0.4c-0.5,0.3-1,0.7-1.4,1.1c-0.4,0.5-0.6,0.9-0.8,1.5c-0.2,0.5-0.3,1-0.3,1.5v7.9h-2V12.5z"/>
	<path class="st5" d="M243.6,15.1c0,1.1-0.2,2-0.6,2.9c-0.4,0.9-0.9,1.7-1.5,2.3c-0.7,0.7-1.4,1.2-2.4,1.5c-0.9,0.4-1.9,0.6-3,0.6
		c-1.1,0-2.1-0.2-3-0.6c-0.9-0.4-1.7-0.9-2.4-1.5c-0.7-0.7-1.2-1.4-1.5-2.3c-0.4-0.9-0.6-1.9-0.6-2.9s0.2-2,0.6-2.9
		c0.4-0.9,0.9-1.7,1.5-2.3c0.7-0.7,1.4-1.2,2.4-1.5c0.9-0.4,1.9-0.6,3-0.6c1.1,0,2.1,0.2,3,0.6c0.9,0.4,1.7,0.9,2.4,1.5
		c0.7,0.7,1.2,1.4,1.5,2.3C243.4,13.1,243.6,14,243.6,15.1 M241.4,15.1c0-0.8-0.1-1.5-0.4-2.2c-0.3-0.7-0.6-1.3-1.1-1.8
		c-0.5-0.5-1-0.9-1.7-1.2c-0.6-0.3-1.4-0.4-2.2-0.4c-0.8,0-1.6,0.1-2.2,0.4c-0.6,0.3-1.2,0.7-1.6,1.2c-0.4,0.5-0.8,1.1-1.1,1.8
		c-0.3,0.7-0.4,1.4-0.4,2.2c0,0.8,0.1,1.5,0.4,2.2c0.2,0.7,0.6,1.3,1.1,1.8c0.4,0.5,1,0.9,1.6,1.2c0.6,0.3,1.4,0.4,2.2,0.4
		c0.8,0,1.6-0.1,2.2-0.4c0.6-0.3,1.2-0.7,1.7-1.2c0.5-0.5,0.8-1.1,1.1-1.8C241.3,16.6,241.4,15.9,241.4,15.1"/>
	<path class="st6" d="M243.6,15.1c0,1.1-0.2,2-0.6,2.9c-0.4,0.9-0.9,1.7-1.5,2.3c-0.7,0.7-1.4,1.2-2.4,1.5c-0.9,0.4-1.9,0.6-3,0.6
		c-1.1,0-2.1-0.2-3-0.6c-0.9-0.4-1.7-0.9-2.4-1.5c-0.7-0.7-1.2-1.4-1.5-2.3c-0.4-0.9-0.6-1.9-0.6-2.9s0.2-2,0.6-2.9
		c0.4-0.9,0.9-1.7,1.5-2.3c0.7-0.7,1.4-1.2,2.4-1.5c0.9-0.4,1.9-0.6,3-0.6c1.1,0,2.1,0.2,3,0.6c0.9,0.4,1.7,0.9,2.4,1.5
		c0.7,0.7,1.2,1.4,1.5,2.3C243.4,13.1,243.6,14,243.6,15.1z M241.4,15.1c0-0.8-0.1-1.5-0.4-2.2c-0.3-0.7-0.6-1.3-1.1-1.8
		c-0.5-0.5-1-0.9-1.7-1.2c-0.6-0.3-1.4-0.4-2.2-0.4c-0.8,0-1.6,0.1-2.2,0.4c-0.6,0.3-1.2,0.7-1.6,1.2c-0.4,0.5-0.8,1.1-1.1,1.8
		c-0.3,0.7-0.4,1.4-0.4,2.2c0,0.8,0.1,1.5,0.4,2.2c0.2,0.7,0.6,1.3,1.1,1.8c0.4,0.5,1,0.9,1.6,1.2c0.6,0.3,1.4,0.4,2.2,0.4
		c0.8,0,1.6-0.1,2.2-0.4c0.6-0.3,1.2-0.7,1.7-1.2c0.5-0.5,0.8-1.1,1.1-1.8C241.3,16.6,241.4,15.9,241.4,15.1z"/>
	<path class="st5" d="M255.6,20.7c0,0.4-0.1,0.8-0.5,1.1c-0.3,0.3-0.7,0.5-1.2,0.5c-0.5,0-0.9-0.2-1.2-0.5c-0.3-0.3-0.4-0.7-0.4-1.1
		c0-0.4,0.2-0.8,0.4-1.1c0.3-0.3,0.7-0.5,1.2-0.5s0.9,0.2,1.2,0.5C255.5,19.9,255.6,20.3,255.6,20.7"/>
	<path class="st6" d="M255.6,20.7c0,0.4-0.1,0.8-0.5,1.1c-0.3,0.3-0.7,0.5-1.2,0.5c-0.5,0-0.9-0.2-1.2-0.5c-0.3-0.3-0.4-0.7-0.4-1.1
		c0-0.4,0.2-0.8,0.4-1.1c0.3-0.3,0.7-0.5,1.2-0.5s0.9,0.2,1.2,0.5C255.5,19.9,255.6,20.3,255.6,20.7z"/>
	<path class="st5" d="M275.4,11.4c-0.3-0.5-0.8-1-1.4-1.3c-0.6-0.4-1.3-0.5-2.1-0.5c-0.8,0-1.6,0.1-2.2,0.4
		c-0.6,0.3-1.2,0.7-1.7,1.2c-0.5,0.5-0.8,1.1-1,1.8c-0.2,0.7-0.4,1.4-0.4,2.2c0,0.8,0.1,1.5,0.4,2.2c0.2,0.7,0.6,1.3,1,1.8
		c0.5,0.5,1,0.9,1.7,1.2c0.6,0.3,1.4,0.4,2.2,0.4c0.8,0,1.5-0.2,2.1-0.5c0.6-0.4,1.1-0.8,1.4-1.3L277,20c-0.7,0.8-1.5,1.4-2.4,1.8
		c-0.9,0.4-1.8,0.6-2.8,0.6c-1.1,0-2.2-0.2-3.1-0.5c-0.9-0.4-1.7-0.9-2.4-1.5c-0.7-0.7-1.1-1.4-1.5-2.4c-0.3-0.9-0.5-1.9-0.5-3
		c0-1.1,0.2-2,0.5-3c0.3-0.9,0.8-1.7,1.5-2.4c0.6-0.7,1.4-1.2,2.4-1.5c0.9-0.4,2-0.5,3.1-0.5c1,0,1.9,0.2,2.8,0.6
		c0.9,0.4,1.7,1,2.4,1.8L275.4,11.4z"/>
	<path class="st6" d="M275.4,11.4c-0.3-0.5-0.8-1-1.4-1.3c-0.6-0.4-1.3-0.5-2.1-0.5c-0.8,0-1.6,0.1-2.2,0.4
		c-0.6,0.3-1.2,0.7-1.7,1.2c-0.5,0.5-0.8,1.1-1,1.8c-0.2,0.7-0.4,1.4-0.4,2.2c0,0.8,0.1,1.5,0.4,2.2c0.2,0.7,0.6,1.3,1,1.8
		c0.5,0.5,1,0.9,1.7,1.2c0.6,0.3,1.4,0.4,2.2,0.4c0.8,0,1.5-0.2,2.1-0.5c0.6-0.4,1.1-0.8,1.4-1.3L277,20c-0.7,0.8-1.5,1.4-2.4,1.8
		c-0.9,0.4-1.8,0.6-2.8,0.6c-1.1,0-2.2-0.2-3.1-0.5c-0.9-0.4-1.7-0.9-2.4-1.5c-0.7-0.7-1.1-1.4-1.5-2.4c-0.3-0.9-0.5-1.9-0.5-3
		c0-1.1,0.2-2,0.5-3c0.3-0.9,0.8-1.7,1.5-2.4c0.6-0.7,1.4-1.2,2.4-1.5c0.9-0.4,2-0.5,3.1-0.5c1,0,1.9,0.2,2.8,0.6
		c0.9,0.4,1.7,1,2.4,1.8L275.4,11.4z"/>
	<path class="st5" d="M298.6,15.1c0,1.1-0.2,2-0.6,2.9c-0.4,0.9-0.9,1.7-1.5,2.3c-0.7,0.7-1.4,1.2-2.4,1.5c-0.9,0.4-1.9,0.6-3,0.6
		c-1.1,0-2.1-0.2-3-0.6c-0.9-0.4-1.7-0.9-2.4-1.5c-0.7-0.7-1.2-1.4-1.5-2.3c-0.4-0.9-0.6-1.9-0.6-2.9s0.2-2,0.6-2.9
		c0.4-0.9,0.9-1.7,1.5-2.3c0.7-0.7,1.4-1.2,2.4-1.5c0.9-0.4,1.9-0.6,3-0.6c1.1,0,2.1,0.2,3,0.6c0.9,0.4,1.7,0.9,2.4,1.5
		c0.7,0.7,1.2,1.4,1.5,2.3C298.5,13.1,298.6,14,298.6,15.1 M296.5,15.1c0-0.8-0.1-1.5-0.4-2.2c-0.3-0.7-0.6-1.3-1.1-1.8
		c-0.5-0.5-1-0.9-1.7-1.2c-0.6-0.3-1.4-0.4-2.2-0.4c-0.8,0-1.6,0.1-2.2,0.4c-0.6,0.3-1.2,0.7-1.7,1.2c-0.4,0.5-0.8,1.1-1,1.8
		c-0.3,0.7-0.4,1.4-0.4,2.2c0,0.8,0.1,1.5,0.4,2.2c0.2,0.7,0.6,1.3,1,1.8c0.5,0.5,1,0.9,1.7,1.2c0.6,0.3,1.4,0.4,2.2,0.4
		c0.8,0,1.6-0.1,2.2-0.4c0.6-0.3,1.2-0.7,1.7-1.2c0.5-0.5,0.8-1.1,1.1-1.8C296.4,16.6,296.5,15.9,296.5,15.1"/>
	<path class="st6" d="M298.6,15.1c0,1.1-0.2,2-0.6,2.9c-0.4,0.9-0.9,1.7-1.5,2.3c-0.7,0.7-1.4,1.2-2.4,1.5c-0.9,0.4-1.9,0.6-3,0.6
		c-1.1,0-2.1-0.2-3-0.6c-0.9-0.4-1.7-0.9-2.4-1.5c-0.7-0.7-1.2-1.4-1.5-2.3c-0.4-0.9-0.6-1.9-0.6-2.9s0.2-2,0.6-2.9
		c0.4-0.9,0.9-1.7,1.5-2.3c0.7-0.7,1.4-1.2,2.4-1.5c0.9-0.4,1.9-0.6,3-0.6c1.1,0,2.1,0.2,3,0.6c0.9,0.4,1.7,0.9,2.4,1.5
		c0.7,0.7,1.2,1.4,1.5,2.3C298.5,13.1,298.6,14,298.6,15.1z M296.5,15.1c0-0.8-0.1-1.5-0.4-2.2c-0.3-0.7-0.6-1.3-1.1-1.8
		c-0.5-0.5-1-0.9-1.7-1.2c-0.6-0.3-1.4-0.4-2.2-0.4c-0.8,0-1.6,0.1-2.2,0.4c-0.6,0.3-1.2,0.7-1.7,1.2c-0.4,0.5-0.8,1.1-1,1.8
		c-0.3,0.7-0.4,1.4-0.4,2.2c0,0.8,0.1,1.5,0.4,2.2c0.2,0.7,0.6,1.3,1,1.8c0.5,0.5,1,0.9,1.7,1.2c0.6,0.3,1.4,0.4,2.2,0.4
		c0.8,0,1.6-0.1,2.2-0.4c0.6-0.3,1.2-0.7,1.7-1.2c0.5-0.5,0.8-1.1,1.1-1.8C296.4,16.6,296.5,15.9,296.5,15.1z"/>
	<path class="st5" d="M307,11.2c0-0.5,0-1,0-1.6s-0.1-1-0.1-1.6h2.1v2.1h0.1c0.5-0.8,1.1-1.4,2-1.9c0.8-0.4,1.7-0.6,2.5-0.6
		c0.4,0,0.8,0,1.2,0.1c0.4,0.1,0.8,0.2,1.2,0.4c0.4,0.2,0.8,0.5,1.1,0.9c0.4,0.4,0.6,0.9,0.9,1.5c0.4-0.9,1-1.6,1.9-2.1
		c0.9-0.5,1.8-0.8,2.7-0.8c1.8,0,3.1,0.5,4,1.4c0.9,1,1.3,2.3,1.3,4.1v8.9h-2v-8.2c0-1.4-0.2-2.5-0.8-3.3c-0.5-0.8-1.4-1.1-2.8-1.1
		c-0.7,0-1.4,0.1-1.9,0.4c-0.5,0.3-0.9,0.7-1.2,1.2c-0.3,0.5-0.5,1-0.7,1.6c-0.1,0.6-0.2,1.2-0.2,1.9v7.5h-2v-8.2
		c0-1.4-0.3-2.5-0.8-3.3c-0.5-0.8-1.4-1.1-2.8-1.1c-0.1,0-0.4,0-0.8,0.1c-0.4,0.1-0.9,0.3-1.3,0.7c-0.5,0.4-0.9,0.9-1.2,1.6
		c-0.4,0.7-0.6,1.7-0.6,3v7.2h-2L307,11.2L307,11.2z"/>
	<path class="st6" d="M307,11.2c0-0.5,0-1,0-1.6s-0.1-1-0.1-1.6h2.1v2.1h0.1c0.5-0.8,1.1-1.4,2-1.9c0.8-0.4,1.7-0.6,2.5-0.6
		c0.4,0,0.8,0,1.2,0.1c0.4,0.1,0.8,0.2,1.2,0.4c0.4,0.2,0.8,0.5,1.1,0.9c0.4,0.4,0.6,0.9,0.9,1.5c0.4-0.9,1-1.6,1.9-2.1
		c0.9-0.5,1.8-0.8,2.7-0.8c1.8,0,3.1,0.5,4,1.4c0.9,1,1.3,2.3,1.3,4.1v8.9h-2v-8.2c0-1.4-0.2-2.5-0.8-3.3c-0.5-0.8-1.4-1.1-2.8-1.1
		c-0.7,0-1.4,0.1-1.9,0.4c-0.5,0.3-0.9,0.7-1.2,1.2c-0.3,0.5-0.5,1-0.7,1.6c-0.1,0.6-0.2,1.2-0.2,1.9v7.5h-2v-8.2
		c0-1.4-0.3-2.5-0.8-3.3c-0.5-0.8-1.4-1.1-2.8-1.1c-0.1,0-0.4,0-0.8,0.1c-0.4,0.1-0.9,0.3-1.3,0.7c-0.5,0.4-0.9,0.9-1.2,1.6
		c-0.4,0.7-0.6,1.7-0.6,3v7.2h-2L307,11.2L307,11.2z"/>
	<g class="st7">
		<path class="st4" d="M106.6,41.6c0-0.3,0.1-0.6,0.3-0.8c0.2-0.2,0.5-0.3,0.8-0.3c0.3,0,0.6,0.1,0.8,0.3c0.2,0.2,0.3,0.5,0.3,0.8
			s-0.1,0.6-0.3,0.8c-0.2,0.2-0.5,0.3-0.8,0.3c-0.3,0-0.6-0.1-0.8-0.3C106.7,42.2,106.6,41.9,106.6,41.6z M108.6,44.8v7.6h-1.8v-7.6
			H108.6z"/>
		<path class="st4" d="M110.9,44.8h1.8v0.7c0.3-0.4,0.6-0.6,0.9-0.7c0.3-0.1,0.6-0.2,1-0.2c0.9,0,1.5,0.4,2,1.1
			c0.6-0.8,1.3-1.1,2.2-1.1c1.7,0,2.6,1,2.6,3.1v4.7h-1.8v-4.2c0-0.7-0.1-1.2-0.3-1.5c-0.2-0.3-0.5-0.5-0.9-0.5
			c-0.5,0-0.8,0.2-1.1,0.5c-0.2,0.4-0.3,1-0.3,1.8v3.9h-1.8v-4.2c0-1.4-0.4-2-1.2-2c-0.5,0-0.9,0.2-1.1,0.6s-0.3,1-0.3,1.8v3.9h-1.8
			V44.8z"/>
		<path class="st4" d="M123.5,44.8h1.8v0.7c0.3-0.4,0.6-0.6,0.9-0.7c0.3-0.1,0.6-0.2,1-0.2c0.9,0,1.5,0.4,2,1.1
			c0.6-0.8,1.3-1.1,2.2-1.1c1.7,0,2.6,1,2.6,3.1v4.7h-1.8v-4.2c0-0.7-0.1-1.2-0.3-1.5c-0.2-0.3-0.5-0.5-0.9-0.5
			c-0.5,0-0.8,0.2-1.1,0.5c-0.2,0.4-0.3,1-0.3,1.8v3.9h-1.8v-4.2c0-1.4-0.4-2-1.2-2c-0.5,0-0.9,0.2-1.1,0.6s-0.3,1-0.3,1.8v3.9h-1.8
			V44.8z"/>
		<path class="st4" d="M135.8,48.5c0-1.1,0.4-2,1.2-2.8c0.8-0.8,1.7-1.2,2.9-1.2c1.1,0,2.1,0.4,2.9,1.2c0.8,0.8,1.2,1.7,1.2,2.9
			c0,1.1-0.4,2.1-1.2,2.9c-0.8,0.8-1.8,1.1-2.9,1.1c-1.1,0-2.1-0.4-2.9-1.2C136.2,50.6,135.8,49.7,135.8,48.5z M137.6,48.5
			c0,0.8,0.2,1.4,0.6,1.8c0.4,0.4,1,0.7,1.6,0.7c0.7,0,1.2-0.2,1.6-0.7c0.4-0.4,0.6-1,0.6-1.8s-0.2-1.3-0.6-1.8
			c-0.4-0.4-1-0.7-1.6-0.7c-0.7,0-1.2,0.2-1.6,0.7C137.8,47.2,137.6,47.8,137.6,48.5z"/>
		<path class="st4" d="M147.6,39.2v6.5c0.7-0.7,1.5-1.1,2.4-1.1c1,0,1.9,0.4,2.6,1.1c0.7,0.8,1,1.7,1,2.8c0,1.2-0.3,2.1-1,2.9
			c-0.7,0.8-1.5,1.1-2.6,1.1c-0.9,0-1.7-0.3-2.4-1v0.8h-1.8V39.2H147.6z M151.7,48.6c0-0.7-0.2-1.3-0.6-1.8
			c-0.4-0.5-0.9-0.7-1.5-0.7c-0.6,0-1.2,0.2-1.6,0.7c-0.4,0.4-0.6,1-0.6,1.8c0,0.7,0.2,1.3,0.6,1.8c0.4,0.5,0.9,0.7,1.6,0.7
			c0.6,0,1.1-0.2,1.5-0.7C151.5,49.9,151.7,49.3,151.7,48.6z"/>
		<path class="st4" d="M155.1,41.6c0-0.3,0.1-0.6,0.3-0.8c0.2-0.2,0.5-0.3,0.8-0.3c0.3,0,0.6,0.1,0.8,0.3c0.2,0.2,0.3,0.5,0.3,0.8
			s-0.1,0.6-0.3,0.8c-0.2,0.2-0.5,0.3-0.8,0.3c-0.3,0-0.6-0.1-0.8-0.3C155.2,42.2,155.1,41.9,155.1,41.6z M157.2,44.8v7.6h-1.8v-7.6
			H157.2z"/>
		<path class="st4" d="M161.1,39.2v13.2h-1.8V39.2H161.1z"/>
		<path class="st4" d="M163.1,41.6c0-0.3,0.1-0.6,0.3-0.8s0.5-0.3,0.8-0.3c0.3,0,0.6,0.1,0.8,0.3c0.2,0.2,0.3,0.5,0.3,0.8
			s-0.1,0.6-0.3,0.8c-0.2,0.2-0.5,0.3-0.8,0.3s-0.6-0.1-0.8-0.3S163.1,41.9,163.1,41.6z M165.1,44.8v7.6h-1.8v-7.6H165.1z"/>
		<path class="st4" d="M174.3,49h-5.5c0,0.6,0.2,1.1,0.6,1.5c0.4,0.4,0.8,0.5,1.4,0.5c0.4,0,0.8-0.1,1.1-0.3c0.3-0.2,0.6-0.6,1-1.2
			l1.5,0.8c-0.2,0.4-0.5,0.7-0.7,1s-0.5,0.5-0.8,0.7s-0.6,0.3-0.9,0.4s-0.7,0.1-1.1,0.1c-1.1,0-2-0.4-2.7-1.1c-0.7-0.7-1-1.7-1-2.9
			c0-1.2,0.3-2.2,1-2.9c0.7-0.7,1.6-1.1,2.7-1.1c1.1,0,2,0.4,2.7,1.1c0.6,0.7,1,1.7,1,2.9L174.3,49z M172.5,47.5
			c-0.2-0.9-0.8-1.4-1.8-1.4c-0.2,0-0.4,0-0.6,0.1s-0.4,0.2-0.5,0.3s-0.3,0.3-0.4,0.4s-0.2,0.4-0.2,0.6H172.5z"/>
		<path class="st4" d="M176.2,44.8h1.8v0.7c0.3-0.3,0.6-0.6,0.9-0.7c0.3-0.1,0.6-0.2,0.9-0.2c0.5,0,0.9,0.2,1.5,0.5l-0.8,1.6
			c-0.3-0.2-0.7-0.4-1-0.4c-1,0-1.4,0.7-1.4,2.2v3.9h-1.8V44.8z"/>
		<path class="st4" d="M188.9,56.5h-1.8V44.8h1.8v0.8c0.7-0.7,1.5-1,2.4-1c1,0,1.9,0.4,2.6,1.2c0.7,0.8,1,1.7,1,2.9
			c0,1.1-0.3,2.1-1,2.9c-0.7,0.8-1.5,1.1-2.6,1.1c-0.9,0-1.7-0.4-2.4-1.1V56.5z M193.1,48.6c0-0.7-0.2-1.3-0.6-1.8
			c-0.4-0.5-0.9-0.7-1.5-0.7c-0.6,0-1.2,0.2-1.6,0.7s-0.6,1-0.6,1.8c0,0.7,0.2,1.3,0.6,1.8c0.4,0.5,0.9,0.7,1.6,0.7
			c0.6,0,1.1-0.2,1.5-0.7C192.9,49.9,193.1,49.3,193.1,48.6z"/>
		<path class="st4" d="M196.4,48.5c0-1.1,0.4-2,1.2-2.8s1.7-1.2,2.9-1.2c1.1,0,2.1,0.4,2.9,1.2c0.8,0.8,1.2,1.7,1.2,2.9
			c0,1.1-0.4,2.1-1.2,2.9c-0.8,0.8-1.8,1.1-2.9,1.1c-1.1,0-2.1-0.4-2.9-1.2C196.7,50.6,196.4,49.7,196.4,48.5z M198.2,48.5
			c0,0.8,0.2,1.4,0.6,1.8c0.4,0.4,1,0.7,1.6,0.7c0.7,0,1.2-0.2,1.6-0.7s0.6-1,0.6-1.8s-0.2-1.3-0.6-1.8c-0.4-0.4-1-0.7-1.6-0.7
			c-0.7,0-1.2,0.2-1.6,0.7S198.2,47.8,198.2,48.5z"/>
		<path class="st4" d="M208.1,44.8v4.4c0,1.3,0.5,1.9,1.5,1.9s1.5-0.6,1.5-1.9v-4.4h1.8v4.4c0,0.6-0.1,1.1-0.2,1.6
			c-0.1,0.4-0.4,0.8-0.8,1.1c-0.6,0.5-1.3,0.8-2.3,0.8c-0.9,0-1.7-0.3-2.3-0.8c-0.4-0.3-0.6-0.7-0.8-1.1c-0.1-0.4-0.2-0.9-0.2-1.6
			v-4.4H208.1z"/>
		<path class="st4" d="M215.1,44.8h1.8v0.7c0.3-0.3,0.6-0.6,0.9-0.7c0.3-0.1,0.6-0.2,0.9-0.2c0.5,0,0.9,0.2,1.5,0.5l-0.8,1.6
			c-0.3-0.2-0.7-0.4-1-0.4c-1,0-1.4,0.7-1.4,2.2v3.9h-1.8V44.8z"/>
		<path class="st4" d="M227.7,39.2v13.2H226V39.2H227.7z"/>
		<path class="st4" d="M236.9,49h-5.5c0,0.6,0.2,1.1,0.6,1.5c0.4,0.4,0.8,0.5,1.4,0.5c0.4,0,0.8-0.1,1.1-0.3c0.3-0.2,0.6-0.6,1-1.2
			l1.5,0.8c-0.2,0.4-0.5,0.7-0.7,1s-0.5,0.5-0.8,0.7s-0.6,0.3-0.9,0.4s-0.7,0.1-1.1,0.1c-1.1,0-2-0.4-2.7-1.1c-0.7-0.7-1-1.7-1-2.9
			c0-1.2,0.3-2.2,1-2.9c0.7-0.7,1.6-1.1,2.7-1.1c1.1,0,2,0.4,2.7,1.1c0.6,0.7,1,1.7,1,2.9L236.9,49z M235.1,47.5
			c-0.2-0.9-0.8-1.4-1.8-1.4c-0.2,0-0.4,0-0.6,0.1s-0.4,0.2-0.5,0.3s-0.3,0.3-0.4,0.4s-0.2,0.4-0.2,0.6H235.1z"/>
		<path class="st4" d="M243.2,46.1l-1.5,0.8c-0.2-0.5-0.5-0.7-0.9-0.7c-0.2,0-0.3,0.1-0.4,0.2s-0.2,0.2-0.2,0.4c0,0.3,0.3,0.6,1,0.9
			c0.9,0.4,1.6,0.8,1.9,1.1s0.5,0.8,0.5,1.4c0,0.7-0.3,1.3-0.8,1.8c-0.5,0.5-1.2,0.7-1.9,0.7c-1.3,0-2.2-0.6-2.7-1.9l1.5-0.7
			c0.2,0.4,0.4,0.6,0.5,0.7c0.2,0.2,0.5,0.3,0.8,0.3c0.6,0,0.9-0.3,0.9-0.8c0-0.3-0.2-0.6-0.7-0.9c-0.2-0.1-0.4-0.2-0.5-0.3
			s-0.4-0.2-0.5-0.3c-0.5-0.2-0.9-0.5-1.1-0.8c-0.3-0.3-0.4-0.7-0.4-1.2c0-0.7,0.2-1.2,0.7-1.6c0.5-0.4,1-0.6,1.7-0.6
			C242,44.5,242.8,45,243.2,46.1z"/>
		<path class="st4" d="M252,56.5h-1.8V44.8h1.8v0.8c0.7-0.7,1.5-1,2.4-1c1,0,1.9,0.4,2.6,1.2c0.7,0.8,1,1.7,1,2.9
			c0,1.1-0.3,2.1-1,2.9c-0.7,0.8-1.5,1.1-2.6,1.1c-0.9,0-1.7-0.4-2.4-1.1V56.5z M256.2,48.6c0-0.7-0.2-1.3-0.6-1.8
			c-0.4-0.5-0.9-0.7-1.5-0.7c-0.6,0-1.2,0.2-1.6,0.7s-0.6,1-0.6,1.8c0,0.7,0.2,1.3,0.6,1.8c0.4,0.5,0.9,0.7,1.6,0.7
			c0.6,0,1.1-0.2,1.5-0.7C256,49.9,256.2,49.3,256.2,48.6z"/>
		<path class="st4" d="M265.4,44.8h1.8v7.6h-1.8v-0.8c-0.7,0.7-1.5,1-2.3,1c-1.1,0-1.9-0.4-2.6-1.1c-0.7-0.8-1-1.7-1-2.9
			c0-1.1,0.3-2.1,1-2.9s1.5-1.1,2.6-1.1c0.9,0,1.7,0.4,2.4,1.1V44.8z M261.3,48.5c0,0.7,0.2,1.3,0.6,1.8c0.4,0.5,0.9,0.7,1.5,0.7
			c0.7,0,1.2-0.2,1.6-0.7c0.4-0.5,0.6-1.1,0.6-1.8s-0.2-1.3-0.6-1.8c-0.4-0.5-0.9-0.7-1.6-0.7c-0.6,0-1.1,0.2-1.5,0.7
			C261.5,47.3,261.3,47.9,261.3,48.5z"/>
		<path class="st4" d="M269.4,44.8h1.8v0.7c0.3-0.3,0.6-0.6,0.9-0.7c0.3-0.1,0.6-0.2,0.9-0.2c0.5,0,0.9,0.2,1.5,0.5l-0.8,1.6
			c-0.3-0.2-0.7-0.4-1-0.4c-1,0-1.4,0.7-1.4,2.2v3.9h-1.8V44.8z"/>
		<path class="st4" d="M277.8,46.4v6H276v-6h-0.8v-1.6h0.8V42h1.8v2.8h1.4v1.6H277.8z"/>
		<path class="st4" d="M280.1,41.6c0-0.3,0.1-0.6,0.3-0.8s0.5-0.3,0.8-0.3c0.3,0,0.6,0.1,0.8,0.3c0.2,0.2,0.3,0.5,0.3,0.8
			s-0.1,0.6-0.3,0.8c-0.2,0.2-0.5,0.3-0.8,0.3s-0.6-0.1-0.8-0.3S280.1,41.9,280.1,41.6z M282.1,44.8v7.6h-1.8v-7.6H282.1z"/>
		<path class="st4" d="M290.3,45.1v2.3c-0.4-0.5-0.8-0.8-1.1-1c-0.3-0.2-0.7-0.3-1.1-0.3c-0.7,0-1.2,0.2-1.6,0.7s-0.7,1-0.7,1.7
			c0,0.7,0.2,1.3,0.6,1.8c0.4,0.5,1,0.7,1.6,0.7c0.4,0,0.8-0.1,1.1-0.3c0.3-0.2,0.7-0.5,1.1-1V52c-0.7,0.4-1.4,0.6-2.1,0.6
			c-1.2,0-2.2-0.4-3-1.1c-0.8-0.8-1.2-1.7-1.2-2.9s0.4-2.1,1.2-2.9s1.8-1.2,3-1.2C288.9,44.5,289.6,44.7,290.3,45.1z"/>
		<path class="st4" d="M293.7,44.8v4.4c0,1.3,0.5,1.9,1.5,1.9s1.5-0.6,1.5-1.9v-4.4h1.8v4.4c0,0.6-0.1,1.1-0.2,1.6
			c-0.1,0.4-0.4,0.8-0.8,1.1c-0.6,0.5-1.3,0.8-2.3,0.8c-0.9,0-1.7-0.3-2.3-0.8c-0.4-0.3-0.6-0.7-0.8-1.1c-0.1-0.4-0.2-0.9-0.2-1.6
			v-4.4H293.7z"/>
		<path class="st4" d="M302.5,39.2v13.2h-1.8V39.2H302.5z"/>
		<path class="st4" d="M304.4,41.6c0-0.3,0.1-0.6,0.3-0.8s0.5-0.3,0.8-0.3c0.3,0,0.6,0.1,0.8,0.3c0.2,0.2,0.3,0.5,0.3,0.8
			s-0.1,0.6-0.3,0.8c-0.2,0.2-0.5,0.3-0.8,0.3s-0.6-0.1-0.8-0.3S304.4,41.9,304.4,41.6z M306.4,44.8v7.6h-1.8v-7.6H306.4z"/>
		<path class="st4" d="M315.6,49h-5.5c0,0.6,0.2,1.1,0.6,1.5c0.4,0.4,0.8,0.5,1.4,0.5c0.4,0,0.8-0.1,1.1-0.3c0.3-0.2,0.6-0.6,1-1.2
			l1.5,0.8c-0.2,0.4-0.5,0.7-0.7,1s-0.5,0.5-0.8,0.7s-0.6,0.3-0.9,0.4s-0.7,0.1-1.1,0.1c-1.1,0-2-0.4-2.7-1.1c-0.7-0.7-1-1.7-1-2.9
			c0-1.2,0.3-2.2,1-2.9c0.7-0.7,1.6-1.1,2.7-1.1c1.1,0,2,0.4,2.7,1.1c0.6,0.7,1,1.7,1,2.9L315.6,49z M313.8,47.5
			c-0.2-0.9-0.8-1.4-1.8-1.4c-0.2,0-0.4,0-0.6,0.1s-0.4,0.2-0.5,0.3s-0.3,0.3-0.4,0.4s-0.2,0.4-0.2,0.6H313.8z"/>
		<path class="st4" d="M317.5,44.8h1.8v0.7c0.3-0.3,0.6-0.6,0.9-0.7c0.3-0.1,0.6-0.2,0.9-0.2c0.5,0,0.9,0.2,1.5,0.5l-0.8,1.6
			c-0.3-0.2-0.7-0.4-1-0.4c-1,0-1.4,0.7-1.4,2.2v3.9h-1.8V44.8z"/>
		<path class="st4" d="M327.9,46.1l-1.5,0.8c-0.2-0.5-0.5-0.7-0.9-0.7c-0.2,0-0.3,0.1-0.4,0.2s-0.2,0.2-0.2,0.4c0,0.3,0.3,0.6,1,0.9
			c0.9,0.4,1.6,0.8,1.9,1.1s0.5,0.8,0.5,1.4c0,0.7-0.3,1.3-0.8,1.8c-0.5,0.5-1.2,0.7-1.9,0.7c-1.3,0-2.2-0.6-2.7-1.9l1.5-0.7
			c0.2,0.4,0.4,0.6,0.5,0.7c0.2,0.2,0.5,0.3,0.8,0.3c0.6,0,0.9-0.3,0.9-0.8c0-0.3-0.2-0.6-0.7-0.9c-0.2-0.1-0.4-0.2-0.5-0.3
			s-0.4-0.2-0.5-0.3c-0.5-0.2-0.9-0.5-1.1-0.8c-0.3-0.3-0.4-0.7-0.4-1.2c0-0.7,0.2-1.2,0.7-1.6c0.5-0.4,1-0.6,1.7-0.6
			C326.7,44.5,327.4,45,327.9,46.1z"/>
	</g>
</g>
</svg>
